M48
; DRILL file {KiCad 9.0.2+dfsg-1} date 2025-05-28T16:18:47+0800
; FORMAT={-:-/ absolute / metric / decimal}
; #@! TF.CreationDate,2025-05-28T16:18:47+08:00
; #@! TF.GenerationSoftware,Kicad,Pcbnew,9.0.2+dfsg-1
; #@! TF.FileFunction,Plated,1,4,PTH
FMAT,2
METRIC
; #@! TA.AperFunction,Plated,PTH,ViaDrill
T1C0.350
; #@! TA.AperFunction,Plated,PTH,ComponentDrill
T2C1.000
%
G90
G05
T1
X140.97Y-98.425
X144.145Y-98.425
X145.415Y-94.615
X145.415Y-97.155
X146.05Y-90.805
X146.05Y-92.075
X146.05Y-96.52
X147.32Y-92.075
X147.32Y-94.615
X147.32Y-98.425
X147.32Y-99.695
X147.32Y-102.235
X149.225Y-96.52
X151.13Y-102.235
X152.4Y-92.075
X152.4Y-100.33
X152.4Y-102.235
X153.035Y-97.79
X153.67Y-93.98
X154.305Y-92.71
X154.305Y-97.79
T2
X137.16Y-91.44
X137.16Y-93.98
X137.16Y-96.52
X137.16Y-99.06
X137.16Y-101.6
M30
