G04 #@! TF.GenerationSoftware,KiCad,Pcbnew,9.0.1+dfsg-1*
G04 #@! TF.CreationDate,2025-05-27T11:20:24+08:00*
G04 #@! TF.ProjectId,i2c_led,6932635f-6c65-4642-9e6b-696361645f70,a*
G04 #@! TF.SameCoordinates,Original*
G04 #@! TF.FileFunction,Legend,Top*
G04 #@! TF.FilePolarity,Positive*
%FSLAX46Y46*%
G04 Gerber Fmt 4.6, Leading zero omitted, Abs format (unit mm)*
G04 Created by KiCad (PCBNEW 9.0.1+dfsg-1) date 2025-05-27 11:20:24*
%MOMM*%
%LPD*%
G01*
G04 APERTURE LIST*
%ADD10C,0.150000*%
%ADD11C,0.100000*%
%ADD12C,0.120000*%
G04 APERTURE END LIST*
D10*
X143074580Y-91606666D02*
X143122200Y-91654285D01*
X143122200Y-91654285D02*
X143169819Y-91797142D01*
X143169819Y-91797142D02*
X143169819Y-91892380D01*
X143169819Y-91892380D02*
X143122200Y-92035237D01*
X143122200Y-92035237D02*
X143026961Y-92130475D01*
X143026961Y-92130475D02*
X142931723Y-92178094D01*
X142931723Y-92178094D02*
X142741247Y-92225713D01*
X142741247Y-92225713D02*
X142598390Y-92225713D01*
X142598390Y-92225713D02*
X142407914Y-92178094D01*
X142407914Y-92178094D02*
X142312676Y-92130475D01*
X142312676Y-92130475D02*
X142217438Y-92035237D01*
X142217438Y-92035237D02*
X142169819Y-91892380D01*
X142169819Y-91892380D02*
X142169819Y-91797142D01*
X142169819Y-91797142D02*
X142217438Y-91654285D01*
X142217438Y-91654285D02*
X142265057Y-91606666D01*
X143169819Y-90654285D02*
X143169819Y-91225713D01*
X143169819Y-90939999D02*
X142169819Y-90939999D01*
X142169819Y-90939999D02*
X142312676Y-91035237D01*
X142312676Y-91035237D02*
X142407914Y-91130475D01*
X142407914Y-91130475D02*
X142455533Y-91225713D01*
X143169819Y-96686666D02*
X142693628Y-97019999D01*
X143169819Y-97258094D02*
X142169819Y-97258094D01*
X142169819Y-97258094D02*
X142169819Y-96877142D01*
X142169819Y-96877142D02*
X142217438Y-96781904D01*
X142217438Y-96781904D02*
X142265057Y-96734285D01*
X142265057Y-96734285D02*
X142360295Y-96686666D01*
X142360295Y-96686666D02*
X142503152Y-96686666D01*
X142503152Y-96686666D02*
X142598390Y-96734285D01*
X142598390Y-96734285D02*
X142646009Y-96781904D01*
X142646009Y-96781904D02*
X142693628Y-96877142D01*
X142693628Y-96877142D02*
X142693628Y-97258094D01*
X142265057Y-96305713D02*
X142217438Y-96258094D01*
X142217438Y-96258094D02*
X142169819Y-96162856D01*
X142169819Y-96162856D02*
X142169819Y-95924761D01*
X142169819Y-95924761D02*
X142217438Y-95829523D01*
X142217438Y-95829523D02*
X142265057Y-95781904D01*
X142265057Y-95781904D02*
X142360295Y-95734285D01*
X142360295Y-95734285D02*
X142455533Y-95734285D01*
X142455533Y-95734285D02*
X142598390Y-95781904D01*
X142598390Y-95781904D02*
X143169819Y-96353332D01*
X143169819Y-96353332D02*
X143169819Y-95734285D01*
D11*
X145819905Y-102057419D02*
X145819905Y-101057419D01*
X145819905Y-101057419D02*
X146058000Y-101057419D01*
X146058000Y-101057419D02*
X146200857Y-101105038D01*
X146200857Y-101105038D02*
X146296095Y-101200276D01*
X146296095Y-101200276D02*
X146343714Y-101295514D01*
X146343714Y-101295514D02*
X146391333Y-101485990D01*
X146391333Y-101485990D02*
X146391333Y-101628847D01*
X146391333Y-101628847D02*
X146343714Y-101819323D01*
X146343714Y-101819323D02*
X146296095Y-101914561D01*
X146296095Y-101914561D02*
X146200857Y-102009800D01*
X146200857Y-102009800D02*
X146058000Y-102057419D01*
X146058000Y-102057419D02*
X145819905Y-102057419D01*
X147248476Y-101390752D02*
X147248476Y-102057419D01*
X147010381Y-101009800D02*
X146772286Y-101724085D01*
X146772286Y-101724085D02*
X147391333Y-101724085D01*
X150899905Y-102057419D02*
X150899905Y-101057419D01*
X150899905Y-101057419D02*
X151138000Y-101057419D01*
X151138000Y-101057419D02*
X151280857Y-101105038D01*
X151280857Y-101105038D02*
X151376095Y-101200276D01*
X151376095Y-101200276D02*
X151423714Y-101295514D01*
X151423714Y-101295514D02*
X151471333Y-101485990D01*
X151471333Y-101485990D02*
X151471333Y-101628847D01*
X151471333Y-101628847D02*
X151423714Y-101819323D01*
X151423714Y-101819323D02*
X151376095Y-101914561D01*
X151376095Y-101914561D02*
X151280857Y-102009800D01*
X151280857Y-102009800D02*
X151138000Y-102057419D01*
X151138000Y-102057419D02*
X150899905Y-102057419D01*
X152423714Y-102057419D02*
X151852286Y-102057419D01*
X152138000Y-102057419D02*
X152138000Y-101057419D01*
X152138000Y-101057419D02*
X152042762Y-101200276D01*
X152042762Y-101200276D02*
X151947524Y-101295514D01*
X151947524Y-101295514D02*
X151852286Y-101343133D01*
D10*
X145349819Y-97281904D02*
X146159342Y-97281904D01*
X146159342Y-97281904D02*
X146254580Y-97234285D01*
X146254580Y-97234285D02*
X146302200Y-97186666D01*
X146302200Y-97186666D02*
X146349819Y-97091428D01*
X146349819Y-97091428D02*
X146349819Y-96900952D01*
X146349819Y-96900952D02*
X146302200Y-96805714D01*
X146302200Y-96805714D02*
X146254580Y-96758095D01*
X146254580Y-96758095D02*
X146159342Y-96710476D01*
X146159342Y-96710476D02*
X145349819Y-96710476D01*
X146349819Y-95710476D02*
X146349819Y-96281904D01*
X146349819Y-95996190D02*
X145349819Y-95996190D01*
X145349819Y-95996190D02*
X145492676Y-96091428D01*
X145492676Y-96091428D02*
X145587914Y-96186666D01*
X145587914Y-96186666D02*
X145635533Y-96281904D01*
D11*
X150899905Y-91897419D02*
X150899905Y-90897419D01*
X150899905Y-90897419D02*
X151138000Y-90897419D01*
X151138000Y-90897419D02*
X151280857Y-90945038D01*
X151280857Y-90945038D02*
X151376095Y-91040276D01*
X151376095Y-91040276D02*
X151423714Y-91135514D01*
X151423714Y-91135514D02*
X151471333Y-91325990D01*
X151471333Y-91325990D02*
X151471333Y-91468847D01*
X151471333Y-91468847D02*
X151423714Y-91659323D01*
X151423714Y-91659323D02*
X151376095Y-91754561D01*
X151376095Y-91754561D02*
X151280857Y-91849800D01*
X151280857Y-91849800D02*
X151138000Y-91897419D01*
X151138000Y-91897419D02*
X150899905Y-91897419D01*
X151804667Y-90897419D02*
X152423714Y-90897419D01*
X152423714Y-90897419D02*
X152090381Y-91278371D01*
X152090381Y-91278371D02*
X152233238Y-91278371D01*
X152233238Y-91278371D02*
X152328476Y-91325990D01*
X152328476Y-91325990D02*
X152376095Y-91373609D01*
X152376095Y-91373609D02*
X152423714Y-91468847D01*
X152423714Y-91468847D02*
X152423714Y-91706942D01*
X152423714Y-91706942D02*
X152376095Y-91802180D01*
X152376095Y-91802180D02*
X152328476Y-91849800D01*
X152328476Y-91849800D02*
X152233238Y-91897419D01*
X152233238Y-91897419D02*
X151947524Y-91897419D01*
X151947524Y-91897419D02*
X151852286Y-91849800D01*
X151852286Y-91849800D02*
X151804667Y-91802180D01*
X145946905Y-91897419D02*
X145946905Y-90897419D01*
X145946905Y-90897419D02*
X146185000Y-90897419D01*
X146185000Y-90897419D02*
X146327857Y-90945038D01*
X146327857Y-90945038D02*
X146423095Y-91040276D01*
X146423095Y-91040276D02*
X146470714Y-91135514D01*
X146470714Y-91135514D02*
X146518333Y-91325990D01*
X146518333Y-91325990D02*
X146518333Y-91468847D01*
X146518333Y-91468847D02*
X146470714Y-91659323D01*
X146470714Y-91659323D02*
X146423095Y-91754561D01*
X146423095Y-91754561D02*
X146327857Y-91849800D01*
X146327857Y-91849800D02*
X146185000Y-91897419D01*
X146185000Y-91897419D02*
X145946905Y-91897419D01*
X147423095Y-90897419D02*
X146946905Y-90897419D01*
X146946905Y-90897419D02*
X146899286Y-91373609D01*
X146899286Y-91373609D02*
X146946905Y-91325990D01*
X146946905Y-91325990D02*
X147042143Y-91278371D01*
X147042143Y-91278371D02*
X147280238Y-91278371D01*
X147280238Y-91278371D02*
X147375476Y-91325990D01*
X147375476Y-91325990D02*
X147423095Y-91373609D01*
X147423095Y-91373609D02*
X147470714Y-91468847D01*
X147470714Y-91468847D02*
X147470714Y-91706942D01*
X147470714Y-91706942D02*
X147423095Y-91802180D01*
X147423095Y-91802180D02*
X147375476Y-91849800D01*
X147375476Y-91849800D02*
X147280238Y-91897419D01*
X147280238Y-91897419D02*
X147042143Y-91897419D01*
X147042143Y-91897419D02*
X146946905Y-91849800D01*
X146946905Y-91849800D02*
X146899286Y-91802180D01*
D10*
X143169819Y-101766666D02*
X142693628Y-102099999D01*
X143169819Y-102338094D02*
X142169819Y-102338094D01*
X142169819Y-102338094D02*
X142169819Y-101957142D01*
X142169819Y-101957142D02*
X142217438Y-101861904D01*
X142217438Y-101861904D02*
X142265057Y-101814285D01*
X142265057Y-101814285D02*
X142360295Y-101766666D01*
X142360295Y-101766666D02*
X142503152Y-101766666D01*
X142503152Y-101766666D02*
X142598390Y-101814285D01*
X142598390Y-101814285D02*
X142646009Y-101861904D01*
X142646009Y-101861904D02*
X142693628Y-101957142D01*
X142693628Y-101957142D02*
X142693628Y-102338094D01*
X142169819Y-101433332D02*
X142169819Y-100814285D01*
X142169819Y-100814285D02*
X142550771Y-101147618D01*
X142550771Y-101147618D02*
X142550771Y-101004761D01*
X142550771Y-101004761D02*
X142598390Y-100909523D01*
X142598390Y-100909523D02*
X142646009Y-100861904D01*
X142646009Y-100861904D02*
X142741247Y-100814285D01*
X142741247Y-100814285D02*
X142979342Y-100814285D01*
X142979342Y-100814285D02*
X143074580Y-100861904D01*
X143074580Y-100861904D02*
X143122200Y-100909523D01*
X143122200Y-100909523D02*
X143169819Y-101004761D01*
X143169819Y-101004761D02*
X143169819Y-101290475D01*
X143169819Y-101290475D02*
X143122200Y-101385713D01*
X143122200Y-101385713D02*
X143074580Y-101433332D01*
D11*
X152931905Y-95377419D02*
X152931905Y-94377419D01*
X152931905Y-94377419D02*
X153170000Y-94377419D01*
X153170000Y-94377419D02*
X153312857Y-94425038D01*
X153312857Y-94425038D02*
X153408095Y-94520276D01*
X153408095Y-94520276D02*
X153455714Y-94615514D01*
X153455714Y-94615514D02*
X153503333Y-94805990D01*
X153503333Y-94805990D02*
X153503333Y-94948847D01*
X153503333Y-94948847D02*
X153455714Y-95139323D01*
X153455714Y-95139323D02*
X153408095Y-95234561D01*
X153408095Y-95234561D02*
X153312857Y-95329800D01*
X153312857Y-95329800D02*
X153170000Y-95377419D01*
X153170000Y-95377419D02*
X152931905Y-95377419D01*
X153884286Y-94472657D02*
X153931905Y-94425038D01*
X153931905Y-94425038D02*
X154027143Y-94377419D01*
X154027143Y-94377419D02*
X154265238Y-94377419D01*
X154265238Y-94377419D02*
X154360476Y-94425038D01*
X154360476Y-94425038D02*
X154408095Y-94472657D01*
X154408095Y-94472657D02*
X154455714Y-94567895D01*
X154455714Y-94567895D02*
X154455714Y-94663133D01*
X154455714Y-94663133D02*
X154408095Y-94805990D01*
X154408095Y-94805990D02*
X153836667Y-95377419D01*
X153836667Y-95377419D02*
X154455714Y-95377419D01*
D10*
X140059580Y-101766666D02*
X140107200Y-101814285D01*
X140107200Y-101814285D02*
X140154819Y-101957142D01*
X140154819Y-101957142D02*
X140154819Y-102052380D01*
X140154819Y-102052380D02*
X140107200Y-102195237D01*
X140107200Y-102195237D02*
X140011961Y-102290475D01*
X140011961Y-102290475D02*
X139916723Y-102338094D01*
X139916723Y-102338094D02*
X139726247Y-102385713D01*
X139726247Y-102385713D02*
X139583390Y-102385713D01*
X139583390Y-102385713D02*
X139392914Y-102338094D01*
X139392914Y-102338094D02*
X139297676Y-102290475D01*
X139297676Y-102290475D02*
X139202438Y-102195237D01*
X139202438Y-102195237D02*
X139154819Y-102052380D01*
X139154819Y-102052380D02*
X139154819Y-101957142D01*
X139154819Y-101957142D02*
X139202438Y-101814285D01*
X139202438Y-101814285D02*
X139250057Y-101766666D01*
X139154819Y-101433332D02*
X139154819Y-100814285D01*
X139154819Y-100814285D02*
X139535771Y-101147618D01*
X139535771Y-101147618D02*
X139535771Y-101004761D01*
X139535771Y-101004761D02*
X139583390Y-100909523D01*
X139583390Y-100909523D02*
X139631009Y-100861904D01*
X139631009Y-100861904D02*
X139726247Y-100814285D01*
X139726247Y-100814285D02*
X139964342Y-100814285D01*
X139964342Y-100814285D02*
X140059580Y-100861904D01*
X140059580Y-100861904D02*
X140107200Y-100909523D01*
X140107200Y-100909523D02*
X140154819Y-101004761D01*
X140154819Y-101004761D02*
X140154819Y-101290475D01*
X140154819Y-101290475D02*
X140107200Y-101385713D01*
X140107200Y-101385713D02*
X140059580Y-101433332D01*
X139994819Y-96686666D02*
X139518628Y-97019999D01*
X139994819Y-97258094D02*
X138994819Y-97258094D01*
X138994819Y-97258094D02*
X138994819Y-96877142D01*
X138994819Y-96877142D02*
X139042438Y-96781904D01*
X139042438Y-96781904D02*
X139090057Y-96734285D01*
X139090057Y-96734285D02*
X139185295Y-96686666D01*
X139185295Y-96686666D02*
X139328152Y-96686666D01*
X139328152Y-96686666D02*
X139423390Y-96734285D01*
X139423390Y-96734285D02*
X139471009Y-96781904D01*
X139471009Y-96781904D02*
X139518628Y-96877142D01*
X139518628Y-96877142D02*
X139518628Y-97258094D01*
X139994819Y-95734285D02*
X139994819Y-96305713D01*
X139994819Y-96019999D02*
X138994819Y-96019999D01*
X138994819Y-96019999D02*
X139137676Y-96115237D01*
X139137676Y-96115237D02*
X139232914Y-96210475D01*
X139232914Y-96210475D02*
X139280533Y-96305713D01*
X139899580Y-91606666D02*
X139947200Y-91654285D01*
X139947200Y-91654285D02*
X139994819Y-91797142D01*
X139994819Y-91797142D02*
X139994819Y-91892380D01*
X139994819Y-91892380D02*
X139947200Y-92035237D01*
X139947200Y-92035237D02*
X139851961Y-92130475D01*
X139851961Y-92130475D02*
X139756723Y-92178094D01*
X139756723Y-92178094D02*
X139566247Y-92225713D01*
X139566247Y-92225713D02*
X139423390Y-92225713D01*
X139423390Y-92225713D02*
X139232914Y-92178094D01*
X139232914Y-92178094D02*
X139137676Y-92130475D01*
X139137676Y-92130475D02*
X139042438Y-92035237D01*
X139042438Y-92035237D02*
X138994819Y-91892380D01*
X138994819Y-91892380D02*
X138994819Y-91797142D01*
X138994819Y-91797142D02*
X139042438Y-91654285D01*
X139042438Y-91654285D02*
X139090057Y-91606666D01*
X139090057Y-91225713D02*
X139042438Y-91178094D01*
X139042438Y-91178094D02*
X138994819Y-91082856D01*
X138994819Y-91082856D02*
X138994819Y-90844761D01*
X138994819Y-90844761D02*
X139042438Y-90749523D01*
X139042438Y-90749523D02*
X139090057Y-90701904D01*
X139090057Y-90701904D02*
X139185295Y-90654285D01*
X139185295Y-90654285D02*
X139280533Y-90654285D01*
X139280533Y-90654285D02*
X139423390Y-90701904D01*
X139423390Y-90701904D02*
X139994819Y-91273332D01*
X139994819Y-91273332D02*
X139994819Y-90654285D01*
D12*
G04 #@! TO.C,C1*
X143635000Y-91580580D02*
X143635000Y-91299420D01*
X144655000Y-91580580D02*
X144655000Y-91299420D01*
G04 #@! TO.C,R2*
X143622500Y-96757258D02*
X143622500Y-96282742D01*
X144667500Y-96757258D02*
X144667500Y-96282742D01*
D11*
G04 #@! TO.C,D4*
X147590000Y-100700000D02*
X147590000Y-101100000D01*
X147590000Y-102500000D02*
X149590000Y-102500000D01*
X147990000Y-100700000D02*
X147590000Y-100700000D01*
X147990000Y-100700000D02*
X149590000Y-100700000D01*
G04 #@! TO.C,D1*
X152670000Y-100700000D02*
X152670000Y-101100000D01*
X152670000Y-102500000D02*
X154670000Y-102500000D01*
X153070000Y-100700000D02*
X152670000Y-100700000D01*
X153070000Y-100700000D02*
X154670000Y-100700000D01*
D12*
G04 #@! TO.C,U1*
X147115000Y-94410000D02*
X147590000Y-94410000D01*
X147115000Y-94885000D02*
X147115000Y-94410000D01*
X147115000Y-98155000D02*
X147115000Y-98330000D01*
X147590000Y-98630000D02*
X147355000Y-98630000D01*
X151335000Y-94410000D02*
X150860000Y-94410000D01*
X151335000Y-94885000D02*
X151335000Y-94410000D01*
X151335000Y-98155000D02*
X151335000Y-98630000D01*
X151335000Y-98630000D02*
X150860000Y-98630000D01*
X147115000Y-98630000D02*
X146785000Y-98870000D01*
X146785000Y-98390000D01*
X147115000Y-98630000D01*
G36*
X147115000Y-98630000D02*
G01*
X146785000Y-98870000D01*
X146785000Y-98390000D01*
X147115000Y-98630000D01*
G37*
D11*
G04 #@! TO.C,D3*
X152670000Y-90540000D02*
X152670000Y-90940000D01*
X152670000Y-92340000D02*
X154670000Y-92340000D01*
X153070000Y-90540000D02*
X152670000Y-90540000D01*
X153070000Y-90540000D02*
X154670000Y-90540000D01*
G04 #@! TO.C,D5*
X147590000Y-90540000D02*
X147590000Y-90940000D01*
X147590000Y-92340000D02*
X149590000Y-92340000D01*
X147990000Y-90540000D02*
X147590000Y-90540000D01*
X147990000Y-90540000D02*
X149590000Y-90540000D01*
D12*
G04 #@! TO.C,R3*
X143622500Y-101837258D02*
X143622500Y-101362742D01*
X144667500Y-101837258D02*
X144667500Y-101362742D01*
D11*
G04 #@! TO.C,D2*
X152670000Y-95620000D02*
X152670000Y-96020000D01*
X152670000Y-97420000D02*
X154670000Y-97420000D01*
X153070000Y-95620000D02*
X152670000Y-95620000D01*
X153070000Y-95620000D02*
X154670000Y-95620000D01*
D12*
G04 #@! TO.C,C3*
X140460000Y-101459420D02*
X140460000Y-101740580D01*
X141480000Y-101459420D02*
X141480000Y-101740580D01*
G04 #@! TO.C,R1*
X140447500Y-96757258D02*
X140447500Y-96282742D01*
X141492500Y-96757258D02*
X141492500Y-96282742D01*
G04 #@! TO.C,J1*
X135780000Y-90060000D02*
X137160000Y-90060000D01*
X135780000Y-91440000D02*
X135780000Y-90060000D01*
X135780000Y-92710000D02*
X135780000Y-102980000D01*
X135780000Y-92710000D02*
X138540000Y-92710000D01*
X135780000Y-102980000D02*
X138540000Y-102980000D01*
X138540000Y-92710000D02*
X138540000Y-102980000D01*
G04 #@! TO.C,C2*
X140460000Y-91580580D02*
X140460000Y-91299420D01*
X141480000Y-91580580D02*
X141480000Y-91299420D01*
G04 #@! TD*
M02*
