G04 #@! TF.GenerationSoftware,KiCad,Pcbnew,9.0.1+dfsg-1*
G04 #@! TF.CreationDate,2025-05-27T11:20:24+08:00*
G04 #@! TF.ProjectId,i2c_led,6932635f-6c65-4642-9e6b-696361645f70,a*
G04 #@! TF.SameCoordinates,Original*
G04 #@! TF.FileFunction,Copper,L2,Inr*
G04 #@! TF.FilePolarity,Positive*
%FSLAX46Y46*%
G04 Gerber Fmt 4.6, Leading zero omitted, Abs format (unit mm)*
G04 Created by KiCad (PCBNEW 9.0.1+dfsg-1) date 2025-05-27 11:20:24*
%MOMM*%
%LPD*%
G01*
G04 APERTURE LIST*
G04 #@! TA.AperFunction,ComponentPad*
%ADD10R,1.700000X1.700000*%
G04 #@! TD*
G04 #@! TA.AperFunction,ComponentPad*
%ADD11C,1.700000*%
G04 #@! TD*
G04 #@! TA.AperFunction,ViaPad*
%ADD12C,0.700000*%
G04 #@! TD*
G04 APERTURE END LIST*
D10*
G04 #@! TO.N,VCC*
G04 #@! TO.C,J1*
X137160000Y-91440000D03*
D11*
G04 #@! TO.N,/SCL*
X137160000Y-93980000D03*
G04 #@! TO.N,/SDA*
X137160000Y-96520000D03*
G04 #@! TO.N,/RSTN*
X137160000Y-99060000D03*
G04 #@! TO.N,GND*
X137160000Y-101600000D03*
G04 #@! TD*
D12*
G04 #@! TO.N,GND*
X151130000Y-102235000D03*
X149225000Y-96520000D03*
X145415000Y-97155000D03*
X153670000Y-93980000D03*
X154305000Y-98425000D03*
X146050000Y-90170000D03*
X146050000Y-91440000D03*
X152400000Y-100330000D03*
X145415000Y-94615000D03*
G04 #@! TO.N,VCC*
X152400000Y-92075000D03*
X146050000Y-96520000D03*
X140970000Y-98425000D03*
X147320000Y-92075000D03*
X153035000Y-97790000D03*
X152400000Y-102235000D03*
X144145000Y-98425000D03*
X147320000Y-102235000D03*
G04 #@! TO.N,Net-(D3-BK)*
X147320000Y-99695000D03*
X154305000Y-92710000D03*
G04 #@! TO.N,AD0*
X147320000Y-94615000D03*
G04 #@! TO.N,AD1*
X147320000Y-98425000D03*
G04 #@! TD*
G04 #@! TA.AperFunction,Conductor*
G04 #@! TO.N,VCC*
G36*
X145687680Y-89705493D02*
G01*
X145713400Y-89750042D01*
X145704467Y-89800700D01*
X145692516Y-89816274D01*
X145647582Y-89861207D01*
X145647578Y-89861213D01*
X145581371Y-89975885D01*
X145565244Y-90036076D01*
X145547100Y-90103792D01*
X145547100Y-90236208D01*
X145567662Y-90312950D01*
X145581371Y-90364114D01*
X145647578Y-90478786D01*
X145647582Y-90478792D01*
X145741207Y-90572417D01*
X145741210Y-90572419D01*
X145741212Y-90572421D01*
X145791775Y-90601613D01*
X145855885Y-90638628D01*
X145855887Y-90638628D01*
X145855888Y-90638629D01*
X145983792Y-90672900D01*
X145983794Y-90672900D01*
X146116206Y-90672900D01*
X146116208Y-90672900D01*
X146244112Y-90638629D01*
X146358788Y-90572421D01*
X146452421Y-90478788D01*
X146518629Y-90364112D01*
X146552900Y-90236208D01*
X146552900Y-90103792D01*
X146518629Y-89975888D01*
X146518628Y-89975887D01*
X146518628Y-89975885D01*
X146481613Y-89911775D01*
X146452421Y-89861212D01*
X146452419Y-89861210D01*
X146452417Y-89861207D01*
X146407484Y-89816274D01*
X146385744Y-89769654D01*
X146399058Y-89719967D01*
X146441195Y-89690462D01*
X146460658Y-89687900D01*
X154905102Y-89687900D01*
X154935069Y-89687900D01*
X154944884Y-89688543D01*
X155054964Y-89703035D01*
X155073920Y-89708114D01*
X155171907Y-89748702D01*
X155188902Y-89758514D01*
X155200716Y-89767579D01*
X155273041Y-89823077D01*
X155286922Y-89836958D01*
X155351483Y-89921094D01*
X155361299Y-89938095D01*
X155401884Y-90036076D01*
X155406965Y-90055038D01*
X155421457Y-90165114D01*
X155422100Y-90174930D01*
X155422100Y-102865069D01*
X155421457Y-102874884D01*
X155421457Y-102874885D01*
X155406965Y-102984961D01*
X155401884Y-103003923D01*
X155361299Y-103101904D01*
X155351483Y-103118905D01*
X155286922Y-103203041D01*
X155273041Y-103216922D01*
X155188905Y-103281483D01*
X155171904Y-103291299D01*
X155073923Y-103331884D01*
X155054961Y-103336965D01*
X154976437Y-103347302D01*
X154944883Y-103351457D01*
X154935069Y-103352100D01*
X135894931Y-103352100D01*
X135885116Y-103351457D01*
X135838046Y-103345260D01*
X135775038Y-103336965D01*
X135756076Y-103331884D01*
X135658095Y-103291299D01*
X135641094Y-103281483D01*
X135556958Y-103216922D01*
X135543077Y-103203041D01*
X135478516Y-103118905D01*
X135468702Y-103101907D01*
X135428114Y-103003920D01*
X135423035Y-102984964D01*
X135408543Y-102874884D01*
X135407900Y-102865069D01*
X135407900Y-101501222D01*
X136157100Y-101501222D01*
X136157100Y-101698777D01*
X136195641Y-101892537D01*
X136195642Y-101892538D01*
X136271241Y-102075051D01*
X136380996Y-102239312D01*
X136380997Y-102239313D01*
X136381000Y-102239317D01*
X136520682Y-102378999D01*
X136520685Y-102379001D01*
X136520688Y-102379004D01*
X136684949Y-102488759D01*
X136867461Y-102564357D01*
X136867462Y-102564358D01*
X136867463Y-102564358D01*
X136867465Y-102564359D01*
X136997218Y-102590168D01*
X137061222Y-102602900D01*
X137061223Y-102602900D01*
X137258778Y-102602900D01*
X137306889Y-102593329D01*
X137452535Y-102564359D01*
X137635051Y-102488759D01*
X137799312Y-102379004D01*
X137939004Y-102239312D01*
X137986124Y-102168792D01*
X150627100Y-102168792D01*
X150627100Y-102301208D01*
X150647662Y-102377950D01*
X150661371Y-102429114D01*
X150727578Y-102543786D01*
X150727582Y-102543792D01*
X150821207Y-102637417D01*
X150821210Y-102637419D01*
X150821212Y-102637421D01*
X150871775Y-102666613D01*
X150935885Y-102703628D01*
X150935887Y-102703628D01*
X150935888Y-102703629D01*
X151063792Y-102737900D01*
X151063794Y-102737900D01*
X151196206Y-102737900D01*
X151196208Y-102737900D01*
X151324112Y-102703629D01*
X151438788Y-102637421D01*
X151532421Y-102543788D01*
X151598629Y-102429112D01*
X151632900Y-102301208D01*
X151632900Y-102168792D01*
X151598629Y-102040888D01*
X151598628Y-102040887D01*
X151598628Y-102040885D01*
X151561613Y-101976775D01*
X151532421Y-101926212D01*
X151532419Y-101926210D01*
X151532417Y-101926207D01*
X151438792Y-101832582D01*
X151438786Y-101832578D01*
X151324114Y-101766371D01*
X151260160Y-101749235D01*
X151196208Y-101732100D01*
X151063792Y-101732100D01*
X151012630Y-101745808D01*
X150935885Y-101766371D01*
X150821213Y-101832578D01*
X150821207Y-101832582D01*
X150727582Y-101926207D01*
X150727578Y-101926213D01*
X150661371Y-102040885D01*
X150652217Y-102075051D01*
X150627100Y-102168792D01*
X137986124Y-102168792D01*
X138048759Y-102075051D01*
X138124359Y-101892535D01*
X138162900Y-101698777D01*
X138162900Y-101501223D01*
X138124359Y-101307465D01*
X138048759Y-101124949D01*
X137939004Y-100960688D01*
X137939001Y-100960685D01*
X137938999Y-100960682D01*
X137799317Y-100821000D01*
X137799313Y-100820997D01*
X137799312Y-100820996D01*
X137635051Y-100711241D01*
X137635049Y-100711240D01*
X137452538Y-100635642D01*
X137452537Y-100635641D01*
X137258778Y-100597100D01*
X137258777Y-100597100D01*
X137061223Y-100597100D01*
X137061222Y-100597100D01*
X136867462Y-100635641D01*
X136867461Y-100635642D01*
X136684950Y-100711240D01*
X136520682Y-100821000D01*
X136381000Y-100960682D01*
X136271240Y-101124950D01*
X136195642Y-101307461D01*
X136195641Y-101307462D01*
X136157100Y-101501222D01*
X135407900Y-101501222D01*
X135407900Y-100263792D01*
X151897100Y-100263792D01*
X151897100Y-100396208D01*
X151917662Y-100472950D01*
X151931371Y-100524114D01*
X151997578Y-100638786D01*
X151997582Y-100638792D01*
X152091207Y-100732417D01*
X152091210Y-100732419D01*
X152091212Y-100732421D01*
X152141775Y-100761613D01*
X152205885Y-100798628D01*
X152205887Y-100798628D01*
X152205888Y-100798629D01*
X152333792Y-100832900D01*
X152333794Y-100832900D01*
X152466206Y-100832900D01*
X152466208Y-100832900D01*
X152594112Y-100798629D01*
X152708788Y-100732421D01*
X152802421Y-100638788D01*
X152868629Y-100524112D01*
X152902900Y-100396208D01*
X152902900Y-100263792D01*
X152868629Y-100135888D01*
X152868628Y-100135887D01*
X152868628Y-100135885D01*
X152826489Y-100062900D01*
X152802421Y-100021212D01*
X152802419Y-100021210D01*
X152802417Y-100021207D01*
X152708792Y-99927582D01*
X152708786Y-99927578D01*
X152594114Y-99861371D01*
X152510635Y-99839004D01*
X152466208Y-99827100D01*
X152333792Y-99827100D01*
X152289365Y-99839004D01*
X152205885Y-99861371D01*
X152091213Y-99927578D01*
X152091207Y-99927582D01*
X151997582Y-100021207D01*
X151997578Y-100021213D01*
X151931371Y-100135885D01*
X151917883Y-100186226D01*
X151897100Y-100263792D01*
X135407900Y-100263792D01*
X135407900Y-98961222D01*
X136157100Y-98961222D01*
X136157100Y-99158777D01*
X136195641Y-99352537D01*
X136195642Y-99352538D01*
X136271241Y-99535051D01*
X136380996Y-99699312D01*
X136380997Y-99699313D01*
X136381000Y-99699317D01*
X136520682Y-99838999D01*
X136520685Y-99839001D01*
X136520688Y-99839004D01*
X136684949Y-99948759D01*
X136867461Y-100024357D01*
X136867462Y-100024358D01*
X136867463Y-100024358D01*
X136867465Y-100024359D01*
X136997218Y-100050168D01*
X137061222Y-100062900D01*
X137061223Y-100062900D01*
X137258778Y-100062900D01*
X137306889Y-100053329D01*
X137452535Y-100024359D01*
X137635051Y-99948759D01*
X137799312Y-99839004D01*
X137939004Y-99699312D01*
X137986124Y-99628792D01*
X146817100Y-99628792D01*
X146817100Y-99761208D01*
X146834755Y-99827100D01*
X146851371Y-99889114D01*
X146917578Y-100003786D01*
X146917582Y-100003792D01*
X147011207Y-100097417D01*
X147011210Y-100097419D01*
X147011212Y-100097421D01*
X147061775Y-100126613D01*
X147125885Y-100163628D01*
X147125887Y-100163628D01*
X147125888Y-100163629D01*
X147253792Y-100197900D01*
X147253794Y-100197900D01*
X147386207Y-100197900D01*
X147386208Y-100197900D01*
X147514112Y-100163629D01*
X147628788Y-100097421D01*
X147722421Y-100003788D01*
X147788629Y-99889112D01*
X147822900Y-99761208D01*
X147822900Y-99628792D01*
X147788629Y-99500888D01*
X147788628Y-99500887D01*
X147788628Y-99500885D01*
X147751613Y-99436775D01*
X147722421Y-99386212D01*
X147722419Y-99386210D01*
X147722417Y-99386207D01*
X147628792Y-99292582D01*
X147628786Y-99292578D01*
X147514114Y-99226371D01*
X147450160Y-99209235D01*
X147386208Y-99192100D01*
X147253792Y-99192100D01*
X147202630Y-99205808D01*
X147125885Y-99226371D01*
X147011213Y-99292578D01*
X147011207Y-99292582D01*
X146917582Y-99386207D01*
X146917578Y-99386213D01*
X146851371Y-99500885D01*
X146842217Y-99535051D01*
X146817100Y-99628792D01*
X137986124Y-99628792D01*
X138048759Y-99535051D01*
X138124359Y-99352535D01*
X138162900Y-99158777D01*
X138162900Y-98961223D01*
X138124359Y-98767465D01*
X138048759Y-98584949D01*
X137939004Y-98420688D01*
X137939001Y-98420685D01*
X137938999Y-98420682D01*
X137877109Y-98358792D01*
X146817100Y-98358792D01*
X146817100Y-98491208D01*
X146837662Y-98567950D01*
X146851371Y-98619114D01*
X146917578Y-98733786D01*
X146917582Y-98733792D01*
X147011207Y-98827417D01*
X147011210Y-98827419D01*
X147011212Y-98827421D01*
X147061775Y-98856613D01*
X147125885Y-98893628D01*
X147125887Y-98893628D01*
X147125888Y-98893629D01*
X147253792Y-98927900D01*
X147253794Y-98927900D01*
X147386206Y-98927900D01*
X147386208Y-98927900D01*
X147514112Y-98893629D01*
X147628788Y-98827421D01*
X147722421Y-98733788D01*
X147788629Y-98619112D01*
X147822900Y-98491208D01*
X147822900Y-98358792D01*
X153802100Y-98358792D01*
X153802100Y-98491208D01*
X153822662Y-98567950D01*
X153836371Y-98619114D01*
X153902578Y-98733786D01*
X153902582Y-98733792D01*
X153996207Y-98827417D01*
X153996210Y-98827419D01*
X153996212Y-98827421D01*
X154046775Y-98856613D01*
X154110885Y-98893628D01*
X154110887Y-98893628D01*
X154110888Y-98893629D01*
X154238792Y-98927900D01*
X154238794Y-98927900D01*
X154371206Y-98927900D01*
X154371208Y-98927900D01*
X154499112Y-98893629D01*
X154613788Y-98827421D01*
X154707421Y-98733788D01*
X154773629Y-98619112D01*
X154807900Y-98491208D01*
X154807900Y-98358792D01*
X154773629Y-98230888D01*
X154773628Y-98230887D01*
X154773628Y-98230885D01*
X154736613Y-98166775D01*
X154707421Y-98116212D01*
X154707419Y-98116210D01*
X154707417Y-98116207D01*
X154613792Y-98022582D01*
X154613786Y-98022578D01*
X154499114Y-97956371D01*
X154435160Y-97939235D01*
X154371208Y-97922100D01*
X154238792Y-97922100D01*
X154187630Y-97935808D01*
X154110885Y-97956371D01*
X153996213Y-98022578D01*
X153996207Y-98022582D01*
X153902582Y-98116207D01*
X153902578Y-98116213D01*
X153836371Y-98230885D01*
X153822945Y-98280996D01*
X153802100Y-98358792D01*
X147822900Y-98358792D01*
X147788629Y-98230888D01*
X147788628Y-98230887D01*
X147788628Y-98230885D01*
X147751613Y-98166775D01*
X147722421Y-98116212D01*
X147722419Y-98116210D01*
X147722417Y-98116207D01*
X147628792Y-98022582D01*
X147628786Y-98022578D01*
X147514114Y-97956371D01*
X147450160Y-97939235D01*
X147386208Y-97922100D01*
X147253792Y-97922100D01*
X147202630Y-97935808D01*
X147125885Y-97956371D01*
X147011213Y-98022578D01*
X147011207Y-98022582D01*
X146917582Y-98116207D01*
X146917578Y-98116213D01*
X146851371Y-98230885D01*
X146837945Y-98280996D01*
X146817100Y-98358792D01*
X137877109Y-98358792D01*
X137799317Y-98281000D01*
X137799313Y-98280997D01*
X137799312Y-98280996D01*
X137635051Y-98171241D01*
X137502201Y-98116213D01*
X137452538Y-98095642D01*
X137452537Y-98095641D01*
X137258778Y-98057100D01*
X137258777Y-98057100D01*
X137061223Y-98057100D01*
X137061222Y-98057100D01*
X136867462Y-98095641D01*
X136867461Y-98095642D01*
X136684950Y-98171240D01*
X136520682Y-98281000D01*
X136381000Y-98420682D01*
X136271240Y-98584950D01*
X136195642Y-98767461D01*
X136195641Y-98767462D01*
X136157100Y-98961222D01*
X135407900Y-98961222D01*
X135407900Y-96421222D01*
X136157100Y-96421222D01*
X136157100Y-96618777D01*
X136195641Y-96812537D01*
X136195642Y-96812538D01*
X136268581Y-96988629D01*
X136271241Y-96995051D01*
X136380996Y-97159312D01*
X136380997Y-97159313D01*
X136381000Y-97159317D01*
X136520682Y-97298999D01*
X136520685Y-97299001D01*
X136520688Y-97299004D01*
X136684949Y-97408759D01*
X136867461Y-97484357D01*
X136867462Y-97484358D01*
X136867463Y-97484358D01*
X136867465Y-97484359D01*
X136997218Y-97510168D01*
X137061222Y-97522900D01*
X137061223Y-97522900D01*
X137258778Y-97522900D01*
X137306889Y-97513329D01*
X137452535Y-97484359D01*
X137635051Y-97408759D01*
X137799312Y-97299004D01*
X137939004Y-97159312D01*
X137986124Y-97088792D01*
X144912100Y-97088792D01*
X144912100Y-97221208D01*
X144932662Y-97297950D01*
X144946371Y-97349114D01*
X145012578Y-97463786D01*
X145012582Y-97463792D01*
X145106207Y-97557417D01*
X145106210Y-97557419D01*
X145106212Y-97557421D01*
X145156775Y-97586613D01*
X145220885Y-97623628D01*
X145220887Y-97623628D01*
X145220888Y-97623629D01*
X145348792Y-97657900D01*
X145348794Y-97657900D01*
X145481206Y-97657900D01*
X145481208Y-97657900D01*
X145609112Y-97623629D01*
X145723788Y-97557421D01*
X145817421Y-97463788D01*
X145883629Y-97349112D01*
X145917900Y-97221208D01*
X145917900Y-97088792D01*
X145883629Y-96960888D01*
X145883628Y-96960887D01*
X145883628Y-96960885D01*
X145846613Y-96896775D01*
X145817421Y-96846212D01*
X145817419Y-96846210D01*
X145817417Y-96846207D01*
X145723792Y-96752582D01*
X145723786Y-96752578D01*
X145609114Y-96686371D01*
X145545160Y-96669235D01*
X145481208Y-96652100D01*
X145348792Y-96652100D01*
X145297630Y-96665808D01*
X145220885Y-96686371D01*
X145106213Y-96752578D01*
X145106207Y-96752582D01*
X145012582Y-96846207D01*
X145012578Y-96846213D01*
X144946371Y-96960885D01*
X144937217Y-96995051D01*
X144912100Y-97088792D01*
X137986124Y-97088792D01*
X138048759Y-96995051D01*
X138124359Y-96812535D01*
X138162900Y-96618777D01*
X138162900Y-96453792D01*
X148722100Y-96453792D01*
X148722100Y-96586208D01*
X148730827Y-96618777D01*
X148756371Y-96714114D01*
X148822578Y-96828786D01*
X148822582Y-96828792D01*
X148916207Y-96922417D01*
X148916210Y-96922419D01*
X148916212Y-96922421D01*
X148966775Y-96951613D01*
X149030885Y-96988628D01*
X149030887Y-96988628D01*
X149030888Y-96988629D01*
X149158792Y-97022900D01*
X149158794Y-97022900D01*
X149291206Y-97022900D01*
X149291208Y-97022900D01*
X149419112Y-96988629D01*
X149533788Y-96922421D01*
X149627421Y-96828788D01*
X149693629Y-96714112D01*
X149727900Y-96586208D01*
X149727900Y-96453792D01*
X149693629Y-96325888D01*
X149693628Y-96325887D01*
X149693628Y-96325885D01*
X149656613Y-96261775D01*
X149627421Y-96211212D01*
X149627419Y-96211210D01*
X149627417Y-96211207D01*
X149533792Y-96117582D01*
X149533786Y-96117578D01*
X149419114Y-96051371D01*
X149355160Y-96034235D01*
X149291208Y-96017100D01*
X149158792Y-96017100D01*
X149107630Y-96030808D01*
X149030885Y-96051371D01*
X148916213Y-96117578D01*
X148916207Y-96117582D01*
X148822582Y-96211207D01*
X148822578Y-96211213D01*
X148756371Y-96325885D01*
X148735808Y-96402630D01*
X148722100Y-96453792D01*
X138162900Y-96453792D01*
X138162900Y-96421223D01*
X138124359Y-96227465D01*
X138048759Y-96044949D01*
X137939004Y-95880688D01*
X137939001Y-95880685D01*
X137938999Y-95880682D01*
X137799317Y-95741000D01*
X137799313Y-95740997D01*
X137799312Y-95740996D01*
X137635051Y-95631241D01*
X137635049Y-95631240D01*
X137452538Y-95555642D01*
X137452537Y-95555641D01*
X137258778Y-95517100D01*
X137258777Y-95517100D01*
X137061223Y-95517100D01*
X137061222Y-95517100D01*
X136867462Y-95555641D01*
X136867461Y-95555642D01*
X136684950Y-95631240D01*
X136520682Y-95741000D01*
X136381000Y-95880682D01*
X136271240Y-96044950D01*
X136195642Y-96227461D01*
X136195641Y-96227462D01*
X136157100Y-96421222D01*
X135407900Y-96421222D01*
X135407900Y-93881222D01*
X136157100Y-93881222D01*
X136157100Y-94078777D01*
X136195641Y-94272537D01*
X136195642Y-94272538D01*
X136268581Y-94448629D01*
X136271241Y-94455051D01*
X136380996Y-94619312D01*
X136380997Y-94619313D01*
X136381000Y-94619317D01*
X136520682Y-94758999D01*
X136520685Y-94759001D01*
X136520688Y-94759004D01*
X136684949Y-94868759D01*
X136867461Y-94944357D01*
X136867462Y-94944358D01*
X136867463Y-94944358D01*
X136867465Y-94944359D01*
X136997218Y-94970168D01*
X137061222Y-94982900D01*
X137061223Y-94982900D01*
X137258778Y-94982900D01*
X137306889Y-94973329D01*
X137452535Y-94944359D01*
X137635051Y-94868759D01*
X137799312Y-94759004D01*
X137939004Y-94619312D01*
X137986124Y-94548792D01*
X144912100Y-94548792D01*
X144912100Y-94681208D01*
X144932662Y-94757950D01*
X144946371Y-94809114D01*
X145012578Y-94923786D01*
X145012582Y-94923792D01*
X145106207Y-95017417D01*
X145106210Y-95017419D01*
X145106212Y-95017421D01*
X145156775Y-95046613D01*
X145220885Y-95083628D01*
X145220887Y-95083628D01*
X145220888Y-95083629D01*
X145348792Y-95117900D01*
X145348794Y-95117900D01*
X145481206Y-95117900D01*
X145481208Y-95117900D01*
X145609112Y-95083629D01*
X145723788Y-95017421D01*
X145817421Y-94923788D01*
X145883629Y-94809112D01*
X145917900Y-94681208D01*
X145917900Y-94548792D01*
X146817100Y-94548792D01*
X146817100Y-94681208D01*
X146837662Y-94757950D01*
X146851371Y-94809114D01*
X146917578Y-94923786D01*
X146917582Y-94923792D01*
X147011207Y-95017417D01*
X147011210Y-95017419D01*
X147011212Y-95017421D01*
X147061775Y-95046613D01*
X147125885Y-95083628D01*
X147125887Y-95083628D01*
X147125888Y-95083629D01*
X147253792Y-95117900D01*
X147253794Y-95117900D01*
X147386206Y-95117900D01*
X147386208Y-95117900D01*
X147514112Y-95083629D01*
X147628788Y-95017421D01*
X147722421Y-94923788D01*
X147788629Y-94809112D01*
X147822900Y-94681208D01*
X147822900Y-94548792D01*
X147788629Y-94420888D01*
X147788628Y-94420887D01*
X147788628Y-94420885D01*
X147751613Y-94356775D01*
X147722421Y-94306212D01*
X147722419Y-94306210D01*
X147722417Y-94306207D01*
X147628792Y-94212582D01*
X147628786Y-94212578D01*
X147514114Y-94146371D01*
X147450160Y-94129235D01*
X147386208Y-94112100D01*
X147253792Y-94112100D01*
X147202630Y-94125808D01*
X147125885Y-94146371D01*
X147011213Y-94212578D01*
X147011207Y-94212582D01*
X146917582Y-94306207D01*
X146917578Y-94306213D01*
X146851371Y-94420885D01*
X146842217Y-94455051D01*
X146817100Y-94548792D01*
X145917900Y-94548792D01*
X145883629Y-94420888D01*
X145883628Y-94420887D01*
X145883628Y-94420885D01*
X145846613Y-94356775D01*
X145817421Y-94306212D01*
X145817419Y-94306210D01*
X145817417Y-94306207D01*
X145723792Y-94212582D01*
X145723786Y-94212578D01*
X145609114Y-94146371D01*
X145545160Y-94129235D01*
X145481208Y-94112100D01*
X145348792Y-94112100D01*
X145297630Y-94125808D01*
X145220885Y-94146371D01*
X145106213Y-94212578D01*
X145106207Y-94212582D01*
X145012582Y-94306207D01*
X145012578Y-94306213D01*
X144946371Y-94420885D01*
X144937217Y-94455051D01*
X144912100Y-94548792D01*
X137986124Y-94548792D01*
X138048759Y-94455051D01*
X138124359Y-94272535D01*
X138162900Y-94078777D01*
X138162900Y-93913792D01*
X153167100Y-93913792D01*
X153167100Y-94046208D01*
X153175827Y-94078777D01*
X153201371Y-94174114D01*
X153267578Y-94288786D01*
X153267582Y-94288792D01*
X153361207Y-94382417D01*
X153361210Y-94382419D01*
X153361212Y-94382421D01*
X153411775Y-94411613D01*
X153475885Y-94448628D01*
X153475887Y-94448628D01*
X153475888Y-94448629D01*
X153603792Y-94482900D01*
X153603794Y-94482900D01*
X153736206Y-94482900D01*
X153736208Y-94482900D01*
X153864112Y-94448629D01*
X153978788Y-94382421D01*
X154072421Y-94288788D01*
X154138629Y-94174112D01*
X154172900Y-94046208D01*
X154172900Y-93913792D01*
X154138629Y-93785888D01*
X154138628Y-93785887D01*
X154138628Y-93785885D01*
X154101613Y-93721775D01*
X154072421Y-93671212D01*
X154072419Y-93671210D01*
X154072417Y-93671207D01*
X153978792Y-93577582D01*
X153978786Y-93577578D01*
X153864114Y-93511371D01*
X153800160Y-93494235D01*
X153736208Y-93477100D01*
X153603792Y-93477100D01*
X153552630Y-93490808D01*
X153475885Y-93511371D01*
X153361213Y-93577578D01*
X153361207Y-93577582D01*
X153267582Y-93671207D01*
X153267578Y-93671213D01*
X153201371Y-93785885D01*
X153180808Y-93862630D01*
X153167100Y-93913792D01*
X138162900Y-93913792D01*
X138162900Y-93881223D01*
X138124359Y-93687465D01*
X138048759Y-93504949D01*
X137939004Y-93340688D01*
X137939001Y-93340685D01*
X137938999Y-93340682D01*
X137799317Y-93201000D01*
X137799313Y-93200997D01*
X137799312Y-93200996D01*
X137635051Y-93091241D01*
X137635049Y-93091240D01*
X137452538Y-93015642D01*
X137452537Y-93015641D01*
X137258778Y-92977100D01*
X137258777Y-92977100D01*
X137061223Y-92977100D01*
X137061222Y-92977100D01*
X136867462Y-93015641D01*
X136867461Y-93015642D01*
X136684950Y-93091240D01*
X136520682Y-93201000D01*
X136381000Y-93340682D01*
X136271240Y-93504950D01*
X136195642Y-93687461D01*
X136195641Y-93687462D01*
X136157100Y-93881222D01*
X135407900Y-93881222D01*
X135407900Y-92643792D01*
X153802100Y-92643792D01*
X153802100Y-92776208D01*
X153822662Y-92852950D01*
X153836371Y-92904114D01*
X153902578Y-93018786D01*
X153902582Y-93018792D01*
X153996207Y-93112417D01*
X153996210Y-93112419D01*
X153996212Y-93112421D01*
X154046775Y-93141613D01*
X154110885Y-93178628D01*
X154110887Y-93178628D01*
X154110888Y-93178629D01*
X154238792Y-93212900D01*
X154238794Y-93212900D01*
X154371206Y-93212900D01*
X154371208Y-93212900D01*
X154499112Y-93178629D01*
X154613788Y-93112421D01*
X154707421Y-93018788D01*
X154773629Y-92904112D01*
X154807900Y-92776208D01*
X154807900Y-92643792D01*
X154773629Y-92515888D01*
X154773628Y-92515887D01*
X154773628Y-92515885D01*
X154726095Y-92433557D01*
X154707421Y-92401212D01*
X154707419Y-92401210D01*
X154707417Y-92401207D01*
X154613792Y-92307582D01*
X154613786Y-92307578D01*
X154499114Y-92241371D01*
X154435160Y-92224235D01*
X154371208Y-92207100D01*
X154238792Y-92207100D01*
X154187630Y-92220808D01*
X154110885Y-92241371D01*
X153996213Y-92307578D01*
X153996207Y-92307582D01*
X153902582Y-92401207D01*
X153902578Y-92401213D01*
X153836371Y-92515885D01*
X153815808Y-92592630D01*
X153802100Y-92643792D01*
X135407900Y-92643792D01*
X135407900Y-90574987D01*
X136157600Y-90574987D01*
X136157600Y-91287600D01*
X136683198Y-91287600D01*
X136660000Y-91374174D01*
X136660000Y-91505826D01*
X136683198Y-91592400D01*
X136157600Y-91592400D01*
X136157600Y-92305012D01*
X136166441Y-92349462D01*
X136166442Y-92349464D01*
X136200126Y-92399873D01*
X136250535Y-92433557D01*
X136250537Y-92433558D01*
X136294987Y-92442400D01*
X137007600Y-92442400D01*
X137007600Y-91916802D01*
X137094174Y-91940000D01*
X137225826Y-91940000D01*
X137312400Y-91916802D01*
X137312400Y-92442400D01*
X138025013Y-92442400D01*
X138069462Y-92433558D01*
X138069464Y-92433557D01*
X138119873Y-92399873D01*
X138153557Y-92349464D01*
X138153558Y-92349462D01*
X138162400Y-92305012D01*
X138162400Y-91592400D01*
X137636802Y-91592400D01*
X137660000Y-91505826D01*
X137660000Y-91374174D01*
X137659898Y-91373792D01*
X145547100Y-91373792D01*
X145547100Y-91506208D01*
X145567662Y-91582950D01*
X145581371Y-91634114D01*
X145647578Y-91748786D01*
X145647582Y-91748792D01*
X145741207Y-91842417D01*
X145741210Y-91842419D01*
X145741212Y-91842421D01*
X145791775Y-91871613D01*
X145855885Y-91908628D01*
X145855887Y-91908628D01*
X145855888Y-91908629D01*
X145983792Y-91942900D01*
X145983794Y-91942900D01*
X146116206Y-91942900D01*
X146116208Y-91942900D01*
X146244112Y-91908629D01*
X146248796Y-91905925D01*
X146257661Y-91900806D01*
X146358788Y-91842421D01*
X146452421Y-91748788D01*
X146518629Y-91634112D01*
X146552900Y-91506208D01*
X146552900Y-91373792D01*
X146518629Y-91245888D01*
X146518628Y-91245887D01*
X146518628Y-91245885D01*
X146453449Y-91132993D01*
X146452421Y-91131212D01*
X146452419Y-91131210D01*
X146452417Y-91131207D01*
X146358792Y-91037582D01*
X146358786Y-91037578D01*
X146244114Y-90971371D01*
X146180160Y-90954235D01*
X146116208Y-90937100D01*
X145983792Y-90937100D01*
X145932630Y-90950808D01*
X145855885Y-90971371D01*
X145741213Y-91037578D01*
X145741207Y-91037582D01*
X145647582Y-91131207D01*
X145647578Y-91131213D01*
X145581371Y-91245885D01*
X145560808Y-91322630D01*
X145547100Y-91373792D01*
X137659898Y-91373792D01*
X137636802Y-91287600D01*
X138162400Y-91287600D01*
X138162400Y-90574987D01*
X138153558Y-90530537D01*
X138153557Y-90530535D01*
X138119873Y-90480126D01*
X138069464Y-90446442D01*
X138069462Y-90446441D01*
X138025013Y-90437600D01*
X137312400Y-90437600D01*
X137312400Y-90963197D01*
X137225826Y-90940000D01*
X137094174Y-90940000D01*
X137007600Y-90963197D01*
X137007600Y-90437600D01*
X136294987Y-90437600D01*
X136250537Y-90446441D01*
X136250535Y-90446442D01*
X136200126Y-90480126D01*
X136166442Y-90530535D01*
X136166441Y-90530537D01*
X136157600Y-90574987D01*
X135407900Y-90574987D01*
X135407900Y-90174930D01*
X135408543Y-90165115D01*
X135418116Y-90092399D01*
X135423035Y-90055033D01*
X135428113Y-90036081D01*
X135468703Y-89938088D01*
X135478512Y-89921100D01*
X135543078Y-89836956D01*
X135556958Y-89823077D01*
X135565824Y-89816274D01*
X135641100Y-89758512D01*
X135658088Y-89748703D01*
X135756081Y-89708113D01*
X135775033Y-89703035D01*
X135885116Y-89688543D01*
X135894931Y-89687900D01*
X135924898Y-89687900D01*
X145639342Y-89687900D01*
X145687680Y-89705493D01*
G37*
G04 #@! TD.AperFunction*
G04 #@! TD*
M02*
