G04 #@! TF.GenerationSoftware,KiCad,Pcbnew,9.0.1+dfsg-1*
G04 #@! TF.CreationDate,2025-05-27T21:30:08+08:00*
G04 #@! TF.ProjectId,i2c_led,6932635f-6c65-4642-9e6b-696361645f70,a*
G04 #@! TF.SameCoordinates,Original*
G04 #@! TF.FileFunction,Paste,Top*
G04 #@! TF.FilePolarity,Positive*
%FSLAX46Y46*%
G04 Gerber Fmt 4.6, Leading zero omitted, Abs format (unit mm)*
G04 Created by KiCad (PCBNEW 9.0.1+dfsg-1) date 2025-05-27 21:30:08*
%MOMM*%
%LPD*%
G01*
G04 APERTURE LIST*
G04 Aperture macros list*
%AMRoundRect*
0 Rectangle with rounded corners*
0 $1 Rounding radius*
0 $2 $3 $4 $5 $6 $7 $8 $9 X,Y pos of 4 corners*
0 Add a 4 corners polygon primitive as box body*
4,1,4,$2,$3,$4,$5,$6,$7,$8,$9,$2,$3,0*
0 Add four circle primitives for the rounded corners*
1,1,$1+$1,$2,$3*
1,1,$1+$1,$4,$5*
1,1,$1+$1,$6,$7*
1,1,$1+$1,$8,$9*
0 Add four rect primitives between the rounded corners*
20,1,$1+$1,$2,$3,$4,$5,0*
20,1,$1+$1,$4,$5,$6,$7,0*
20,1,$1+$1,$6,$7,$8,$9,0*
20,1,$1+$1,$8,$9,$2,$3,0*%
G04 Aperture macros list end*
%ADD10RoundRect,0.225000X0.250000X-0.225000X0.250000X0.225000X-0.250000X0.225000X-0.250000X-0.225000X0*%
%ADD11RoundRect,0.200000X0.275000X-0.200000X0.275000X0.200000X-0.275000X0.200000X-0.275000X-0.200000X0*%
%ADD12RoundRect,0.067500X-0.157500X-0.257500X0.157500X-0.257500X0.157500X0.257500X-0.157500X0.257500X0*%
%ADD13RoundRect,0.250000X0.295000X-0.295000X0.295000X0.295000X-0.295000X0.295000X-0.295000X-0.295000X0*%
%ADD14RoundRect,0.062500X0.062500X-0.350000X0.062500X0.350000X-0.062500X0.350000X-0.062500X-0.350000X0*%
%ADD15RoundRect,0.062500X0.350000X-0.062500X0.350000X0.062500X-0.350000X0.062500X-0.350000X-0.062500X0*%
%ADD16RoundRect,0.225000X-0.250000X0.225000X-0.250000X-0.225000X0.250000X-0.225000X0.250000X0.225000X0*%
G04 APERTURE END LIST*
D10*
G04 #@! TO.C,C1*
X144145000Y-92215000D03*
X144145000Y-90665000D03*
G04 #@! TD*
D11*
G04 #@! TO.C,R2*
X144145000Y-97345000D03*
X144145000Y-95695000D03*
G04 #@! TD*
D12*
G04 #@! TO.C,D4*
X147965000Y-101125000D03*
X147965000Y-102075000D03*
X149215000Y-102075000D03*
X149215000Y-101125000D03*
G04 #@! TD*
G04 #@! TO.C,D1*
X154315000Y-101125000D03*
X154315000Y-102075000D03*
X155565000Y-102075000D03*
X155565000Y-101125000D03*
G04 #@! TD*
D13*
G04 #@! TO.C,U1*
X148550000Y-97195000D03*
X149900000Y-97195000D03*
X148550000Y-95845000D03*
X149900000Y-95845000D03*
D14*
X147975000Y-98482500D03*
X148475000Y-98482500D03*
X148975000Y-98482500D03*
X149475000Y-98482500D03*
X149975000Y-98482500D03*
X150475000Y-98482500D03*
D15*
X151187500Y-97770000D03*
X151187500Y-97270000D03*
X151187500Y-96770000D03*
X151187500Y-96270000D03*
X151187500Y-95770000D03*
X151187500Y-95270000D03*
D14*
X150475000Y-94557500D03*
X149975000Y-94557500D03*
X149475000Y-94557500D03*
X148975000Y-94557500D03*
X148475000Y-94557500D03*
X147975000Y-94557500D03*
D15*
X147262500Y-95270000D03*
X147262500Y-95770000D03*
X147262500Y-96270000D03*
X147262500Y-96770000D03*
X147262500Y-97270000D03*
X147262500Y-97770000D03*
G04 #@! TD*
D12*
G04 #@! TO.C,D3*
X154315000Y-90965000D03*
X154315000Y-91915000D03*
X155565000Y-91915000D03*
X155565000Y-90965000D03*
G04 #@! TD*
G04 #@! TO.C,D5*
X147965000Y-90965000D03*
X147965000Y-91915000D03*
X149215000Y-91915000D03*
X149215000Y-90965000D03*
G04 #@! TD*
D11*
G04 #@! TO.C,R3*
X144145000Y-102425000D03*
X144145000Y-100775000D03*
G04 #@! TD*
D12*
G04 #@! TO.C,D2*
X154315000Y-96045000D03*
X154315000Y-96995000D03*
X155565000Y-96995000D03*
X155565000Y-96045000D03*
G04 #@! TD*
D16*
G04 #@! TO.C,C3*
X140970000Y-100825000D03*
X140970000Y-102375000D03*
G04 #@! TD*
D11*
G04 #@! TO.C,R1*
X140970000Y-97345000D03*
X140970000Y-95695000D03*
G04 #@! TD*
D10*
G04 #@! TO.C,C2*
X140970000Y-92215000D03*
X140970000Y-90665000D03*
G04 #@! TD*
M02*
