G04 #@! TF.GenerationSoftware,KiCad,Pcbnew,9.0.2+dfsg-1*
G04 #@! TF.CreationDate,2025-05-31T07:41:50+08:00*
G04 #@! TF.ProjectId,i2c_led,6932635f-6c65-4642-9e6b-696361645f70,a*
G04 #@! TF.SameCoordinates,Original*
G04 #@! TF.FileFunction,Copper,L4,Bot*
G04 #@! TF.FilePolarity,Positive*
%FSLAX46Y46*%
G04 Gerber Fmt 4.6, Leading zero omitted, Abs format (unit mm)*
G04 Created by KiCad (PCBNEW 9.0.2+dfsg-1) date 2025-05-31 07:41:50*
%MOMM*%
%LPD*%
G01*
G04 APERTURE LIST*
G04 Aperture macros list*
%AMFreePoly0*
4,1,23,0.550000,-0.750000,0.000000,-0.750000,0.000000,-0.745722,-0.065263,-0.745722,-0.191342,-0.711940,-0.304381,-0.646677,-0.396677,-0.554381,-0.461940,-0.441342,-0.495722,-0.315263,-0.495722,-0.250000,-0.500000,-0.250000,-0.500000,0.250000,-0.495722,0.250000,-0.495722,0.315263,-0.461940,0.441342,-0.396677,0.554381,-0.304381,0.646677,-0.191342,0.711940,-0.065263,0.745722,0.000000,0.745722,
0.000000,0.750000,0.550000,0.750000,0.550000,-0.750000,0.550000,-0.750000,$1*%
%AMFreePoly1*
4,1,23,0.000000,0.745722,0.065263,0.745722,0.191342,0.711940,0.304381,0.646677,0.396677,0.554381,0.461940,0.441342,0.495722,0.315263,0.495722,0.250000,0.500000,0.250000,0.500000,-0.250000,0.495722,-0.250000,0.495722,-0.315263,0.461940,-0.441342,0.396677,-0.554381,0.304381,-0.646677,0.191342,-0.711940,0.065263,-0.745722,0.000000,-0.745722,0.000000,-0.750000,-0.550000,-0.750000,
-0.550000,0.750000,0.000000,0.750000,0.000000,0.745722,0.000000,0.745722,$1*%
G04 Aperture macros list end*
G04 #@! TA.AperFunction,EtchedComponent*
%ADD10C,0.000000*%
G04 #@! TD*
G04 #@! TA.AperFunction,ComponentPad*
%ADD11R,1.700000X1.700000*%
G04 #@! TD*
G04 #@! TA.AperFunction,ComponentPad*
%ADD12C,1.700000*%
G04 #@! TD*
G04 #@! TA.AperFunction,SMDPad,CuDef*
%ADD13FreePoly0,180.000000*%
G04 #@! TD*
G04 #@! TA.AperFunction,SMDPad,CuDef*
%ADD14R,1.000000X1.500000*%
G04 #@! TD*
G04 #@! TA.AperFunction,SMDPad,CuDef*
%ADD15FreePoly1,180.000000*%
G04 #@! TD*
G04 #@! TA.AperFunction,ViaPad*
%ADD16C,0.700000*%
G04 #@! TD*
G04 #@! TA.AperFunction,Conductor*
%ADD17C,0.304800*%
G04 #@! TD*
G04 #@! TA.AperFunction,Conductor*
%ADD18C,0.228600*%
G04 #@! TD*
G04 APERTURE END LIST*
D10*
G04 #@! TA.AperFunction,EtchedComponent*
G04 #@! TO.C,AD1*
G36*
X143140000Y-100130000D02*
G01*
X142640000Y-100130000D01*
X142640000Y-99730000D01*
X143140000Y-99730000D01*
X143140000Y-100130000D01*
G37*
G04 #@! TD.AperFunction*
G04 #@! TA.AperFunction,EtchedComponent*
G36*
X143140000Y-100930000D02*
G01*
X142640000Y-100930000D01*
X142640000Y-100530000D01*
X143140000Y-100530000D01*
X143140000Y-100930000D01*
G37*
G04 #@! TD.AperFunction*
G04 #@! TA.AperFunction,EtchedComponent*
G04 #@! TO.C,AD0*
G36*
X143140000Y-95050000D02*
G01*
X142640000Y-95050000D01*
X142640000Y-94650000D01*
X143140000Y-94650000D01*
X143140000Y-95050000D01*
G37*
G04 #@! TD.AperFunction*
G04 #@! TA.AperFunction,EtchedComponent*
G36*
X143140000Y-95850000D02*
G01*
X142640000Y-95850000D01*
X142640000Y-95450000D01*
X143140000Y-95450000D01*
X143140000Y-95850000D01*
G37*
G04 #@! TD.AperFunction*
G04 #@! TD*
D11*
G04 #@! TO.P,J1,1,Pin_1*
G04 #@! TO.N,VCC*
X135890000Y-91440000D03*
D12*
G04 #@! TO.P,J1,2,Pin_2*
G04 #@! TO.N,/SCL*
X135890000Y-93980000D03*
G04 #@! TO.P,J1,3,Pin_3*
G04 #@! TO.N,/SDA*
X135890000Y-96520000D03*
G04 #@! TO.P,J1,4,Pin_4*
G04 #@! TO.N,/RSTN*
X135890000Y-99060000D03*
G04 #@! TO.P,J1,5,Pin_5*
G04 #@! TO.N,GND*
X135890000Y-101600000D03*
G04 #@! TD*
D13*
G04 #@! TO.P,AD1,1,A*
G04 #@! TO.N,VCC*
X143540000Y-100330000D03*
D14*
G04 #@! TO.P,AD1,2,C*
G04 #@! TO.N,AD1*
X142240000Y-100330000D03*
D15*
G04 #@! TO.P,AD1,3,B*
G04 #@! TO.N,GND*
X140940000Y-100330000D03*
G04 #@! TD*
D13*
G04 #@! TO.P,AD0,1,A*
G04 #@! TO.N,VCC*
X143540000Y-95250000D03*
D14*
G04 #@! TO.P,AD0,2,C*
G04 #@! TO.N,AD0*
X142240000Y-95250000D03*
D15*
G04 #@! TO.P,AD0,3,B*
G04 #@! TO.N,GND*
X140940000Y-95250000D03*
G04 #@! TD*
D16*
G04 #@! TO.N,GND*
X151130000Y-101600000D03*
X149225000Y-96520000D03*
X145415000Y-97790000D03*
X139700000Y-90805000D03*
X151765000Y-90805000D03*
X142875000Y-90805000D03*
X139065000Y-102235000D03*
X153035000Y-95885000D03*
X155575000Y-98425000D03*
X146050000Y-100965000D03*
X146050000Y-90805000D03*
X139065000Y-98425000D03*
X139700000Y-93345000D03*
X146050000Y-92075000D03*
X152400000Y-100330000D03*
X154305000Y-99695000D03*
X145415000Y-94615000D03*
G04 #@! TO.N,VCC*
X145415000Y-96520000D03*
X140970000Y-98425000D03*
X154305000Y-92710000D03*
X147955000Y-92710000D03*
X154305000Y-97790000D03*
X153670000Y-102235000D03*
X142875000Y-92215000D03*
X144145000Y-98425000D03*
X147320000Y-102235000D03*
G04 #@! TO.N,Net-(D3-BK)*
X147320000Y-99695000D03*
X155575000Y-92710000D03*
G04 #@! TO.N,AD0*
X147320000Y-94615000D03*
G04 #@! TO.N,AD1*
X147320000Y-98425000D03*
G04 #@! TD*
D17*
G04 #@! TO.N,VCC*
X143540000Y-100330000D02*
X143540000Y-99030000D01*
X145415000Y-96520000D02*
X144145000Y-95250000D01*
X143540000Y-95250000D02*
X144145000Y-95250000D01*
X143540000Y-99030000D02*
X144145000Y-98425000D01*
D18*
G04 #@! TO.N,Net-(D3-BK)*
X149860000Y-99695000D02*
X147320000Y-99695000D01*
X151765000Y-94615000D02*
X151130000Y-95250000D01*
X151765000Y-94615000D02*
X154160000Y-94615000D01*
X151130000Y-95250000D02*
X151130000Y-98425000D01*
X155575000Y-93200000D02*
X154160000Y-94615000D01*
X155575000Y-92710000D02*
X155575000Y-93200000D01*
X151130000Y-98425000D02*
X149860000Y-99695000D01*
G04 #@! TO.N,AD0*
X142240000Y-95250000D02*
X142240000Y-94271400D01*
X142240000Y-94271400D02*
X143331400Y-93180000D01*
X147320000Y-94170000D02*
X146330000Y-93180000D01*
X147320000Y-94615000D02*
X147320000Y-94170000D01*
X143331400Y-93180000D02*
X146330000Y-93180000D01*
G04 #@! TO.N,AD1*
X144145000Y-101600000D02*
X142455200Y-101600000D01*
X145097500Y-99692500D02*
X145097500Y-100647500D01*
X145097500Y-100647500D02*
X144145000Y-101600000D01*
X147320000Y-98425000D02*
X146365000Y-98425000D01*
X146365000Y-98425000D02*
X145097500Y-99692500D01*
X142240000Y-101384800D02*
X142240000Y-100330000D01*
X142455200Y-101600000D02*
X142240000Y-101384800D01*
G04 #@! TD*
G04 #@! TA.AperFunction,Conductor*
G04 #@! TO.N,GND*
G36*
X156214884Y-89688543D02*
G01*
X156324964Y-89703035D01*
X156343920Y-89708114D01*
X156441907Y-89748702D01*
X156458902Y-89758514D01*
X156500973Y-89790796D01*
X156543041Y-89823077D01*
X156556922Y-89836958D01*
X156621483Y-89921094D01*
X156631299Y-89938095D01*
X156671884Y-90036076D01*
X156676965Y-90055038D01*
X156691457Y-90165114D01*
X156692100Y-90174930D01*
X156692100Y-102865069D01*
X156691457Y-102874884D01*
X156691457Y-102874885D01*
X156676965Y-102984961D01*
X156671884Y-103003923D01*
X156631299Y-103101904D01*
X156621483Y-103118905D01*
X156556922Y-103203041D01*
X156543041Y-103216922D01*
X156458905Y-103281483D01*
X156441904Y-103291299D01*
X156343923Y-103331884D01*
X156324961Y-103336965D01*
X156246437Y-103347302D01*
X156214883Y-103351457D01*
X156205069Y-103352100D01*
X134624931Y-103352100D01*
X134615116Y-103351457D01*
X134568046Y-103345260D01*
X134505038Y-103336965D01*
X134486076Y-103331884D01*
X134388095Y-103291299D01*
X134371094Y-103281483D01*
X134286958Y-103216922D01*
X134273077Y-103203041D01*
X134208516Y-103118905D01*
X134198702Y-103101907D01*
X134158114Y-103003920D01*
X134153035Y-102984964D01*
X134138543Y-102874884D01*
X134137900Y-102865069D01*
X134137900Y-101501270D01*
X134887600Y-101501270D01*
X134887600Y-101698729D01*
X134926121Y-101892385D01*
X134926122Y-101892388D01*
X135001684Y-102074812D01*
X135080982Y-102193491D01*
X135445086Y-101829386D01*
X135489901Y-101907007D01*
X135582993Y-102000099D01*
X135660611Y-102044912D01*
X135296507Y-102409016D01*
X135415187Y-102488315D01*
X135597611Y-102563877D01*
X135597614Y-102563878D01*
X135791270Y-102602400D01*
X135988730Y-102602400D01*
X136182385Y-102563878D01*
X136182388Y-102563877D01*
X136364816Y-102488313D01*
X136483490Y-102409017D01*
X136483491Y-102409016D01*
X136119387Y-102044912D01*
X136197007Y-102000099D01*
X136290099Y-101907007D01*
X136334912Y-101829387D01*
X136699016Y-102193491D01*
X136699017Y-102193490D01*
X136715520Y-102168792D01*
X146817100Y-102168792D01*
X146817100Y-102301208D01*
X146837662Y-102377950D01*
X146851371Y-102429114D01*
X146917578Y-102543786D01*
X146917582Y-102543792D01*
X147011207Y-102637417D01*
X147011210Y-102637419D01*
X147011212Y-102637421D01*
X147061775Y-102666613D01*
X147125885Y-102703628D01*
X147125887Y-102703628D01*
X147125888Y-102703629D01*
X147253792Y-102737900D01*
X147253794Y-102737900D01*
X147386206Y-102737900D01*
X147386208Y-102737900D01*
X147514112Y-102703629D01*
X147628788Y-102637421D01*
X147722421Y-102543788D01*
X147788629Y-102429112D01*
X147822900Y-102301208D01*
X147822900Y-102168792D01*
X153167100Y-102168792D01*
X153167100Y-102301208D01*
X153187662Y-102377950D01*
X153201371Y-102429114D01*
X153267578Y-102543786D01*
X153267582Y-102543792D01*
X153361207Y-102637417D01*
X153361210Y-102637419D01*
X153361212Y-102637421D01*
X153411775Y-102666613D01*
X153475885Y-102703628D01*
X153475887Y-102703628D01*
X153475888Y-102703629D01*
X153603792Y-102737900D01*
X153603794Y-102737900D01*
X153736206Y-102737900D01*
X153736208Y-102737900D01*
X153864112Y-102703629D01*
X153978788Y-102637421D01*
X154072421Y-102543788D01*
X154138629Y-102429112D01*
X154172900Y-102301208D01*
X154172900Y-102168792D01*
X154138629Y-102040888D01*
X154138628Y-102040887D01*
X154138628Y-102040885D01*
X154101613Y-101976775D01*
X154072421Y-101926212D01*
X154072419Y-101926210D01*
X154072417Y-101926207D01*
X153978792Y-101832582D01*
X153978786Y-101832578D01*
X153864114Y-101766371D01*
X153800160Y-101749235D01*
X153736208Y-101732100D01*
X153603792Y-101732100D01*
X153552630Y-101745808D01*
X153475885Y-101766371D01*
X153361213Y-101832578D01*
X153361207Y-101832582D01*
X153267582Y-101926207D01*
X153267578Y-101926213D01*
X153201371Y-102040885D01*
X153192281Y-102074812D01*
X153167100Y-102168792D01*
X147822900Y-102168792D01*
X147788629Y-102040888D01*
X147788628Y-102040887D01*
X147788628Y-102040885D01*
X147751613Y-101976775D01*
X147722421Y-101926212D01*
X147722419Y-101926210D01*
X147722417Y-101926207D01*
X147628792Y-101832582D01*
X147628786Y-101832578D01*
X147514114Y-101766371D01*
X147450160Y-101749235D01*
X147386208Y-101732100D01*
X147253792Y-101732100D01*
X147202630Y-101745808D01*
X147125885Y-101766371D01*
X147011213Y-101832578D01*
X147011207Y-101832582D01*
X146917582Y-101926207D01*
X146917578Y-101926213D01*
X146851371Y-102040885D01*
X146842281Y-102074812D01*
X146817100Y-102168792D01*
X136715520Y-102168792D01*
X136746730Y-102122084D01*
X136778313Y-102074816D01*
X136853877Y-101892388D01*
X136853878Y-101892385D01*
X136892400Y-101698729D01*
X136892400Y-101501270D01*
X136853878Y-101307614D01*
X136853877Y-101307611D01*
X136778315Y-101125187D01*
X136699016Y-101006507D01*
X136334912Y-101370611D01*
X136290099Y-101292993D01*
X136197007Y-101199901D01*
X136119387Y-101155087D01*
X136483491Y-100790982D01*
X136364812Y-100711684D01*
X136182388Y-100636122D01*
X136182385Y-100636121D01*
X135988730Y-100597600D01*
X135791270Y-100597600D01*
X135597614Y-100636121D01*
X135597611Y-100636122D01*
X135415184Y-100711685D01*
X135296507Y-100790981D01*
X135296507Y-100790982D01*
X135660612Y-101155087D01*
X135582993Y-101199901D01*
X135489901Y-101292993D01*
X135445087Y-101370612D01*
X135080982Y-101006507D01*
X135080981Y-101006507D01*
X135001685Y-101125184D01*
X134926122Y-101307611D01*
X134926121Y-101307614D01*
X134887600Y-101501270D01*
X134137900Y-101501270D01*
X134137900Y-98961222D01*
X134887100Y-98961222D01*
X134887100Y-99158777D01*
X134925641Y-99352537D01*
X134925642Y-99352538D01*
X135000174Y-99532475D01*
X135001241Y-99535051D01*
X135110996Y-99699312D01*
X135110997Y-99699313D01*
X135111000Y-99699317D01*
X135250682Y-99838999D01*
X135250685Y-99839001D01*
X135250688Y-99839004D01*
X135414949Y-99948759D01*
X135597461Y-100024357D01*
X135597462Y-100024358D01*
X135597463Y-100024358D01*
X135597465Y-100024359D01*
X135727218Y-100050168D01*
X135791222Y-100062900D01*
X135791223Y-100062900D01*
X135988778Y-100062900D01*
X136036889Y-100053329D01*
X136182535Y-100024359D01*
X136365051Y-99948759D01*
X136529312Y-99839004D01*
X136669004Y-99699312D01*
X136758787Y-99564942D01*
X141587100Y-99564942D01*
X141587100Y-101095055D01*
X141587101Y-101095057D01*
X141595972Y-101139659D01*
X141629764Y-101190232D01*
X141629765Y-101190232D01*
X141629766Y-101190234D01*
X141680342Y-101224028D01*
X141724943Y-101232900D01*
X141897600Y-101232899D01*
X141945937Y-101250492D01*
X141971657Y-101295040D01*
X141972800Y-101308099D01*
X141972800Y-101331651D01*
X141972800Y-101437949D01*
X142012658Y-101534174D01*
X142013480Y-101536159D01*
X142303840Y-101826519D01*
X142303841Y-101826519D01*
X142303843Y-101826521D01*
X142402051Y-101867200D01*
X142402052Y-101867200D01*
X144198147Y-101867200D01*
X144198149Y-101867200D01*
X144296357Y-101826521D01*
X145324021Y-100798857D01*
X145364700Y-100700649D01*
X145364700Y-100594351D01*
X145364700Y-99834326D01*
X145382293Y-99785988D01*
X145386726Y-99781152D01*
X145539086Y-99628792D01*
X146817100Y-99628792D01*
X146817100Y-99761208D01*
X146837662Y-99837950D01*
X146851371Y-99889114D01*
X146917578Y-100003786D01*
X146917582Y-100003792D01*
X147011207Y-100097417D01*
X147011210Y-100097419D01*
X147011212Y-100097421D01*
X147061775Y-100126613D01*
X147125885Y-100163628D01*
X147125887Y-100163628D01*
X147125888Y-100163629D01*
X147253792Y-100197900D01*
X147253794Y-100197900D01*
X147386206Y-100197900D01*
X147386208Y-100197900D01*
X147514112Y-100163629D01*
X147628788Y-100097421D01*
X147722421Y-100003788D01*
X147724723Y-99999801D01*
X147764128Y-99966736D01*
X147789849Y-99962200D01*
X149913147Y-99962200D01*
X149913149Y-99962200D01*
X150011357Y-99921521D01*
X151356521Y-98576357D01*
X151397200Y-98478149D01*
X151397200Y-98371851D01*
X151397200Y-97723792D01*
X153802100Y-97723792D01*
X153802100Y-97856208D01*
X153819755Y-97922100D01*
X153836371Y-97984114D01*
X153902578Y-98098786D01*
X153902582Y-98098792D01*
X153996207Y-98192417D01*
X153996210Y-98192419D01*
X153996212Y-98192421D01*
X154006707Y-98198480D01*
X154110885Y-98258628D01*
X154110887Y-98258628D01*
X154110888Y-98258629D01*
X154238792Y-98292900D01*
X154238794Y-98292900D01*
X154371206Y-98292900D01*
X154371208Y-98292900D01*
X154499112Y-98258629D01*
X154613788Y-98192421D01*
X154707421Y-98098788D01*
X154773629Y-97984112D01*
X154807900Y-97856208D01*
X154807900Y-97723792D01*
X154773629Y-97595888D01*
X154773628Y-97595887D01*
X154773628Y-97595885D01*
X154731489Y-97522900D01*
X154707421Y-97481212D01*
X154707419Y-97481210D01*
X154707417Y-97481207D01*
X154613792Y-97387582D01*
X154613786Y-97387578D01*
X154499114Y-97321371D01*
X154415635Y-97299004D01*
X154371208Y-97287100D01*
X154238792Y-97287100D01*
X154194365Y-97299004D01*
X154110885Y-97321371D01*
X153996213Y-97387578D01*
X153996207Y-97387582D01*
X153902582Y-97481207D01*
X153902578Y-97481213D01*
X153836371Y-97595885D01*
X153815808Y-97672630D01*
X153802100Y-97723792D01*
X151397200Y-97723792D01*
X151397200Y-95391826D01*
X151414793Y-95343488D01*
X151419226Y-95338652D01*
X151853652Y-94904226D01*
X151900272Y-94882486D01*
X151906826Y-94882200D01*
X154213147Y-94882200D01*
X154213149Y-94882200D01*
X154311357Y-94841521D01*
X155801521Y-93351357D01*
X155842200Y-93253149D01*
X155842200Y-93179848D01*
X155859793Y-93131510D01*
X155879804Y-93114721D01*
X155883788Y-93112421D01*
X155977421Y-93018788D01*
X156043629Y-92904112D01*
X156077900Y-92776208D01*
X156077900Y-92643792D01*
X156043629Y-92515888D01*
X156043628Y-92515887D01*
X156043628Y-92515885D01*
X155996367Y-92434028D01*
X155977421Y-92401212D01*
X155977419Y-92401210D01*
X155977417Y-92401207D01*
X155883792Y-92307582D01*
X155883786Y-92307578D01*
X155769114Y-92241371D01*
X155705160Y-92224235D01*
X155641208Y-92207100D01*
X155508792Y-92207100D01*
X155457630Y-92220808D01*
X155380885Y-92241371D01*
X155266213Y-92307578D01*
X155266207Y-92307582D01*
X155172582Y-92401207D01*
X155172578Y-92401213D01*
X155106371Y-92515885D01*
X155087668Y-92585689D01*
X155072100Y-92643792D01*
X155072100Y-92776208D01*
X155092662Y-92852950D01*
X155106371Y-92904114D01*
X155172578Y-93018786D01*
X155172582Y-93018792D01*
X155222281Y-93068491D01*
X155244021Y-93115111D01*
X155230707Y-93164798D01*
X155222281Y-93174839D01*
X154071348Y-94325774D01*
X154024728Y-94347514D01*
X154018174Y-94347800D01*
X151818149Y-94347800D01*
X151711851Y-94347800D01*
X151662589Y-94368205D01*
X151613640Y-94388480D01*
X151133363Y-94868759D01*
X150978643Y-95023479D01*
X150941061Y-95061061D01*
X150903479Y-95098642D01*
X150862800Y-95196852D01*
X150862800Y-98283174D01*
X150845207Y-98331512D01*
X150840774Y-98336348D01*
X149771348Y-99405774D01*
X149724728Y-99427514D01*
X149718174Y-99427800D01*
X147789849Y-99427800D01*
X147741511Y-99410207D01*
X147724723Y-99390199D01*
X147722420Y-99386210D01*
X147628792Y-99292582D01*
X147628786Y-99292578D01*
X147514114Y-99226371D01*
X147450160Y-99209235D01*
X147386208Y-99192100D01*
X147253792Y-99192100D01*
X147202630Y-99205808D01*
X147125885Y-99226371D01*
X147011213Y-99292578D01*
X147011207Y-99292582D01*
X146917582Y-99386207D01*
X146917578Y-99386213D01*
X146851371Y-99500885D01*
X146834208Y-99564942D01*
X146817100Y-99628792D01*
X145539086Y-99628792D01*
X146453652Y-98714226D01*
X146500272Y-98692486D01*
X146506826Y-98692200D01*
X146850151Y-98692200D01*
X146898489Y-98709793D01*
X146915277Y-98729801D01*
X146917579Y-98733789D01*
X147011207Y-98827417D01*
X147011210Y-98827419D01*
X147011212Y-98827421D01*
X147051186Y-98850500D01*
X147125885Y-98893628D01*
X147125887Y-98893628D01*
X147125888Y-98893629D01*
X147253792Y-98927900D01*
X147253794Y-98927900D01*
X147386206Y-98927900D01*
X147386208Y-98927900D01*
X147514112Y-98893629D01*
X147628788Y-98827421D01*
X147722421Y-98733788D01*
X147788629Y-98619112D01*
X147822900Y-98491208D01*
X147822900Y-98358792D01*
X147788629Y-98230888D01*
X147788628Y-98230887D01*
X147788628Y-98230885D01*
X147743813Y-98153264D01*
X147722421Y-98116212D01*
X147722419Y-98116210D01*
X147722417Y-98116207D01*
X147628792Y-98022582D01*
X147628786Y-98022578D01*
X147514114Y-97956371D01*
X147450160Y-97939235D01*
X147386208Y-97922100D01*
X147253792Y-97922100D01*
X147202630Y-97935808D01*
X147125885Y-97956371D01*
X147011213Y-98022578D01*
X147011207Y-98022582D01*
X146917579Y-98116210D01*
X146915277Y-98120199D01*
X146875872Y-98153264D01*
X146850151Y-98157800D01*
X146418149Y-98157800D01*
X146311851Y-98157800D01*
X146249919Y-98183452D01*
X146213640Y-98198480D01*
X145255663Y-99156459D01*
X144946143Y-99465979D01*
X144921792Y-99490330D01*
X144870979Y-99541142D01*
X144830300Y-99639352D01*
X144830300Y-100505674D01*
X144812707Y-100554012D01*
X144808274Y-100558848D01*
X144056348Y-101310774D01*
X144009728Y-101332514D01*
X144003174Y-101332800D01*
X143827553Y-101332800D01*
X143779215Y-101315207D01*
X143753495Y-101270658D01*
X143762428Y-101220000D01*
X143798776Y-101188124D01*
X143799908Y-101187654D01*
X143811943Y-101182670D01*
X143925957Y-101116844D01*
X143958659Y-101091751D01*
X144051751Y-100998659D01*
X144076844Y-100965957D01*
X144142670Y-100851943D01*
X144158444Y-100813861D01*
X144192519Y-100686694D01*
X144197900Y-100645826D01*
X144197900Y-100014174D01*
X144192519Y-99973306D01*
X144178642Y-99921519D01*
X144158446Y-99846146D01*
X144158440Y-99846129D01*
X144142670Y-99808058D01*
X144142670Y-99808057D01*
X144076844Y-99694043D01*
X144051751Y-99661341D01*
X144051749Y-99661339D01*
X144051743Y-99661332D01*
X143958667Y-99568256D01*
X143958653Y-99568244D01*
X143925957Y-99543155D01*
X143882899Y-99518295D01*
X143849835Y-99478890D01*
X143845300Y-99453171D01*
X143845300Y-99187607D01*
X143862893Y-99139269D01*
X143867326Y-99134433D01*
X144051833Y-98949926D01*
X144098453Y-98928186D01*
X144105007Y-98927900D01*
X144211206Y-98927900D01*
X144211208Y-98927900D01*
X144339112Y-98893629D01*
X144453788Y-98827421D01*
X144547421Y-98733788D01*
X144613629Y-98619112D01*
X144647900Y-98491208D01*
X144647900Y-98358792D01*
X144613629Y-98230888D01*
X144613628Y-98230887D01*
X144613628Y-98230885D01*
X144568813Y-98153264D01*
X144547421Y-98116212D01*
X144547419Y-98116210D01*
X144547417Y-98116207D01*
X144453792Y-98022582D01*
X144453786Y-98022578D01*
X144339114Y-97956371D01*
X144275160Y-97939235D01*
X144211208Y-97922100D01*
X144078792Y-97922100D01*
X144027630Y-97935808D01*
X143950885Y-97956371D01*
X143836213Y-98022578D01*
X143836207Y-98022582D01*
X143742582Y-98116207D01*
X143742578Y-98116213D01*
X143676371Y-98230885D01*
X143662945Y-98280996D01*
X143642100Y-98358792D01*
X143642100Y-98358794D01*
X143642100Y-98464991D01*
X143624507Y-98513329D01*
X143620075Y-98518165D01*
X143295700Y-98842540D01*
X143291106Y-98850499D01*
X143291105Y-98850500D01*
X143255506Y-98912157D01*
X143255506Y-98912159D01*
X143234700Y-98989807D01*
X143234700Y-98989809D01*
X143234700Y-99346900D01*
X143217107Y-99395238D01*
X143172558Y-99420958D01*
X143159500Y-99422100D01*
X142990000Y-99422100D01*
X142911050Y-99443255D01*
X142911049Y-99443255D01*
X142911048Y-99443256D01*
X142902477Y-99448205D01*
X142901222Y-99446031D01*
X142867807Y-99461608D01*
X142819484Y-99449219D01*
X142799661Y-99435973D01*
X142799656Y-99435971D01*
X142755057Y-99427100D01*
X141724944Y-99427100D01*
X141724942Y-99427101D01*
X141680340Y-99435972D01*
X141629767Y-99469764D01*
X141595972Y-99520342D01*
X141595971Y-99520343D01*
X141587100Y-99564942D01*
X136758787Y-99564942D01*
X136778759Y-99535051D01*
X136854359Y-99352535D01*
X136892900Y-99158777D01*
X136892900Y-98961223D01*
X136854359Y-98767465D01*
X136778759Y-98584949D01*
X136669004Y-98420688D01*
X136669001Y-98420685D01*
X136668999Y-98420682D01*
X136607109Y-98358792D01*
X140467100Y-98358792D01*
X140467100Y-98491208D01*
X140474323Y-98518165D01*
X140501371Y-98619114D01*
X140567578Y-98733786D01*
X140567582Y-98733792D01*
X140661207Y-98827417D01*
X140661210Y-98827419D01*
X140661212Y-98827421D01*
X140701186Y-98850500D01*
X140775885Y-98893628D01*
X140775887Y-98893628D01*
X140775888Y-98893629D01*
X140903792Y-98927900D01*
X140903794Y-98927900D01*
X141036206Y-98927900D01*
X141036208Y-98927900D01*
X141164112Y-98893629D01*
X141278788Y-98827421D01*
X141372421Y-98733788D01*
X141438629Y-98619112D01*
X141472900Y-98491208D01*
X141472900Y-98358792D01*
X141438629Y-98230888D01*
X141438628Y-98230887D01*
X141438628Y-98230885D01*
X141393813Y-98153264D01*
X141372421Y-98116212D01*
X141372419Y-98116210D01*
X141372417Y-98116207D01*
X141278792Y-98022582D01*
X141278786Y-98022578D01*
X141164114Y-97956371D01*
X141100160Y-97939235D01*
X141036208Y-97922100D01*
X140903792Y-97922100D01*
X140852630Y-97935808D01*
X140775885Y-97956371D01*
X140661213Y-98022578D01*
X140661207Y-98022582D01*
X140567582Y-98116207D01*
X140567578Y-98116213D01*
X140501371Y-98230885D01*
X140487945Y-98280996D01*
X140467100Y-98358792D01*
X136607109Y-98358792D01*
X136529317Y-98281000D01*
X136529313Y-98280997D01*
X136529312Y-98280996D01*
X136365051Y-98171241D01*
X136365049Y-98171240D01*
X136182538Y-98095642D01*
X136182537Y-98095641D01*
X135988778Y-98057100D01*
X135988777Y-98057100D01*
X135791223Y-98057100D01*
X135791222Y-98057100D01*
X135597462Y-98095641D01*
X135597461Y-98095642D01*
X135414950Y-98171240D01*
X135250682Y-98281000D01*
X135111000Y-98420682D01*
X135001240Y-98584950D01*
X134925642Y-98767461D01*
X134925641Y-98767462D01*
X134887100Y-98961222D01*
X134137900Y-98961222D01*
X134137900Y-96421222D01*
X134887100Y-96421222D01*
X134887100Y-96618777D01*
X134925641Y-96812537D01*
X134925642Y-96812538D01*
X134998581Y-96988629D01*
X135001241Y-96995051D01*
X135110996Y-97159312D01*
X135110997Y-97159313D01*
X135111000Y-97159317D01*
X135250682Y-97298999D01*
X135250685Y-97299001D01*
X135250688Y-97299004D01*
X135414949Y-97408759D01*
X135597461Y-97484357D01*
X135597462Y-97484358D01*
X135597463Y-97484358D01*
X135597465Y-97484359D01*
X135727218Y-97510168D01*
X135791222Y-97522900D01*
X135791223Y-97522900D01*
X135988778Y-97522900D01*
X136036889Y-97513329D01*
X136182535Y-97484359D01*
X136365051Y-97408759D01*
X136529312Y-97299004D01*
X136669004Y-97159312D01*
X136778759Y-96995051D01*
X136854359Y-96812535D01*
X136892900Y-96618777D01*
X136892900Y-96421223D01*
X136854359Y-96227465D01*
X136778759Y-96044949D01*
X136669004Y-95880688D01*
X136669001Y-95880685D01*
X136668999Y-95880682D01*
X136529317Y-95741000D01*
X136529313Y-95740997D01*
X136529312Y-95740996D01*
X136365051Y-95631241D01*
X136365049Y-95631240D01*
X136182538Y-95555642D01*
X136182537Y-95555641D01*
X135988778Y-95517100D01*
X135988777Y-95517100D01*
X135791223Y-95517100D01*
X135791222Y-95517100D01*
X135597462Y-95555641D01*
X135597461Y-95555642D01*
X135414950Y-95631240D01*
X135250682Y-95741000D01*
X135111000Y-95880682D01*
X135001240Y-96044950D01*
X134925642Y-96227461D01*
X134925641Y-96227462D01*
X134887100Y-96421222D01*
X134137900Y-96421222D01*
X134137900Y-93881222D01*
X134887100Y-93881222D01*
X134887100Y-94078777D01*
X134925641Y-94272537D01*
X134925642Y-94272538D01*
X135000174Y-94452475D01*
X135001241Y-94455051D01*
X135110996Y-94619312D01*
X135110997Y-94619313D01*
X135111000Y-94619317D01*
X135250682Y-94758999D01*
X135250685Y-94759001D01*
X135250688Y-94759004D01*
X135414949Y-94868759D01*
X135597461Y-94944357D01*
X135597462Y-94944358D01*
X135597463Y-94944358D01*
X135597465Y-94944359D01*
X135684232Y-94961618D01*
X135791222Y-94982900D01*
X135791223Y-94982900D01*
X135988778Y-94982900D01*
X136036889Y-94973329D01*
X136182535Y-94944359D01*
X136365051Y-94868759D01*
X136529312Y-94759004D01*
X136669004Y-94619312D01*
X136758787Y-94484942D01*
X141587100Y-94484942D01*
X141587100Y-96015055D01*
X141587101Y-96015057D01*
X141595972Y-96059659D01*
X141629764Y-96110232D01*
X141629765Y-96110232D01*
X141629766Y-96110234D01*
X141680342Y-96144028D01*
X141724943Y-96152900D01*
X142755056Y-96152899D01*
X142799658Y-96144028D01*
X142819483Y-96130780D01*
X142869449Y-96118554D01*
X142901298Y-96133831D01*
X142902475Y-96131794D01*
X142911048Y-96136743D01*
X142911050Y-96136745D01*
X142990000Y-96157900D01*
X142990003Y-96157900D01*
X143605828Y-96157900D01*
X143605830Y-96157899D01*
X143646694Y-96152519D01*
X143773861Y-96118444D01*
X143811943Y-96102670D01*
X143925957Y-96036844D01*
X143958659Y-96011751D01*
X144051751Y-95918659D01*
X144076844Y-95885957D01*
X144127532Y-95798161D01*
X144166936Y-95765098D01*
X144218375Y-95765098D01*
X144245830Y-95782589D01*
X144890074Y-96426833D01*
X144911814Y-96473453D01*
X144912100Y-96480007D01*
X144912100Y-96586208D01*
X144920827Y-96618777D01*
X144946371Y-96714114D01*
X145012578Y-96828786D01*
X145012582Y-96828792D01*
X145106207Y-96922417D01*
X145106210Y-96922419D01*
X145106212Y-96922421D01*
X145156775Y-96951613D01*
X145220885Y-96988628D01*
X145220887Y-96988628D01*
X145220888Y-96988629D01*
X145348792Y-97022900D01*
X145348794Y-97022900D01*
X145481206Y-97022900D01*
X145481208Y-97022900D01*
X145609112Y-96988629D01*
X145723788Y-96922421D01*
X145817421Y-96828788D01*
X145883629Y-96714112D01*
X145917900Y-96586208D01*
X145917900Y-96453792D01*
X145883629Y-96325888D01*
X145883628Y-96325887D01*
X145883628Y-96325885D01*
X145846613Y-96261775D01*
X145817421Y-96211212D01*
X145817419Y-96211210D01*
X145817417Y-96211207D01*
X145723792Y-96117582D01*
X145723786Y-96117578D01*
X145609114Y-96051371D01*
X145545160Y-96034235D01*
X145481208Y-96017100D01*
X145375007Y-96017100D01*
X145326669Y-95999507D01*
X145321833Y-95995074D01*
X144332459Y-95005699D01*
X144332457Y-95005697D01*
X144262846Y-94965508D01*
X144262833Y-94965503D01*
X144248334Y-94961618D01*
X144206197Y-94932113D01*
X144193241Y-94898796D01*
X144192519Y-94893306D01*
X144178642Y-94841519D01*
X144158446Y-94766146D01*
X144158440Y-94766129D01*
X144142670Y-94728058D01*
X144142670Y-94728057D01*
X144076844Y-94614043D01*
X144051751Y-94581341D01*
X144051749Y-94581339D01*
X144051743Y-94581332D01*
X143958667Y-94488256D01*
X143958653Y-94488244D01*
X143925959Y-94463157D01*
X143811941Y-94397329D01*
X143773870Y-94381559D01*
X143773853Y-94381553D01*
X143646709Y-94347484D01*
X143646685Y-94347479D01*
X143605832Y-94342100D01*
X143605826Y-94342100D01*
X142990000Y-94342100D01*
X142911050Y-94363255D01*
X142911049Y-94363255D01*
X142911048Y-94363256D01*
X142902477Y-94368205D01*
X142901222Y-94366031D01*
X142867807Y-94381608D01*
X142842821Y-94379596D01*
X142830256Y-94376417D01*
X142799658Y-94355972D01*
X142755057Y-94347100D01*
X142714363Y-94347100D01*
X142705283Y-94344803D01*
X142691290Y-94335295D01*
X142675387Y-94329507D01*
X142670619Y-94321249D01*
X142662736Y-94315893D01*
X142658128Y-94299613D01*
X142649667Y-94284958D01*
X142651322Y-94275568D01*
X142648727Y-94266397D01*
X142655661Y-94250964D01*
X142658600Y-94234300D01*
X142669577Y-94219994D01*
X142669810Y-94219477D01*
X142670071Y-94219350D01*
X142670551Y-94218726D01*
X143008055Y-93881223D01*
X143420052Y-93469226D01*
X143466672Y-93447486D01*
X143473226Y-93447200D01*
X146188174Y-93447200D01*
X146236512Y-93464793D01*
X146241348Y-93469226D01*
X146944781Y-94172659D01*
X146966521Y-94219279D01*
X146953207Y-94268966D01*
X146944783Y-94279006D01*
X146917580Y-94306210D01*
X146917578Y-94306213D01*
X146851371Y-94420885D01*
X146840045Y-94463157D01*
X146817100Y-94548792D01*
X146817100Y-94681208D01*
X146829653Y-94728057D01*
X146851371Y-94809114D01*
X146917578Y-94923786D01*
X146917582Y-94923792D01*
X147011207Y-95017417D01*
X147011210Y-95017419D01*
X147011212Y-95017421D01*
X147021707Y-95023480D01*
X147125885Y-95083628D01*
X147125887Y-95083628D01*
X147125888Y-95083629D01*
X147253792Y-95117900D01*
X147253794Y-95117900D01*
X147386206Y-95117900D01*
X147386208Y-95117900D01*
X147514112Y-95083629D01*
X147628788Y-95017421D01*
X147722421Y-94923788D01*
X147788629Y-94809112D01*
X147822900Y-94681208D01*
X147822900Y-94548792D01*
X147788629Y-94420888D01*
X147788628Y-94420887D01*
X147788628Y-94420885D01*
X147746249Y-94347484D01*
X147722421Y-94306212D01*
X147722419Y-94306210D01*
X147722417Y-94306207D01*
X147628786Y-94212576D01*
X147624795Y-94210272D01*
X147591733Y-94170865D01*
X147587200Y-94145150D01*
X147587200Y-94116852D01*
X147571429Y-94078777D01*
X147546521Y-94018643D01*
X147471357Y-93943479D01*
X146992671Y-93464793D01*
X146481359Y-92953480D01*
X146481357Y-92953479D01*
X146383149Y-92912800D01*
X143384549Y-92912800D01*
X143278251Y-92912800D01*
X143216319Y-92938452D01*
X143180040Y-92953480D01*
X142252300Y-93881222D01*
X142088643Y-94044879D01*
X142054745Y-94078777D01*
X142013479Y-94120042D01*
X142013479Y-94120043D01*
X141975150Y-94212579D01*
X141972800Y-94218252D01*
X141972800Y-94271900D01*
X141955207Y-94320238D01*
X141910658Y-94345958D01*
X141897600Y-94347100D01*
X141724944Y-94347100D01*
X141724942Y-94347101D01*
X141680340Y-94355972D01*
X141629767Y-94389764D01*
X141595972Y-94440342D01*
X141595971Y-94440343D01*
X141587100Y-94484942D01*
X136758787Y-94484942D01*
X136778759Y-94455051D01*
X136854359Y-94272535D01*
X136892900Y-94078777D01*
X136892900Y-93881223D01*
X136854359Y-93687465D01*
X136778759Y-93504949D01*
X136669004Y-93340688D01*
X136669001Y-93340685D01*
X136668999Y-93340682D01*
X136529317Y-93201000D01*
X136529313Y-93200997D01*
X136529312Y-93200996D01*
X136365051Y-93091241D01*
X136365049Y-93091240D01*
X136182538Y-93015642D01*
X136182537Y-93015641D01*
X135988778Y-92977100D01*
X135988777Y-92977100D01*
X135791223Y-92977100D01*
X135791222Y-92977100D01*
X135597462Y-93015641D01*
X135597461Y-93015642D01*
X135414950Y-93091240D01*
X135250682Y-93201000D01*
X135111000Y-93340682D01*
X135001240Y-93504950D01*
X134925642Y-93687461D01*
X134925641Y-93687462D01*
X134887100Y-93881222D01*
X134137900Y-93881222D01*
X134137900Y-90574942D01*
X134887100Y-90574942D01*
X134887100Y-92305055D01*
X134887101Y-92305057D01*
X134895972Y-92349659D01*
X134929764Y-92400232D01*
X134929765Y-92400232D01*
X134929766Y-92400234D01*
X134980342Y-92434028D01*
X135024943Y-92442900D01*
X136755056Y-92442899D01*
X136799658Y-92434028D01*
X136850234Y-92400234D01*
X136884028Y-92349658D01*
X136892900Y-92305057D01*
X136892900Y-92148792D01*
X142372100Y-92148792D01*
X142372100Y-92281208D01*
X142390441Y-92349658D01*
X142406371Y-92409114D01*
X142472578Y-92523786D01*
X142472582Y-92523792D01*
X142566207Y-92617417D01*
X142566210Y-92617419D01*
X142566212Y-92617421D01*
X142611888Y-92643792D01*
X142680885Y-92683628D01*
X142680887Y-92683628D01*
X142680888Y-92683629D01*
X142808792Y-92717900D01*
X142808794Y-92717900D01*
X142941206Y-92717900D01*
X142941208Y-92717900D01*
X143069112Y-92683629D01*
X143138112Y-92643792D01*
X147452100Y-92643792D01*
X147452100Y-92776208D01*
X147472662Y-92852950D01*
X147486371Y-92904114D01*
X147552578Y-93018786D01*
X147552582Y-93018792D01*
X147646207Y-93112417D01*
X147646210Y-93112419D01*
X147646212Y-93112421D01*
X147687799Y-93136431D01*
X147760885Y-93178628D01*
X147760887Y-93178628D01*
X147760888Y-93178629D01*
X147888792Y-93212900D01*
X147888794Y-93212900D01*
X148021206Y-93212900D01*
X148021208Y-93212900D01*
X148149112Y-93178629D01*
X148155677Y-93174839D01*
X148173068Y-93164798D01*
X148263788Y-93112421D01*
X148357421Y-93018788D01*
X148423629Y-92904112D01*
X148457900Y-92776208D01*
X148457900Y-92643792D01*
X153802100Y-92643792D01*
X153802100Y-92776208D01*
X153822662Y-92852950D01*
X153836371Y-92904114D01*
X153902578Y-93018786D01*
X153902582Y-93018792D01*
X153996207Y-93112417D01*
X153996210Y-93112419D01*
X153996212Y-93112421D01*
X154037799Y-93136431D01*
X154110885Y-93178628D01*
X154110887Y-93178628D01*
X154110888Y-93178629D01*
X154238792Y-93212900D01*
X154238794Y-93212900D01*
X154371206Y-93212900D01*
X154371208Y-93212900D01*
X154499112Y-93178629D01*
X154505677Y-93174839D01*
X154523068Y-93164798D01*
X154613788Y-93112421D01*
X154707421Y-93018788D01*
X154773629Y-92904112D01*
X154807900Y-92776208D01*
X154807900Y-92643792D01*
X154773629Y-92515888D01*
X154773628Y-92515887D01*
X154773628Y-92515885D01*
X154726367Y-92434028D01*
X154707421Y-92401212D01*
X154707419Y-92401210D01*
X154707417Y-92401207D01*
X154613792Y-92307582D01*
X154613786Y-92307578D01*
X154499114Y-92241371D01*
X154435160Y-92224235D01*
X154371208Y-92207100D01*
X154238792Y-92207100D01*
X154187630Y-92220808D01*
X154110885Y-92241371D01*
X153996213Y-92307578D01*
X153996207Y-92307582D01*
X153902582Y-92401207D01*
X153902578Y-92401213D01*
X153836371Y-92515885D01*
X153817668Y-92585689D01*
X153802100Y-92643792D01*
X148457900Y-92643792D01*
X148423629Y-92515888D01*
X148423628Y-92515887D01*
X148423628Y-92515885D01*
X148376367Y-92434028D01*
X148357421Y-92401212D01*
X148357419Y-92401210D01*
X148357417Y-92401207D01*
X148263792Y-92307582D01*
X148263786Y-92307578D01*
X148149114Y-92241371D01*
X148085160Y-92224235D01*
X148021208Y-92207100D01*
X147888792Y-92207100D01*
X147837630Y-92220808D01*
X147760885Y-92241371D01*
X147646213Y-92307578D01*
X147646207Y-92307582D01*
X147552582Y-92401207D01*
X147552578Y-92401213D01*
X147486371Y-92515885D01*
X147467668Y-92585689D01*
X147452100Y-92643792D01*
X143138112Y-92643792D01*
X143183788Y-92617421D01*
X143183792Y-92617417D01*
X143215521Y-92585689D01*
X143277417Y-92523792D01*
X143277421Y-92523788D01*
X143343629Y-92409112D01*
X143377900Y-92281208D01*
X143377900Y-92148792D01*
X143343629Y-92020888D01*
X143343628Y-92020887D01*
X143343628Y-92020885D01*
X143306613Y-91956775D01*
X143277421Y-91906212D01*
X143277419Y-91906210D01*
X143277417Y-91906207D01*
X143183792Y-91812582D01*
X143183786Y-91812578D01*
X143069114Y-91746371D01*
X143005160Y-91729235D01*
X142941208Y-91712100D01*
X142808792Y-91712100D01*
X142757630Y-91725808D01*
X142680885Y-91746371D01*
X142566213Y-91812578D01*
X142566207Y-91812582D01*
X142472582Y-91906207D01*
X142472578Y-91906213D01*
X142406371Y-92020885D01*
X142385808Y-92097630D01*
X142372100Y-92148792D01*
X136892900Y-92148792D01*
X136892899Y-90574944D01*
X136884028Y-90530342D01*
X136850234Y-90479766D01*
X136799658Y-90445972D01*
X136799656Y-90445971D01*
X136755057Y-90437100D01*
X135024944Y-90437100D01*
X135024942Y-90437101D01*
X134980340Y-90445972D01*
X134929767Y-90479764D01*
X134895972Y-90530342D01*
X134895971Y-90530343D01*
X134887100Y-90574942D01*
X134137900Y-90574942D01*
X134137900Y-90174930D01*
X134138543Y-90165115D01*
X134148116Y-90092399D01*
X134153035Y-90055033D01*
X134158113Y-90036081D01*
X134198703Y-89938088D01*
X134208512Y-89921100D01*
X134273078Y-89836956D01*
X134286958Y-89823077D01*
X134371100Y-89758512D01*
X134388088Y-89748703D01*
X134486081Y-89708113D01*
X134505033Y-89703035D01*
X134615116Y-89688543D01*
X134624931Y-89687900D01*
X134654898Y-89687900D01*
X156175102Y-89687900D01*
X156205069Y-89687900D01*
X156214884Y-89688543D01*
G37*
G04 #@! TD.AperFunction*
G04 #@! TD*
M02*
