G04 #@! TF.GenerationSoftware,KiCad,Pcbnew,9.0.2+dfsg-1*
G04 #@! TF.CreationDate,2025-05-31T07:41:50+08:00*
G04 #@! TF.ProjectId,i2c_led,6932635f-6c65-4642-9e6b-696361645f70,a*
G04 #@! TF.SameCoordinates,Original*
G04 #@! TF.FileFunction,Copper,L1,Top*
G04 #@! TF.FilePolarity,Positive*
%FSLAX46Y46*%
G04 Gerber Fmt 4.6, Leading zero omitted, Abs format (unit mm)*
G04 Created by KiCad (PCBNEW 9.0.2+dfsg-1) date 2025-05-31 07:41:50*
%MOMM*%
%LPD*%
G01*
G04 APERTURE LIST*
G04 Aperture macros list*
%AMRoundRect*
0 Rectangle with rounded corners*
0 $1 Rounding radius*
0 $2 $3 $4 $5 $6 $7 $8 $9 X,Y pos of 4 corners*
0 Add a 4 corners polygon primitive as box body*
4,1,4,$2,$3,$4,$5,$6,$7,$8,$9,$2,$3,0*
0 Add four circle primitives for the rounded corners*
1,1,$1+$1,$2,$3*
1,1,$1+$1,$4,$5*
1,1,$1+$1,$6,$7*
1,1,$1+$1,$8,$9*
0 Add four rect primitives between the rounded corners*
20,1,$1+$1,$2,$3,$4,$5,0*
20,1,$1+$1,$4,$5,$6,$7,0*
20,1,$1+$1,$6,$7,$8,$9,0*
20,1,$1+$1,$8,$9,$2,$3,0*%
G04 Aperture macros list end*
G04 #@! TA.AperFunction,SMDPad,CuDef*
%ADD10RoundRect,0.225000X0.250000X-0.225000X0.250000X0.225000X-0.250000X0.225000X-0.250000X-0.225000X0*%
G04 #@! TD*
G04 #@! TA.AperFunction,SMDPad,CuDef*
%ADD11RoundRect,0.200000X0.275000X-0.200000X0.275000X0.200000X-0.275000X0.200000X-0.275000X-0.200000X0*%
G04 #@! TD*
G04 #@! TA.AperFunction,SMDPad,CuDef*
%ADD12RoundRect,0.067500X-0.157500X-0.257500X0.157500X-0.257500X0.157500X0.257500X-0.157500X0.257500X0*%
G04 #@! TD*
G04 #@! TA.AperFunction,SMDPad,CuDef*
%ADD13RoundRect,0.062500X0.062500X-0.350000X0.062500X0.350000X-0.062500X0.350000X-0.062500X-0.350000X0*%
G04 #@! TD*
G04 #@! TA.AperFunction,SMDPad,CuDef*
%ADD14RoundRect,0.062500X0.350000X-0.062500X0.350000X0.062500X-0.350000X0.062500X-0.350000X-0.062500X0*%
G04 #@! TD*
G04 #@! TA.AperFunction,HeatsinkPad*
%ADD15R,2.700000X2.700000*%
G04 #@! TD*
G04 #@! TA.AperFunction,SMDPad,CuDef*
%ADD16RoundRect,0.225000X-0.250000X0.225000X-0.250000X-0.225000X0.250000X-0.225000X0.250000X0.225000X0*%
G04 #@! TD*
G04 #@! TA.AperFunction,ComponentPad*
%ADD17R,1.700000X1.700000*%
G04 #@! TD*
G04 #@! TA.AperFunction,ComponentPad*
%ADD18C,1.700000*%
G04 #@! TD*
G04 #@! TA.AperFunction,ViaPad*
%ADD19C,0.700000*%
G04 #@! TD*
G04 #@! TA.AperFunction,Conductor*
%ADD20C,0.228600*%
G04 #@! TD*
G04 #@! TA.AperFunction,Conductor*
%ADD21C,0.304800*%
G04 #@! TD*
G04 APERTURE END LIST*
D10*
G04 #@! TO.P,C1,1*
G04 #@! TO.N,VCC*
X144145000Y-92215000D03*
G04 #@! TO.P,C1,2*
G04 #@! TO.N,GND*
X144145000Y-90665000D03*
G04 #@! TD*
D11*
G04 #@! TO.P,R2,1*
G04 #@! TO.N,VCC*
X144145000Y-97345000D03*
G04 #@! TO.P,R2,2*
G04 #@! TO.N,/SDA*
X144145000Y-95695000D03*
G04 #@! TD*
D12*
G04 #@! TO.P,D4,1,RK*
G04 #@! TO.N,Net-(D4-RK)*
X147965000Y-101125000D03*
G04 #@! TO.P,D4,2,A*
G04 #@! TO.N,VCC*
X147965000Y-102075000D03*
G04 #@! TO.P,D4,3,BK*
G04 #@! TO.N,Net-(D4-BK)*
X149215000Y-102075000D03*
G04 #@! TO.P,D4,4,GK*
G04 #@! TO.N,Net-(D4-GK)*
X149215000Y-101125000D03*
G04 #@! TD*
G04 #@! TO.P,D1,1,RK*
G04 #@! TO.N,Net-(D1-RK)*
X154315000Y-101125000D03*
G04 #@! TO.P,D1,2,A*
G04 #@! TO.N,VCC*
X154315000Y-102075000D03*
G04 #@! TO.P,D1,3,BK*
G04 #@! TO.N,Net-(D1-BK)*
X155565000Y-102075000D03*
G04 #@! TO.P,D1,4,GK*
G04 #@! TO.N,Net-(D1-GK)*
X155565000Y-101125000D03*
G04 #@! TD*
D13*
G04 #@! TO.P,U1,1,P1_0*
G04 #@! TO.N,Net-(D3-BK)*
X147975000Y-98482500D03*
G04 #@! TO.P,U1,2,P1_1*
G04 #@! TO.N,Net-(D4-RK)*
X148475000Y-98482500D03*
G04 #@! TO.P,U1,3,P1_2*
G04 #@! TO.N,Net-(D4-GK)*
X148975000Y-98482500D03*
G04 #@! TO.P,U1,4,P1_3*
G04 #@! TO.N,Net-(D4-BK)*
X149475000Y-98482500D03*
G04 #@! TO.P,U1,5,P0_0*
G04 #@! TO.N,Net-(D1-RK)*
X149975000Y-98482500D03*
G04 #@! TO.P,U1,6,P0_1*
G04 #@! TO.N,Net-(D1-GK)*
X150475000Y-98482500D03*
D14*
G04 #@! TO.P,U1,7,P0_2*
G04 #@! TO.N,Net-(D1-BK)*
X151187500Y-97770000D03*
G04 #@! TO.P,U1,8,P0_3*
G04 #@! TO.N,Net-(D2-RK)*
X151187500Y-97270000D03*
G04 #@! TO.P,U1,9,GND*
G04 #@! TO.N,GND*
X151187500Y-96770000D03*
G04 #@! TO.P,U1,10,P0_4*
G04 #@! TO.N,Net-(D2-GK)*
X151187500Y-96270000D03*
G04 #@! TO.P,U1,11,P0_5*
G04 #@! TO.N,Net-(D2-BK)*
X151187500Y-95770000D03*
G04 #@! TO.P,U1,12,P0_6*
G04 #@! TO.N,Net-(D3-RK)*
X151187500Y-95270000D03*
D13*
G04 #@! TO.P,U1,13,P0_7*
G04 #@! TO.N,Net-(D3-GK)*
X150475000Y-94557500D03*
G04 #@! TO.P,U1,14,P1_4*
G04 #@! TO.N,Net-(D5-RK)*
X149975000Y-94557500D03*
G04 #@! TO.P,U1,15,P1_5*
G04 #@! TO.N,Net-(D5-GK)*
X149475000Y-94557500D03*
G04 #@! TO.P,U1,16,P1_6*
G04 #@! TO.N,Net-(D5-BK)*
X148975000Y-94557500D03*
G04 #@! TO.P,U1,17,P1_7*
G04 #@! TO.N,unconnected-(U1-P1_7-Pad17)*
X148475000Y-94557500D03*
G04 #@! TO.P,U1,18,AD0*
G04 #@! TO.N,AD0*
X147975000Y-94557500D03*
D14*
G04 #@! TO.P,U1,19,SCL*
G04 #@! TO.N,/SCL*
X147262500Y-95270000D03*
G04 #@! TO.P,U1,20,SDA*
G04 #@! TO.N,/SDA*
X147262500Y-95770000D03*
G04 #@! TO.P,U1,21,VCC*
G04 #@! TO.N,VCC*
X147262500Y-96270000D03*
G04 #@! TO.P,U1,22,~{INT}*
G04 #@! TO.N,GND*
X147262500Y-96770000D03*
G04 #@! TO.P,U1,23,~{RST}*
G04 #@! TO.N,/RSTN*
X147262500Y-97270000D03*
G04 #@! TO.P,U1,24,AD1*
G04 #@! TO.N,AD1*
X147262500Y-97770000D03*
D15*
G04 #@! TO.P,U1,25,GND*
G04 #@! TO.N,GND*
X149225000Y-96520000D03*
G04 #@! TD*
D12*
G04 #@! TO.P,D3,1,RK*
G04 #@! TO.N,Net-(D3-RK)*
X154315000Y-90965000D03*
G04 #@! TO.P,D3,2,A*
G04 #@! TO.N,VCC*
X154315000Y-91915000D03*
G04 #@! TO.P,D3,3,BK*
G04 #@! TO.N,Net-(D3-BK)*
X155565000Y-91915000D03*
G04 #@! TO.P,D3,4,GK*
G04 #@! TO.N,Net-(D3-GK)*
X155565000Y-90965000D03*
G04 #@! TD*
G04 #@! TO.P,D5,1,RK*
G04 #@! TO.N,Net-(D5-RK)*
X147965000Y-90965000D03*
G04 #@! TO.P,D5,2,A*
G04 #@! TO.N,VCC*
X147965000Y-91915000D03*
G04 #@! TO.P,D5,3,BK*
G04 #@! TO.N,Net-(D5-BK)*
X149215000Y-91915000D03*
G04 #@! TO.P,D5,4,GK*
G04 #@! TO.N,Net-(D5-GK)*
X149215000Y-90965000D03*
G04 #@! TD*
D11*
G04 #@! TO.P,R3,1*
G04 #@! TO.N,VCC*
X144145000Y-102425000D03*
G04 #@! TO.P,R3,2*
G04 #@! TO.N,/RSTN*
X144145000Y-100775000D03*
G04 #@! TD*
D12*
G04 #@! TO.P,D2,1,RK*
G04 #@! TO.N,Net-(D2-RK)*
X154315000Y-96045000D03*
G04 #@! TO.P,D2,2,A*
G04 #@! TO.N,VCC*
X154315000Y-96995000D03*
G04 #@! TO.P,D2,3,BK*
G04 #@! TO.N,Net-(D2-BK)*
X155565000Y-96995000D03*
G04 #@! TO.P,D2,4,GK*
G04 #@! TO.N,Net-(D2-GK)*
X155565000Y-96045000D03*
G04 #@! TD*
D16*
G04 #@! TO.P,C3,1*
G04 #@! TO.N,/RSTN*
X140970000Y-100825000D03*
G04 #@! TO.P,C3,2*
G04 #@! TO.N,GND*
X140970000Y-102375000D03*
G04 #@! TD*
D11*
G04 #@! TO.P,R1,1*
G04 #@! TO.N,VCC*
X140970000Y-97345000D03*
G04 #@! TO.P,R1,2*
G04 #@! TO.N,/SCL*
X140970000Y-95695000D03*
G04 #@! TD*
D17*
G04 #@! TO.P,J1,1,Pin_1*
G04 #@! TO.N,VCC*
X135890000Y-91440000D03*
D18*
G04 #@! TO.P,J1,2,Pin_2*
G04 #@! TO.N,/SCL*
X135890000Y-93980000D03*
G04 #@! TO.P,J1,3,Pin_3*
G04 #@! TO.N,/SDA*
X135890000Y-96520000D03*
G04 #@! TO.P,J1,4,Pin_4*
G04 #@! TO.N,/RSTN*
X135890000Y-99060000D03*
G04 #@! TO.P,J1,5,Pin_5*
G04 #@! TO.N,GND*
X135890000Y-101600000D03*
G04 #@! TD*
D10*
G04 #@! TO.P,C2,1*
G04 #@! TO.N,VCC*
X140970000Y-92215000D03*
G04 #@! TO.P,C2,2*
G04 #@! TO.N,GND*
X140970000Y-90665000D03*
G04 #@! TD*
D19*
G04 #@! TO.N,GND*
X151130000Y-101600000D03*
X149225000Y-96520000D03*
X145415000Y-97790000D03*
X139700000Y-90805000D03*
X151765000Y-90805000D03*
X142875000Y-90805000D03*
X139065000Y-102235000D03*
X153035000Y-95885000D03*
X155575000Y-98425000D03*
X146050000Y-100965000D03*
X146050000Y-90805000D03*
X139065000Y-98425000D03*
X139700000Y-93345000D03*
X146050000Y-92075000D03*
X152400000Y-100330000D03*
X154305000Y-99695000D03*
X145415000Y-94615000D03*
G04 #@! TO.N,VCC*
X145415000Y-96520000D03*
X140970000Y-98425000D03*
X154305000Y-92710000D03*
X147955000Y-92710000D03*
X154305000Y-97790000D03*
X153670000Y-102235000D03*
X142875000Y-92215000D03*
X144145000Y-98425000D03*
X147320000Y-102235000D03*
G04 #@! TO.N,Net-(D3-BK)*
X147320000Y-99695000D03*
X155575000Y-92710000D03*
G04 #@! TO.N,AD0*
X147320000Y-94615000D03*
G04 #@! TO.N,AD1*
X147320000Y-98425000D03*
G04 #@! TD*
D20*
G04 #@! TO.N,GND*
X147389500Y-96770000D02*
X149102000Y-96770000D01*
X151314500Y-96770000D02*
X149602000Y-96770000D01*
D21*
G04 #@! TO.N,VCC*
X137945000Y-92215000D02*
X137170000Y-91440000D01*
D20*
X147320000Y-102235000D02*
X146240000Y-102235000D01*
X154155000Y-102235000D02*
X154315000Y-102075000D01*
X147320000Y-102235000D02*
X147805000Y-102235000D01*
X154315000Y-97780000D02*
X154305000Y-97790000D01*
D21*
X137170000Y-91440000D02*
X135890000Y-91440000D01*
D20*
X147965000Y-91915000D02*
X147965000Y-92700000D01*
X140970000Y-97345000D02*
X140970000Y-98425000D01*
X147965000Y-92700000D02*
X147955000Y-92710000D01*
X146240000Y-102235000D02*
X146050000Y-102425000D01*
X144145000Y-97345000D02*
X144145000Y-98425000D01*
X147262500Y-96270000D02*
X145665000Y-96270000D01*
X154315000Y-92700000D02*
X154305000Y-92710000D01*
X153670000Y-102235000D02*
X154155000Y-102235000D01*
X147805000Y-102235000D02*
X147965000Y-102075000D01*
X145665000Y-96270000D02*
X145415000Y-96520000D01*
D21*
X140970000Y-92215000D02*
X142875000Y-92215000D01*
X142875000Y-92215000D02*
X144145000Y-92215000D01*
D20*
X144145000Y-102425000D02*
X146050000Y-102425000D01*
X154315000Y-96995000D02*
X154315000Y-97780000D01*
D21*
X140970000Y-92215000D02*
X137945000Y-92215000D01*
D20*
X154315000Y-91915000D02*
X154315000Y-92700000D01*
G04 #@! TO.N,Net-(D1-RK)*
X149975000Y-98894999D02*
X149975000Y-98482500D01*
X154315000Y-101125000D02*
X152205001Y-101125000D01*
X152205001Y-101125000D02*
X149975000Y-98894999D01*
G04 #@! TO.N,Net-(D1-BK)*
X155565000Y-102075000D02*
X155735000Y-102075000D01*
X155735000Y-102075000D02*
X156210000Y-101600000D01*
X153087958Y-99007042D02*
X151850916Y-97770000D01*
X156210000Y-100330000D02*
X154887042Y-99007042D01*
X156210000Y-101600000D02*
X156210000Y-100330000D01*
X154887042Y-99007042D02*
X153087958Y-99007042D01*
X151850916Y-97770000D02*
X151187500Y-97770000D01*
G04 #@! TO.N,Net-(D1-GK)*
X153872300Y-100532300D02*
X151822500Y-98482500D01*
X154972300Y-100532300D02*
X153872300Y-100532300D01*
X151822500Y-98482500D02*
X150475000Y-98482500D01*
X155565000Y-101125000D02*
X154972300Y-100532300D01*
G04 #@! TO.N,Net-(D2-BK)*
X156210000Y-95799084D02*
X156210000Y-96350000D01*
X151187500Y-95770000D02*
X151568706Y-95770000D01*
X155219916Y-94809000D02*
X156210000Y-95799084D01*
X156210000Y-96350000D02*
X155565000Y-96995000D01*
X151568706Y-95770000D02*
X152529706Y-94809000D01*
X152529706Y-94809000D02*
X155219916Y-94809000D01*
X151572948Y-95770000D02*
X151187500Y-95770000D01*
G04 #@! TO.N,Net-(D2-GK)*
X154710000Y-95190000D02*
X155565000Y-96045000D01*
X151187500Y-96270000D02*
X151611764Y-96270000D01*
X152691764Y-95190000D02*
X154710000Y-95190000D01*
X151611764Y-96270000D02*
X152691764Y-95190000D01*
G04 #@! TO.N,Net-(D2-RK)*
X153090000Y-97270000D02*
X151187500Y-97270000D01*
X154315000Y-96045000D02*
X153090000Y-97270000D01*
G04 #@! TO.N,Net-(D3-GK)*
X154972300Y-90372300D02*
X153937930Y-90372300D01*
X155565000Y-90965000D02*
X154972300Y-90372300D01*
X153937930Y-90372300D02*
X150475000Y-93835230D01*
X150475000Y-93835230D02*
X150475000Y-94557500D01*
G04 #@! TO.N,Net-(D3-RK)*
X154315000Y-90965000D02*
X151187500Y-94092500D01*
X151187500Y-94092500D02*
X151187500Y-95270000D01*
G04 #@! TO.N,Net-(D3-BK)*
X147975000Y-98482500D02*
X147975000Y-99040000D01*
X147975000Y-99040000D02*
X147320000Y-99695000D01*
X155575000Y-92710000D02*
X155575000Y-91925000D01*
G04 #@! TO.N,Net-(D4-BK)*
X149707700Y-101582300D02*
X149215000Y-102075000D01*
X149475000Y-98482500D02*
X149475000Y-99856185D01*
X149475000Y-99856185D02*
X149707700Y-100088885D01*
X149707700Y-100088885D02*
X149707700Y-101582300D01*
G04 #@! TO.N,Net-(D4-GK)*
X149215000Y-100135000D02*
X148975000Y-99895000D01*
X149215000Y-101125000D02*
X149215000Y-100135000D01*
X148975000Y-99895000D02*
X148975000Y-98482500D01*
G04 #@! TO.N,Net-(D4-RK)*
X148475000Y-100615000D02*
X148475000Y-98482500D01*
X147965000Y-101125000D02*
X148475000Y-100615000D01*
G04 #@! TO.N,Net-(D5-BK)*
X148975000Y-92805000D02*
X149215000Y-92565000D01*
X149215000Y-92565000D02*
X149215000Y-91915000D01*
X148975000Y-94557500D02*
X148975000Y-92805000D01*
G04 #@! TO.N,Net-(D5-GK)*
X149215000Y-90965000D02*
X149745000Y-90965000D01*
X149475000Y-93255000D02*
X149475000Y-94557500D01*
X150120000Y-91340000D02*
X150120000Y-92610000D01*
X149745000Y-90965000D02*
X150120000Y-91340000D01*
X150120000Y-92610000D02*
X149475000Y-93255000D01*
G04 #@! TO.N,Net-(D5-RK)*
X150545000Y-91005000D02*
X150545000Y-93225000D01*
X147965000Y-90455000D02*
X148240000Y-90180000D01*
X149975000Y-93795000D02*
X149975000Y-94557500D01*
X150545000Y-93225000D02*
X149975000Y-93795000D01*
X147965000Y-90965000D02*
X147965000Y-90455000D01*
X148240000Y-90180000D02*
X149720000Y-90180000D01*
X149720000Y-90180000D02*
X150545000Y-91005000D01*
G04 #@! TO.N,/RSTN*
X147262500Y-97270000D02*
X146881294Y-97270000D01*
X137160000Y-99060000D02*
X135890000Y-99060000D01*
X138925000Y-100825000D02*
X140970000Y-100825000D01*
X140970000Y-100825000D02*
X144095000Y-100825000D01*
X146881294Y-97270000D02*
X144145000Y-100006294D01*
X137160000Y-99060000D02*
X138925000Y-100825000D01*
X144145000Y-100006294D02*
X144145000Y-100775000D01*
G04 #@! TO.N,/SCL*
X137795000Y-93980000D02*
X135890000Y-93980000D01*
X139510000Y-95695000D02*
X137795000Y-93980000D01*
X140970000Y-95695000D02*
X139510000Y-95695000D01*
X140970000Y-94500000D02*
X140970000Y-95695000D01*
X141760000Y-93710000D02*
X140970000Y-94500000D01*
X145500000Y-93710000D02*
X141760000Y-93710000D01*
X147060000Y-95270000D02*
X145500000Y-93710000D01*
G04 #@! TO.N,/SDA*
X143320000Y-96520000D02*
X135890000Y-96520000D01*
X144145000Y-95695000D02*
X143320000Y-96520000D01*
X147262500Y-95770000D02*
X144220000Y-95770000D01*
X144220000Y-95770000D02*
X144145000Y-95695000D01*
G04 #@! TO.N,AD0*
X147377500Y-94557500D02*
X147320000Y-94615000D01*
X147975000Y-94557500D02*
X147377500Y-94557500D01*
G04 #@! TO.N,AD1*
X147262500Y-98367500D02*
X147320000Y-98425000D01*
X147262500Y-97770000D02*
X147262500Y-98367500D01*
G04 #@! TD*
G04 #@! TA.AperFunction,Conductor*
G04 #@! TO.N,GND*
G36*
X151729012Y-98767293D02*
G01*
X151733848Y-98771726D01*
X153645779Y-100683657D01*
X153670721Y-100708599D01*
X153691548Y-100729426D01*
X153713287Y-100776047D01*
X153699973Y-100825734D01*
X153657835Y-100855238D01*
X153638373Y-100857800D01*
X152346827Y-100857800D01*
X152298489Y-100840207D01*
X152293653Y-100835774D01*
X150609449Y-99151570D01*
X150587709Y-99104950D01*
X150601023Y-99055263D01*
X150620845Y-99035869D01*
X150621543Y-99035402D01*
X150621545Y-99035402D01*
X150692795Y-98987795D01*
X150740402Y-98916545D01*
X150752900Y-98853715D01*
X150752900Y-98824900D01*
X150770493Y-98776562D01*
X150815042Y-98750842D01*
X150828100Y-98749700D01*
X151680674Y-98749700D01*
X151729012Y-98767293D01*
G37*
G04 #@! TD.AperFunction*
G04 #@! TA.AperFunction,Conductor*
G36*
X154793554Y-99291835D02*
G01*
X154798390Y-99296268D01*
X155920774Y-100418652D01*
X155927711Y-100433528D01*
X155938265Y-100446106D01*
X155941115Y-100462273D01*
X155942514Y-100465272D01*
X155942800Y-100471826D01*
X155942800Y-100608937D01*
X155925207Y-100657275D01*
X155880658Y-100682995D01*
X155830000Y-100674062D01*
X155825822Y-100671464D01*
X155808499Y-100659889D01*
X155808496Y-100659888D01*
X155776352Y-100653494D01*
X155744209Y-100647100D01*
X155744208Y-100647100D01*
X155496126Y-100647100D01*
X155447788Y-100629507D01*
X155442962Y-100625084D01*
X155123657Y-100305779D01*
X155025449Y-100265100D01*
X155025448Y-100265100D01*
X154014126Y-100265100D01*
X153965788Y-100247507D01*
X153960952Y-100243074D01*
X153120494Y-99402616D01*
X153098754Y-99355996D01*
X153112068Y-99306309D01*
X153154205Y-99276804D01*
X153173668Y-99274242D01*
X154745216Y-99274242D01*
X154793554Y-99291835D01*
G37*
G04 #@! TD.AperFunction*
G04 #@! TA.AperFunction,Conductor*
G36*
X145406512Y-93994793D02*
G01*
X145411348Y-93999226D01*
X146675074Y-95262952D01*
X146696814Y-95309572D01*
X146697100Y-95316124D01*
X146697100Y-95353714D01*
X146697101Y-95353716D01*
X146708879Y-95412930D01*
X146701054Y-95463771D01*
X146662379Y-95497687D01*
X146635124Y-95502800D01*
X144843954Y-95502800D01*
X144795616Y-95485207D01*
X144769896Y-95440658D01*
X144769540Y-95438443D01*
X144766349Y-95416542D01*
X144762906Y-95392912D01*
X144711179Y-95287102D01*
X144711177Y-95287100D01*
X144711177Y-95287099D01*
X144627900Y-95203822D01*
X144592027Y-95186285D01*
X144522088Y-95152094D01*
X144453502Y-95142100D01*
X144453494Y-95142100D01*
X143836506Y-95142100D01*
X143836497Y-95142100D01*
X143767911Y-95152094D01*
X143662099Y-95203822D01*
X143578822Y-95287099D01*
X143527094Y-95392911D01*
X143517100Y-95461497D01*
X143517100Y-95913872D01*
X143499507Y-95962210D01*
X143495075Y-95967046D01*
X143231348Y-96230774D01*
X143184727Y-96252514D01*
X143178173Y-96252800D01*
X141567826Y-96252800D01*
X141519488Y-96235207D01*
X141493768Y-96190658D01*
X141502701Y-96140000D01*
X141514652Y-96124426D01*
X141536177Y-96102900D01*
X141536179Y-96102898D01*
X141587906Y-95997088D01*
X141597900Y-95928494D01*
X141597900Y-95461506D01*
X141597314Y-95457486D01*
X141591349Y-95416545D01*
X141587906Y-95392912D01*
X141536179Y-95287102D01*
X141536177Y-95287100D01*
X141536177Y-95287099D01*
X141452900Y-95203822D01*
X141417027Y-95186285D01*
X141347088Y-95152094D01*
X141301556Y-95145459D01*
X141256261Y-95121079D01*
X141237233Y-95073288D01*
X141237200Y-95071045D01*
X141237200Y-94641826D01*
X141254793Y-94593488D01*
X141259226Y-94588652D01*
X141848652Y-93999226D01*
X141895272Y-93977486D01*
X141901826Y-93977200D01*
X145358174Y-93977200D01*
X145406512Y-93994793D01*
G37*
G04 #@! TD.AperFunction*
G04 #@! TA.AperFunction,Conductor*
G36*
X156214884Y-89688543D02*
G01*
X156324964Y-89703035D01*
X156343920Y-89708114D01*
X156441907Y-89748702D01*
X156458902Y-89758514D01*
X156500973Y-89790796D01*
X156543041Y-89823077D01*
X156556922Y-89836958D01*
X156621483Y-89921094D01*
X156631299Y-89938095D01*
X156671884Y-90036076D01*
X156676965Y-90055038D01*
X156688911Y-90145780D01*
X156691457Y-90165114D01*
X156692100Y-90174930D01*
X156692100Y-102865069D01*
X156691457Y-102874884D01*
X156691457Y-102874885D01*
X156676965Y-102984961D01*
X156671884Y-103003923D01*
X156631299Y-103101904D01*
X156621483Y-103118905D01*
X156556922Y-103203041D01*
X156543041Y-103216922D01*
X156458905Y-103281483D01*
X156441904Y-103291299D01*
X156343923Y-103331884D01*
X156324961Y-103336965D01*
X156246437Y-103347302D01*
X156214883Y-103351457D01*
X156205069Y-103352100D01*
X134624931Y-103352100D01*
X134615116Y-103351457D01*
X134568046Y-103345260D01*
X134505038Y-103336965D01*
X134486076Y-103331884D01*
X134388095Y-103291299D01*
X134371094Y-103281483D01*
X134286958Y-103216922D01*
X134273077Y-103203041D01*
X134208516Y-103118905D01*
X134198702Y-103101907D01*
X134158114Y-103003920D01*
X134153035Y-102984964D01*
X134138543Y-102874884D01*
X134137900Y-102865069D01*
X134137900Y-102635815D01*
X140342601Y-102635815D01*
X140353287Y-102709173D01*
X140353288Y-102709175D01*
X140408608Y-102822332D01*
X140497667Y-102911391D01*
X140610825Y-102966712D01*
X140684180Y-102977399D01*
X140817600Y-102977399D01*
X141122400Y-102977399D01*
X141255811Y-102977399D01*
X141255815Y-102977398D01*
X141329173Y-102966712D01*
X141329175Y-102966711D01*
X141442332Y-102911391D01*
X141531391Y-102822332D01*
X141586712Y-102709174D01*
X141597399Y-102635825D01*
X141597400Y-102635813D01*
X141597400Y-102527400D01*
X141122400Y-102527400D01*
X141122400Y-102977399D01*
X140817600Y-102977399D01*
X140817600Y-102527400D01*
X140342601Y-102527400D01*
X140342601Y-102635815D01*
X134137900Y-102635815D01*
X134137900Y-101501270D01*
X134887600Y-101501270D01*
X134887600Y-101698729D01*
X134926121Y-101892385D01*
X134926122Y-101892388D01*
X135001684Y-102074812D01*
X135080982Y-102193491D01*
X135445086Y-101829386D01*
X135489901Y-101907007D01*
X135582993Y-102000099D01*
X135660611Y-102044912D01*
X135296507Y-102409016D01*
X135415187Y-102488315D01*
X135597611Y-102563877D01*
X135597614Y-102563878D01*
X135791270Y-102602400D01*
X135988730Y-102602400D01*
X136182385Y-102563878D01*
X136182388Y-102563877D01*
X136364816Y-102488313D01*
X136446514Y-102433725D01*
X136483490Y-102409017D01*
X136483491Y-102409016D01*
X136119387Y-102044912D01*
X136197007Y-102000099D01*
X136290099Y-101907007D01*
X136334912Y-101829387D01*
X136699016Y-102193491D01*
X136699017Y-102193490D01*
X136752015Y-102114174D01*
X140342600Y-102114174D01*
X140342600Y-102222600D01*
X140817600Y-102222600D01*
X141122400Y-102222600D01*
X141597399Y-102222600D01*
X141597399Y-102114189D01*
X141597398Y-102114184D01*
X141586712Y-102040826D01*
X141586711Y-102040824D01*
X141531391Y-101927667D01*
X141442332Y-101838608D01*
X141329174Y-101783287D01*
X141255825Y-101772600D01*
X141122400Y-101772600D01*
X141122400Y-102222600D01*
X140817600Y-102222600D01*
X140817600Y-101772600D01*
X140684189Y-101772600D01*
X140684184Y-101772601D01*
X140610826Y-101783287D01*
X140610824Y-101783288D01*
X140497667Y-101838608D01*
X140408608Y-101927667D01*
X140353287Y-102040825D01*
X140342600Y-102114174D01*
X136752015Y-102114174D01*
X136778313Y-102074816D01*
X136853877Y-101892388D01*
X136853878Y-101892385D01*
X136892400Y-101698729D01*
X136892400Y-101501270D01*
X136853878Y-101307614D01*
X136853877Y-101307611D01*
X136778315Y-101125187D01*
X136699016Y-101006507D01*
X136334912Y-101370611D01*
X136290099Y-101292993D01*
X136197007Y-101199901D01*
X136119387Y-101155087D01*
X136483491Y-100790982D01*
X136364812Y-100711684D01*
X136182388Y-100636122D01*
X136182385Y-100636121D01*
X135988730Y-100597600D01*
X135791270Y-100597600D01*
X135597614Y-100636121D01*
X135597611Y-100636122D01*
X135415184Y-100711685D01*
X135296507Y-100790981D01*
X135296507Y-100790982D01*
X135660612Y-101155087D01*
X135582993Y-101199901D01*
X135489901Y-101292993D01*
X135445087Y-101370612D01*
X135080982Y-101006507D01*
X135080981Y-101006507D01*
X135001685Y-101125184D01*
X134926122Y-101307611D01*
X134926121Y-101307614D01*
X134887600Y-101501270D01*
X134137900Y-101501270D01*
X134137900Y-93881222D01*
X134887100Y-93881222D01*
X134887100Y-94078777D01*
X134925641Y-94272537D01*
X134925642Y-94272538D01*
X134987090Y-94420888D01*
X135001241Y-94455051D01*
X135110996Y-94619312D01*
X135110997Y-94619313D01*
X135111000Y-94619317D01*
X135250682Y-94758999D01*
X135250685Y-94759001D01*
X135250688Y-94759004D01*
X135414949Y-94868759D01*
X135597461Y-94944357D01*
X135597462Y-94944358D01*
X135597463Y-94944358D01*
X135597465Y-94944359D01*
X135727218Y-94970168D01*
X135791222Y-94982900D01*
X135791223Y-94982900D01*
X135988778Y-94982900D01*
X136036889Y-94973329D01*
X136182535Y-94944359D01*
X136365051Y-94868759D01*
X136529312Y-94759004D01*
X136669004Y-94619312D01*
X136778759Y-94455051D01*
X136845625Y-94293620D01*
X136880376Y-94255697D01*
X136915100Y-94247200D01*
X137653174Y-94247200D01*
X137701512Y-94264793D01*
X137706348Y-94269226D01*
X139283479Y-95846357D01*
X139358643Y-95921521D01*
X139456851Y-95962200D01*
X140288096Y-95962200D01*
X140336434Y-95979793D01*
X140355655Y-96004372D01*
X140403822Y-96102900D01*
X140425348Y-96124426D01*
X140447088Y-96171046D01*
X140433774Y-96220733D01*
X140391637Y-96250238D01*
X140372174Y-96252800D01*
X136915100Y-96252800D01*
X136866762Y-96235207D01*
X136845625Y-96206379D01*
X136778759Y-96044949D01*
X136669004Y-95880688D01*
X136669001Y-95880685D01*
X136668999Y-95880682D01*
X136529317Y-95741000D01*
X136529313Y-95740997D01*
X136529312Y-95740996D01*
X136365051Y-95631241D01*
X136358673Y-95628599D01*
X136182538Y-95555642D01*
X136182537Y-95555641D01*
X135988778Y-95517100D01*
X135988777Y-95517100D01*
X135791223Y-95517100D01*
X135791222Y-95517100D01*
X135597462Y-95555641D01*
X135597461Y-95555642D01*
X135414950Y-95631240D01*
X135250682Y-95741000D01*
X135111000Y-95880682D01*
X135001240Y-96044950D01*
X134925642Y-96227461D01*
X134925641Y-96227462D01*
X134887100Y-96421222D01*
X134887100Y-96618777D01*
X134925641Y-96812537D01*
X134925642Y-96812538D01*
X135000019Y-96992101D01*
X135001241Y-96995051D01*
X135110996Y-97159312D01*
X135110997Y-97159313D01*
X135111000Y-97159317D01*
X135250682Y-97298999D01*
X135250685Y-97299001D01*
X135250688Y-97299004D01*
X135414949Y-97408759D01*
X135597461Y-97484357D01*
X135597462Y-97484358D01*
X135597463Y-97484358D01*
X135597465Y-97484359D01*
X135727218Y-97510168D01*
X135791222Y-97522900D01*
X135791223Y-97522900D01*
X135988778Y-97522900D01*
X136044520Y-97511812D01*
X136182535Y-97484359D01*
X136365051Y-97408759D01*
X136529312Y-97299004D01*
X136669004Y-97159312D01*
X136778759Y-96995051D01*
X136845625Y-96833620D01*
X136880376Y-96795697D01*
X136915100Y-96787200D01*
X140372174Y-96787200D01*
X140420512Y-96804793D01*
X140446232Y-96849342D01*
X140437299Y-96900000D01*
X140425348Y-96915574D01*
X140403822Y-96937099D01*
X140352094Y-97042911D01*
X140342100Y-97111497D01*
X140342100Y-97578502D01*
X140352094Y-97647088D01*
X140403822Y-97752900D01*
X140487099Y-97836177D01*
X140487100Y-97836177D01*
X140487102Y-97836179D01*
X140592912Y-97887906D01*
X140621760Y-97892109D01*
X140667056Y-97916487D01*
X140686084Y-97964278D01*
X140669942Y-98013119D01*
X140664093Y-98019697D01*
X140567579Y-98116211D01*
X140567578Y-98116213D01*
X140501371Y-98230885D01*
X140487945Y-98280996D01*
X140467100Y-98358792D01*
X140467100Y-98491208D01*
X140487662Y-98567950D01*
X140501371Y-98619114D01*
X140567578Y-98733786D01*
X140567582Y-98733792D01*
X140661207Y-98827417D01*
X140661210Y-98827419D01*
X140661212Y-98827421D01*
X140671707Y-98833480D01*
X140775885Y-98893628D01*
X140775887Y-98893628D01*
X140775888Y-98893629D01*
X140903792Y-98927900D01*
X140903794Y-98927900D01*
X141036206Y-98927900D01*
X141036208Y-98927900D01*
X141164112Y-98893629D01*
X141278788Y-98827421D01*
X141372421Y-98733788D01*
X141438629Y-98619112D01*
X141472900Y-98491208D01*
X141472900Y-98358792D01*
X141438629Y-98230888D01*
X141438628Y-98230887D01*
X141438628Y-98230885D01*
X141392222Y-98150509D01*
X141372421Y-98116212D01*
X141372419Y-98116210D01*
X141372417Y-98116207D01*
X141275907Y-98019697D01*
X141254167Y-97973077D01*
X141267481Y-97923390D01*
X141309618Y-97893885D01*
X141318235Y-97892109D01*
X141347088Y-97887906D01*
X141452898Y-97836179D01*
X141536179Y-97752898D01*
X141587906Y-97647088D01*
X141597900Y-97578494D01*
X141597900Y-97111506D01*
X141597899Y-97111497D01*
X143517100Y-97111497D01*
X143517100Y-97578502D01*
X143527094Y-97647088D01*
X143578822Y-97752900D01*
X143662099Y-97836177D01*
X143662100Y-97836177D01*
X143662102Y-97836179D01*
X143767912Y-97887906D01*
X143796760Y-97892109D01*
X143842056Y-97916487D01*
X143861084Y-97964278D01*
X143844942Y-98013119D01*
X143839093Y-98019697D01*
X143742579Y-98116211D01*
X143742578Y-98116213D01*
X143676371Y-98230885D01*
X143662945Y-98280996D01*
X143642100Y-98358792D01*
X143642100Y-98491208D01*
X143662662Y-98567950D01*
X143676371Y-98619114D01*
X143742578Y-98733786D01*
X143742582Y-98733792D01*
X143836207Y-98827417D01*
X143836210Y-98827419D01*
X143836212Y-98827421D01*
X143846707Y-98833480D01*
X143950885Y-98893628D01*
X143950887Y-98893628D01*
X143950888Y-98893629D01*
X144078792Y-98927900D01*
X144078794Y-98927900D01*
X144211206Y-98927900D01*
X144211208Y-98927900D01*
X144339112Y-98893629D01*
X144453788Y-98827421D01*
X144547421Y-98733788D01*
X144613629Y-98619112D01*
X144647900Y-98491208D01*
X144647900Y-98358792D01*
X144613629Y-98230888D01*
X144613628Y-98230887D01*
X144613628Y-98230885D01*
X144567222Y-98150509D01*
X144547421Y-98116212D01*
X144547419Y-98116210D01*
X144547417Y-98116207D01*
X144450907Y-98019697D01*
X144429167Y-97973077D01*
X144442481Y-97923390D01*
X144484618Y-97893885D01*
X144493235Y-97892109D01*
X144522088Y-97887906D01*
X144627898Y-97836179D01*
X144711179Y-97752898D01*
X144762906Y-97647088D01*
X144772900Y-97578494D01*
X144772900Y-97111506D01*
X144762906Y-97042912D01*
X144711179Y-96937102D01*
X144711177Y-96937100D01*
X144711177Y-96937099D01*
X144627900Y-96853822D01*
X144576700Y-96828792D01*
X144522088Y-96802094D01*
X144453502Y-96792100D01*
X144453494Y-96792100D01*
X143836506Y-96792100D01*
X143836497Y-96792100D01*
X143767911Y-96802094D01*
X143662099Y-96853822D01*
X143578822Y-96937099D01*
X143527094Y-97042911D01*
X143517100Y-97111497D01*
X141597899Y-97111497D01*
X141587906Y-97042912D01*
X141536179Y-96937102D01*
X141536177Y-96937100D01*
X141536177Y-96937099D01*
X141514652Y-96915574D01*
X141492912Y-96868954D01*
X141506226Y-96819267D01*
X141548363Y-96789762D01*
X141567826Y-96787200D01*
X143373147Y-96787200D01*
X143373149Y-96787200D01*
X143471357Y-96746521D01*
X143947952Y-96269926D01*
X143994572Y-96248186D01*
X144001126Y-96247900D01*
X144453492Y-96247900D01*
X144453494Y-96247900D01*
X144453498Y-96247899D01*
X144453502Y-96247899D01*
X144463245Y-96246479D01*
X144522088Y-96237906D01*
X144627898Y-96186179D01*
X144711179Y-96102898D01*
X144722680Y-96079371D01*
X144759716Y-96043673D01*
X144790239Y-96037200D01*
X145005042Y-96037200D01*
X145053380Y-96054793D01*
X145079100Y-96099342D01*
X145070167Y-96150000D01*
X145058216Y-96165574D01*
X145012582Y-96211207D01*
X145012578Y-96211213D01*
X144946371Y-96325885D01*
X144929595Y-96388499D01*
X144912100Y-96453792D01*
X144912100Y-96586208D01*
X144920827Y-96618777D01*
X144946371Y-96714114D01*
X145012578Y-96828786D01*
X145012582Y-96828792D01*
X145106207Y-96922417D01*
X145106210Y-96922419D01*
X145106212Y-96922421D01*
X145137800Y-96940658D01*
X145220885Y-96988628D01*
X145220887Y-96988628D01*
X145220888Y-96988629D01*
X145348792Y-97022900D01*
X145348794Y-97022900D01*
X145481206Y-97022900D01*
X145481208Y-97022900D01*
X145609112Y-96988629D01*
X145723788Y-96922421D01*
X145817421Y-96828788D01*
X145883629Y-96714112D01*
X145916097Y-96592936D01*
X145945600Y-96550800D01*
X145988734Y-96537200D01*
X146635633Y-96537200D01*
X146683971Y-96554793D01*
X146709691Y-96599342D01*
X146709388Y-96627071D01*
X146705821Y-96644999D01*
X146705822Y-96645000D01*
X147819176Y-96645000D01*
X147814930Y-96623648D01*
X147773891Y-96562229D01*
X147761664Y-96512264D01*
X147773888Y-96478675D01*
X147815402Y-96416545D01*
X147827900Y-96353715D01*
X147827899Y-96186286D01*
X147815402Y-96123455D01*
X147774190Y-96061777D01*
X147761965Y-96011812D01*
X147774188Y-95978225D01*
X147815402Y-95916545D01*
X147827900Y-95853715D01*
X147827899Y-95686286D01*
X147815402Y-95623455D01*
X147774190Y-95561777D01*
X147761965Y-95511812D01*
X147774188Y-95478225D01*
X147815402Y-95416545D01*
X147827900Y-95353715D01*
X147827899Y-95198098D01*
X147845492Y-95149762D01*
X147890040Y-95124042D01*
X147903088Y-95122899D01*
X148058714Y-95122899D01*
X148058716Y-95122899D01*
X148058716Y-95122898D01*
X148121545Y-95110402D01*
X148183221Y-95069191D01*
X148233187Y-95056965D01*
X148266776Y-95069190D01*
X148328455Y-95110402D01*
X148391285Y-95122900D01*
X148558714Y-95122899D01*
X148558715Y-95122899D01*
X148558715Y-95122898D01*
X148621545Y-95110402D01*
X148683221Y-95069191D01*
X148733187Y-95056965D01*
X148766776Y-95069190D01*
X148828455Y-95110402D01*
X148891285Y-95122900D01*
X149058714Y-95122899D01*
X149058715Y-95122899D01*
X149058715Y-95122898D01*
X149121545Y-95110402D01*
X149183221Y-95069191D01*
X149233187Y-95056965D01*
X149266776Y-95069190D01*
X149328455Y-95110402D01*
X149391285Y-95122900D01*
X149558714Y-95122899D01*
X149558715Y-95122899D01*
X149558715Y-95122898D01*
X149621545Y-95110402D01*
X149683221Y-95069191D01*
X149733187Y-95056965D01*
X149766776Y-95069190D01*
X149828455Y-95110402D01*
X149891285Y-95122900D01*
X150058714Y-95122899D01*
X150058715Y-95122899D01*
X150058715Y-95122898D01*
X150121545Y-95110402D01*
X150183221Y-95069191D01*
X150233187Y-95056965D01*
X150266776Y-95069190D01*
X150328455Y-95110402D01*
X150391285Y-95122900D01*
X150546900Y-95122899D01*
X150595237Y-95140492D01*
X150620957Y-95185040D01*
X150622100Y-95198099D01*
X150622100Y-95353715D01*
X150622101Y-95353716D01*
X150634598Y-95416546D01*
X150675808Y-95478222D01*
X150688034Y-95528187D01*
X150675808Y-95561778D01*
X150634598Y-95623454D01*
X150634597Y-95623456D01*
X150622100Y-95686284D01*
X150622100Y-95853715D01*
X150622101Y-95853716D01*
X150634598Y-95916546D01*
X150675808Y-95978222D01*
X150688034Y-96028187D01*
X150675808Y-96061778D01*
X150634598Y-96123454D01*
X150634597Y-96123456D01*
X150622100Y-96186284D01*
X150622100Y-96353715D01*
X150622101Y-96353716D01*
X150634598Y-96416545D01*
X150659487Y-96453794D01*
X150676109Y-96478671D01*
X150688335Y-96528637D01*
X150676109Y-96562228D01*
X150635069Y-96623649D01*
X150635068Y-96623651D01*
X150630822Y-96644999D01*
X150630822Y-96645000D01*
X151744176Y-96645000D01*
X151739930Y-96623648D01*
X151729335Y-96607791D01*
X151717108Y-96557825D01*
X151739859Y-96511690D01*
X151763086Y-96496535D01*
X151763121Y-96496521D01*
X152780416Y-95479226D01*
X152827036Y-95457486D01*
X152833590Y-95457200D01*
X154007218Y-95457200D01*
X154055556Y-95474793D01*
X154081276Y-95519342D01*
X154072343Y-95570000D01*
X154048996Y-95594927D01*
X153998599Y-95628599D01*
X153949889Y-95701500D01*
X153949888Y-95701504D01*
X153937100Y-95765791D01*
X153937100Y-96013874D01*
X153919507Y-96062212D01*
X153915074Y-96067048D01*
X153001348Y-96980774D01*
X152954728Y-97002514D01*
X152948174Y-97002800D01*
X151814367Y-97002800D01*
X151766029Y-96985207D01*
X151740309Y-96940658D01*
X151740612Y-96912929D01*
X151744178Y-96895000D01*
X150630823Y-96895000D01*
X150635069Y-96916351D01*
X150676108Y-96977770D01*
X150688335Y-97027736D01*
X150676109Y-97061326D01*
X150634599Y-97123451D01*
X150634597Y-97123456D01*
X150622100Y-97186284D01*
X150622100Y-97353715D01*
X150622101Y-97353716D01*
X150634598Y-97416546D01*
X150675808Y-97478222D01*
X150688034Y-97528187D01*
X150675808Y-97561778D01*
X150634598Y-97623454D01*
X150634597Y-97623456D01*
X150622100Y-97686284D01*
X150622100Y-97841900D01*
X150604507Y-97890238D01*
X150559958Y-97915958D01*
X150546900Y-97917100D01*
X150391284Y-97917100D01*
X150391283Y-97917101D01*
X150328453Y-97929598D01*
X150266777Y-97970808D01*
X150216811Y-97983034D01*
X150183221Y-97970808D01*
X150121545Y-97929598D01*
X150121543Y-97929597D01*
X150058715Y-97917100D01*
X149891284Y-97917100D01*
X149891283Y-97917101D01*
X149828453Y-97929598D01*
X149766777Y-97970808D01*
X149716811Y-97983034D01*
X149683221Y-97970808D01*
X149621545Y-97929598D01*
X149621543Y-97929597D01*
X149558715Y-97917100D01*
X149391284Y-97917100D01*
X149391283Y-97917101D01*
X149328453Y-97929598D01*
X149266777Y-97970808D01*
X149216811Y-97983034D01*
X149183221Y-97970808D01*
X149121545Y-97929598D01*
X149121543Y-97929597D01*
X149058715Y-97917100D01*
X148891284Y-97917100D01*
X148891283Y-97917101D01*
X148828453Y-97929598D01*
X148766777Y-97970808D01*
X148716811Y-97983034D01*
X148683221Y-97970808D01*
X148621545Y-97929598D01*
X148621543Y-97929597D01*
X148558715Y-97917100D01*
X148391284Y-97917100D01*
X148391283Y-97917101D01*
X148328453Y-97929598D01*
X148266777Y-97970808D01*
X148216811Y-97983034D01*
X148183221Y-97970808D01*
X148121545Y-97929598D01*
X148121543Y-97929597D01*
X148058716Y-97917100D01*
X147903099Y-97917100D01*
X147854761Y-97899507D01*
X147829041Y-97854958D01*
X147827899Y-97841910D01*
X147827899Y-97686286D01*
X147815402Y-97623455D01*
X147774190Y-97561777D01*
X147761965Y-97511812D01*
X147774188Y-97478225D01*
X147815402Y-97416545D01*
X147827900Y-97353715D01*
X147827899Y-97186286D01*
X147815402Y-97123455D01*
X147815401Y-97123453D01*
X147773890Y-97061326D01*
X147761664Y-97011361D01*
X147773891Y-96977768D01*
X147814931Y-96916348D01*
X147819177Y-96895000D01*
X146705823Y-96895000D01*
X146710069Y-96916351D01*
X146734660Y-96953154D01*
X146746887Y-97003120D01*
X146725308Y-97048107D01*
X145352734Y-98420682D01*
X143993643Y-99779773D01*
X143956061Y-99817355D01*
X143918479Y-99854936D01*
X143877800Y-99953146D01*
X143877800Y-100151045D01*
X143860207Y-100199383D01*
X143815658Y-100225103D01*
X143813444Y-100225459D01*
X143767911Y-100232094D01*
X143662099Y-100283822D01*
X143578822Y-100367099D01*
X143527094Y-100472912D01*
X143524103Y-100493442D01*
X143499725Y-100538738D01*
X143451934Y-100557766D01*
X143449689Y-100557800D01*
X141662015Y-100557800D01*
X141613677Y-100540207D01*
X141587957Y-100495658D01*
X141587601Y-100493441D01*
X141587199Y-100490688D01*
X141587198Y-100490681D01*
X141531806Y-100377375D01*
X141531804Y-100377373D01*
X141531804Y-100377372D01*
X141442627Y-100288195D01*
X141433680Y-100283821D01*
X141329319Y-100232802D01*
X141329318Y-100232801D01*
X141255867Y-100222100D01*
X140684141Y-100222100D01*
X140684136Y-100222101D01*
X140610682Y-100232801D01*
X140610680Y-100232802D01*
X140497372Y-100288195D01*
X140408195Y-100377372D01*
X140353819Y-100488601D01*
X140352802Y-100490681D01*
X140352400Y-100493441D01*
X140351341Y-100495409D01*
X140351079Y-100496258D01*
X140350912Y-100496206D01*
X140328023Y-100538737D01*
X140280233Y-100557766D01*
X140277986Y-100557800D01*
X139066826Y-100557800D01*
X139018488Y-100540207D01*
X139013652Y-100535774D01*
X137311359Y-98833480D01*
X137311357Y-98833479D01*
X137213149Y-98792800D01*
X137213148Y-98792800D01*
X136915100Y-98792800D01*
X136866762Y-98775207D01*
X136845625Y-98746379D01*
X136778759Y-98584949D01*
X136669004Y-98420688D01*
X136669001Y-98420685D01*
X136668999Y-98420682D01*
X136529317Y-98281000D01*
X136529313Y-98280997D01*
X136529312Y-98280996D01*
X136365051Y-98171241D01*
X136365049Y-98171240D01*
X136182538Y-98095642D01*
X136182537Y-98095641D01*
X135988778Y-98057100D01*
X135988777Y-98057100D01*
X135791223Y-98057100D01*
X135791222Y-98057100D01*
X135597462Y-98095641D01*
X135597461Y-98095642D01*
X135414950Y-98171240D01*
X135250682Y-98281000D01*
X135111000Y-98420682D01*
X135001240Y-98584950D01*
X134925642Y-98767461D01*
X134925641Y-98767462D01*
X134887100Y-98961222D01*
X134887100Y-99158777D01*
X134925641Y-99352537D01*
X134925642Y-99352538D01*
X134934375Y-99373622D01*
X135001241Y-99535051D01*
X135110996Y-99699312D01*
X135110997Y-99699313D01*
X135111000Y-99699317D01*
X135250682Y-99838999D01*
X135250685Y-99839001D01*
X135250688Y-99839004D01*
X135414949Y-99948759D01*
X135597461Y-100024357D01*
X135597462Y-100024358D01*
X135597463Y-100024358D01*
X135597465Y-100024359D01*
X135708056Y-100046357D01*
X135791222Y-100062900D01*
X135791223Y-100062900D01*
X135988778Y-100062900D01*
X136036889Y-100053329D01*
X136182535Y-100024359D01*
X136365051Y-99948759D01*
X136529312Y-99839004D01*
X136669004Y-99699312D01*
X136778759Y-99535051D01*
X136845625Y-99373620D01*
X136849085Y-99369844D01*
X136849975Y-99364800D01*
X136866127Y-99351245D01*
X136880376Y-99335697D01*
X136886421Y-99334217D01*
X136889380Y-99331735D01*
X136915100Y-99327200D01*
X137018174Y-99327200D01*
X137066512Y-99344793D01*
X137071348Y-99349226D01*
X138773640Y-101051519D01*
X138773641Y-101051519D01*
X138773643Y-101051521D01*
X138871851Y-101092200D01*
X138978149Y-101092200D01*
X140277985Y-101092200D01*
X140326323Y-101109793D01*
X140352043Y-101154342D01*
X140352399Y-101156559D01*
X140352800Y-101159311D01*
X140352802Y-101159319D01*
X140408195Y-101272627D01*
X140497372Y-101361804D01*
X140497373Y-101361804D01*
X140497375Y-101361806D01*
X140610681Y-101417198D01*
X140684137Y-101427900D01*
X141255862Y-101427899D01*
X141329319Y-101417198D01*
X141442625Y-101361806D01*
X141531806Y-101272625D01*
X141587198Y-101159319D01*
X141587600Y-101156557D01*
X141588658Y-101154590D01*
X141588921Y-101153742D01*
X141589087Y-101153793D01*
X141611977Y-101111263D01*
X141659767Y-101092234D01*
X141662014Y-101092200D01*
X143487540Y-101092200D01*
X143535878Y-101109793D01*
X143555098Y-101134372D01*
X143578821Y-101182898D01*
X143578822Y-101182899D01*
X143578823Y-101182901D01*
X143662099Y-101266177D01*
X143662100Y-101266177D01*
X143662102Y-101266179D01*
X143767912Y-101317906D01*
X143818180Y-101325230D01*
X143836497Y-101327899D01*
X143836502Y-101327899D01*
X143836506Y-101327900D01*
X143836508Y-101327900D01*
X144453492Y-101327900D01*
X144453494Y-101327900D01*
X144453498Y-101327899D01*
X144453502Y-101327899D01*
X144463245Y-101326479D01*
X144522088Y-101317906D01*
X144627898Y-101266179D01*
X144711179Y-101182898D01*
X144762906Y-101077088D01*
X144772900Y-101008494D01*
X144772900Y-100541506D01*
X144762906Y-100472912D01*
X144711179Y-100367102D01*
X144711177Y-100367100D01*
X144711177Y-100367099D01*
X144627900Y-100283822D01*
X144627898Y-100283821D01*
X144522088Y-100232094D01*
X144476556Y-100225459D01*
X144463926Y-100218660D01*
X144449800Y-100216170D01*
X144441976Y-100206846D01*
X144431261Y-100201079D01*
X144425955Y-100187753D01*
X144416735Y-100176765D01*
X144412883Y-100154922D01*
X144412233Y-100153288D01*
X144412200Y-100151045D01*
X144412200Y-100148119D01*
X144429793Y-100099781D01*
X144434215Y-100094956D01*
X146605964Y-97923206D01*
X146652583Y-97901467D01*
X146702270Y-97914781D01*
X146721664Y-97934603D01*
X146757204Y-97987795D01*
X146804811Y-98019603D01*
X146828455Y-98035402D01*
X146844758Y-98038645D01*
X146847322Y-98039155D01*
X146891299Y-98065841D01*
X146907833Y-98114551D01*
X146897776Y-98150509D01*
X146851372Y-98230883D01*
X146851371Y-98230888D01*
X146817100Y-98358792D01*
X146817100Y-98491208D01*
X146837662Y-98567950D01*
X146851371Y-98619114D01*
X146917578Y-98733786D01*
X146917582Y-98733792D01*
X147011207Y-98827417D01*
X147011210Y-98827419D01*
X147011212Y-98827421D01*
X147021707Y-98833480D01*
X147125885Y-98893628D01*
X147125887Y-98893628D01*
X147125888Y-98893629D01*
X147253792Y-98927900D01*
X147253794Y-98927900D01*
X147386206Y-98927900D01*
X147386208Y-98927900D01*
X147514112Y-98893629D01*
X147562157Y-98865889D01*
X147612815Y-98856957D01*
X147657363Y-98882677D01*
X147674957Y-98931014D01*
X147657364Y-98979352D01*
X147652931Y-98984190D01*
X147463291Y-99173829D01*
X147416671Y-99195568D01*
X147390657Y-99193292D01*
X147386208Y-99192100D01*
X147253792Y-99192100D01*
X147207409Y-99204528D01*
X147125885Y-99226371D01*
X147011213Y-99292578D01*
X147011207Y-99292582D01*
X146917582Y-99386207D01*
X146917578Y-99386213D01*
X146851371Y-99500885D01*
X146842217Y-99535051D01*
X146817100Y-99628792D01*
X146817100Y-99761208D01*
X146822075Y-99779774D01*
X146851371Y-99889114D01*
X146917578Y-100003786D01*
X146917582Y-100003792D01*
X147011207Y-100097417D01*
X147011210Y-100097419D01*
X147011212Y-100097421D01*
X147061775Y-100126613D01*
X147125885Y-100163628D01*
X147125887Y-100163628D01*
X147125888Y-100163629D01*
X147253792Y-100197900D01*
X147253794Y-100197900D01*
X147386206Y-100197900D01*
X147386208Y-100197900D01*
X147514112Y-100163629D01*
X147628788Y-100097421D01*
X147722421Y-100003788D01*
X147788629Y-99889112D01*
X147822900Y-99761208D01*
X147822900Y-99628792D01*
X147821707Y-99624340D01*
X147826191Y-99573098D01*
X147841166Y-99551710D01*
X148079427Y-99313450D01*
X148126046Y-99291712D01*
X148175733Y-99305026D01*
X148205238Y-99347163D01*
X148207800Y-99366626D01*
X148207800Y-100473174D01*
X148202184Y-100488601D01*
X148200754Y-100504955D01*
X148191339Y-100518399D01*
X148190207Y-100521512D01*
X148185774Y-100526348D01*
X148087048Y-100625074D01*
X148040428Y-100646814D01*
X148033874Y-100647100D01*
X147785791Y-100647100D01*
X147721504Y-100659888D01*
X147721500Y-100659889D01*
X147648599Y-100708599D01*
X147599889Y-100781500D01*
X147599888Y-100781504D01*
X147587100Y-100845791D01*
X147587100Y-101404208D01*
X147599888Y-101468495D01*
X147599889Y-101468499D01*
X147648601Y-101541402D01*
X147653837Y-101546638D01*
X147651306Y-101549168D01*
X147673152Y-101579000D01*
X147669757Y-101630327D01*
X147662353Y-101643405D01*
X147654309Y-101654785D01*
X147648600Y-101658600D01*
X147599888Y-101731504D01*
X147599811Y-101731888D01*
X147595923Y-101737390D01*
X147575554Y-101751518D01*
X147555557Y-101766181D01*
X147554397Y-101766193D01*
X147553656Y-101766708D01*
X147548734Y-101766255D01*
X147515051Y-101766623D01*
X147514113Y-101766371D01*
X147514112Y-101766371D01*
X147386208Y-101732100D01*
X147253792Y-101732100D01*
X147202630Y-101745808D01*
X147125885Y-101766371D01*
X147011213Y-101832578D01*
X147011207Y-101832582D01*
X146917579Y-101926210D01*
X146915277Y-101930199D01*
X146875872Y-101963264D01*
X146850151Y-101967800D01*
X146293149Y-101967800D01*
X146186851Y-101967800D01*
X146137747Y-101988139D01*
X146088642Y-102008479D01*
X146056298Y-102040824D01*
X145961347Y-102135774D01*
X145914728Y-102157514D01*
X145908174Y-102157800D01*
X144826904Y-102157800D01*
X144778566Y-102140207D01*
X144759345Y-102115628D01*
X144751705Y-102100000D01*
X144711179Y-102017102D01*
X144711177Y-102017100D01*
X144711177Y-102017099D01*
X144627900Y-101933822D01*
X144612323Y-101926207D01*
X144522088Y-101882094D01*
X144453502Y-101872100D01*
X144453494Y-101872100D01*
X143836506Y-101872100D01*
X143836497Y-101872100D01*
X143767911Y-101882094D01*
X143662099Y-101933822D01*
X143578822Y-102017099D01*
X143527094Y-102122911D01*
X143517100Y-102191497D01*
X143517100Y-102658502D01*
X143527094Y-102727088D01*
X143578822Y-102832900D01*
X143662099Y-102916177D01*
X143662100Y-102916177D01*
X143662102Y-102916179D01*
X143767912Y-102967906D01*
X143818180Y-102975230D01*
X143836497Y-102977899D01*
X143836502Y-102977899D01*
X143836506Y-102977900D01*
X143836508Y-102977900D01*
X144453492Y-102977900D01*
X144453494Y-102977900D01*
X144453498Y-102977899D01*
X144453502Y-102977899D01*
X144463245Y-102976479D01*
X144522088Y-102967906D01*
X144627898Y-102916179D01*
X144711179Y-102832898D01*
X144759345Y-102734371D01*
X144796380Y-102698673D01*
X144826904Y-102692200D01*
X146103147Y-102692200D01*
X146103149Y-102692200D01*
X146201357Y-102651521D01*
X146328652Y-102524225D01*
X146375272Y-102502486D01*
X146381826Y-102502200D01*
X146850151Y-102502200D01*
X146898489Y-102519793D01*
X146915277Y-102539801D01*
X146917579Y-102543789D01*
X147011207Y-102637417D01*
X147011210Y-102637419D01*
X147011212Y-102637421D01*
X147061775Y-102666613D01*
X147125885Y-102703628D01*
X147125887Y-102703628D01*
X147125888Y-102703629D01*
X147253792Y-102737900D01*
X147253794Y-102737900D01*
X147386206Y-102737900D01*
X147386208Y-102737900D01*
X147514112Y-102703629D01*
X147628788Y-102637421D01*
X147696912Y-102569296D01*
X147743531Y-102547557D01*
X147764757Y-102548716D01*
X147785790Y-102552900D01*
X147785792Y-102552900D01*
X148144209Y-102552900D01*
X148153357Y-102551080D01*
X148208496Y-102540112D01*
X148281400Y-102491400D01*
X148330112Y-102418496D01*
X148342900Y-102354208D01*
X148342900Y-101795792D01*
X148330112Y-101731504D01*
X148330110Y-101731501D01*
X148330110Y-101731500D01*
X148281398Y-101658597D01*
X148276163Y-101653362D01*
X148278706Y-101650818D01*
X148256881Y-101621119D01*
X148260192Y-101569785D01*
X148278040Y-101548515D01*
X148276163Y-101546638D01*
X148281398Y-101541402D01*
X148281398Y-101541400D01*
X148281400Y-101541400D01*
X148330112Y-101468496D01*
X148342900Y-101404208D01*
X148342900Y-101156126D01*
X148360493Y-101107788D01*
X148364915Y-101102962D01*
X148701521Y-100766357D01*
X148701522Y-100766354D01*
X148705635Y-100760200D01*
X148707297Y-100761310D01*
X148733705Y-100732484D01*
X148733961Y-100717059D01*
X148731646Y-100695914D01*
X148734454Y-100687334D01*
X148734462Y-100686900D01*
X148734759Y-100686404D01*
X148735216Y-100685009D01*
X148735776Y-100683657D01*
X148742200Y-100668149D01*
X148742200Y-100561851D01*
X148742200Y-100221626D01*
X148759793Y-100173288D01*
X148804342Y-100147568D01*
X148855000Y-100156501D01*
X148870574Y-100168452D01*
X148925774Y-100223652D01*
X148947514Y-100270272D01*
X148947800Y-100276826D01*
X148947800Y-100635530D01*
X148930207Y-100683868D01*
X148929397Y-100684816D01*
X148922775Y-100692446D01*
X148898600Y-100708600D01*
X148864593Y-100759495D01*
X148861488Y-100763074D01*
X148842892Y-100773403D01*
X148837754Y-100777170D01*
X148845176Y-100800699D01*
X148843802Y-100812097D01*
X148837100Y-100845790D01*
X148837100Y-101404208D01*
X148849888Y-101468495D01*
X148849889Y-101468499D01*
X148898601Y-101541402D01*
X148903837Y-101546638D01*
X148901306Y-101549168D01*
X148923152Y-101579000D01*
X148919757Y-101630327D01*
X148901983Y-101651508D01*
X148903837Y-101653362D01*
X148898601Y-101658597D01*
X148849889Y-101731500D01*
X148849888Y-101731504D01*
X148837100Y-101795792D01*
X148837100Y-102354208D01*
X148848002Y-102409017D01*
X148849888Y-102418495D01*
X148849889Y-102418499D01*
X148898599Y-102491400D01*
X148971500Y-102540110D01*
X148971501Y-102540110D01*
X148971504Y-102540112D01*
X149025124Y-102550778D01*
X149035791Y-102552900D01*
X149035792Y-102552900D01*
X149394209Y-102552900D01*
X149403357Y-102551080D01*
X149458496Y-102540112D01*
X149531400Y-102491400D01*
X149580112Y-102418496D01*
X149592900Y-102354208D01*
X149592900Y-102106126D01*
X149610493Y-102057788D01*
X149614915Y-102052962D01*
X149934221Y-101733657D01*
X149974900Y-101635449D01*
X149974900Y-101529151D01*
X149974900Y-100035736D01*
X149934221Y-99937528D01*
X149859057Y-99862364D01*
X149764226Y-99767533D01*
X149742486Y-99720913D01*
X149742200Y-99714359D01*
X149742200Y-99221626D01*
X149759793Y-99173288D01*
X149804342Y-99147568D01*
X149855000Y-99156501D01*
X149870574Y-99168452D01*
X152053641Y-101351519D01*
X152053642Y-101351519D01*
X152053644Y-101351521D01*
X152151852Y-101392200D01*
X152258150Y-101392200D01*
X153872997Y-101392200D01*
X153921335Y-101409793D01*
X153946752Y-101452730D01*
X153949887Y-101468494D01*
X153949889Y-101468499D01*
X153998601Y-101541402D01*
X154003837Y-101546638D01*
X154001306Y-101549168D01*
X154023152Y-101579000D01*
X154019757Y-101630327D01*
X154012353Y-101643405D01*
X154004309Y-101654785D01*
X153998600Y-101658600D01*
X153949888Y-101731504D01*
X153949811Y-101731888D01*
X153945923Y-101737390D01*
X153925554Y-101751518D01*
X153905557Y-101766181D01*
X153904397Y-101766193D01*
X153903656Y-101766708D01*
X153898734Y-101766255D01*
X153865051Y-101766623D01*
X153864113Y-101766371D01*
X153864112Y-101766371D01*
X153736208Y-101732100D01*
X153603792Y-101732100D01*
X153552630Y-101745808D01*
X153475885Y-101766371D01*
X153361213Y-101832578D01*
X153361207Y-101832582D01*
X153267582Y-101926207D01*
X153267578Y-101926213D01*
X153201371Y-102040885D01*
X153181732Y-102114184D01*
X153167100Y-102168792D01*
X153167100Y-102301208D01*
X153181301Y-102354208D01*
X153201371Y-102429114D01*
X153267578Y-102543786D01*
X153267582Y-102543792D01*
X153361207Y-102637417D01*
X153361210Y-102637419D01*
X153361212Y-102637421D01*
X153411775Y-102666613D01*
X153475885Y-102703628D01*
X153475887Y-102703628D01*
X153475888Y-102703629D01*
X153603792Y-102737900D01*
X153603794Y-102737900D01*
X153736206Y-102737900D01*
X153736208Y-102737900D01*
X153864112Y-102703629D01*
X153978788Y-102637421D01*
X154046912Y-102569296D01*
X154093531Y-102547557D01*
X154114757Y-102548716D01*
X154135790Y-102552900D01*
X154135792Y-102552900D01*
X154494209Y-102552900D01*
X154503357Y-102551080D01*
X154558496Y-102540112D01*
X154631400Y-102491400D01*
X154680112Y-102418496D01*
X154692900Y-102354208D01*
X154692900Y-101795792D01*
X154680112Y-101731504D01*
X154680110Y-101731501D01*
X154680110Y-101731500D01*
X154631398Y-101658597D01*
X154626163Y-101653362D01*
X154628706Y-101650818D01*
X154606881Y-101621119D01*
X154610192Y-101569785D01*
X154628040Y-101548515D01*
X154626163Y-101546638D01*
X154631398Y-101541402D01*
X154631398Y-101541400D01*
X154631400Y-101541400D01*
X154680112Y-101468496D01*
X154692900Y-101404208D01*
X154692900Y-100874700D01*
X154699582Y-100856340D01*
X154702975Y-100837100D01*
X154708171Y-100832739D01*
X154710493Y-100826362D01*
X154727415Y-100816592D01*
X154742380Y-100804035D01*
X154752148Y-100802312D01*
X154755042Y-100800642D01*
X154768100Y-100799500D01*
X154830474Y-100799500D01*
X154878812Y-100817093D01*
X154883648Y-100821526D01*
X155165074Y-101102952D01*
X155186814Y-101149572D01*
X155187100Y-101156126D01*
X155187100Y-101404208D01*
X155199888Y-101468495D01*
X155199889Y-101468499D01*
X155248601Y-101541402D01*
X155253837Y-101546638D01*
X155251306Y-101549168D01*
X155273152Y-101579000D01*
X155269757Y-101630327D01*
X155251983Y-101651508D01*
X155253837Y-101653362D01*
X155248601Y-101658597D01*
X155199889Y-101731500D01*
X155199888Y-101731504D01*
X155187100Y-101795792D01*
X155187100Y-102354208D01*
X155198002Y-102409017D01*
X155199888Y-102418495D01*
X155199889Y-102418499D01*
X155248599Y-102491400D01*
X155321500Y-102540110D01*
X155321501Y-102540110D01*
X155321504Y-102540112D01*
X155375124Y-102550778D01*
X155385791Y-102552900D01*
X155385792Y-102552900D01*
X155744209Y-102552900D01*
X155753357Y-102551080D01*
X155808496Y-102540112D01*
X155881400Y-102491400D01*
X155930112Y-102418496D01*
X155942900Y-102354208D01*
X155942900Y-102276126D01*
X155960493Y-102227788D01*
X155964926Y-102222952D01*
X156436519Y-101751359D01*
X156436521Y-101751357D01*
X156477200Y-101653149D01*
X156477200Y-101546851D01*
X156477200Y-100276851D01*
X156436521Y-100178643D01*
X156361357Y-100103479D01*
X155758763Y-99500885D01*
X155038401Y-98780522D01*
X155028841Y-98776562D01*
X154940191Y-98739842D01*
X154940190Y-98739842D01*
X153229784Y-98739842D01*
X153181446Y-98722249D01*
X153176610Y-98717816D01*
X152124369Y-97665574D01*
X152102629Y-97618954D01*
X152115943Y-97569267D01*
X152158080Y-97539762D01*
X152177543Y-97537200D01*
X153143147Y-97537200D01*
X153143149Y-97537200D01*
X153241357Y-97496521D01*
X153808726Y-96929152D01*
X153855346Y-96907412D01*
X153905033Y-96920726D01*
X153934538Y-96962863D01*
X153937100Y-96982326D01*
X153937100Y-97274208D01*
X153949887Y-97338494D01*
X153949888Y-97338496D01*
X153953816Y-97344374D01*
X153966042Y-97394340D01*
X153944464Y-97439326D01*
X153902579Y-97481211D01*
X153902578Y-97481213D01*
X153836371Y-97595885D01*
X153828984Y-97623456D01*
X153802100Y-97723792D01*
X153802100Y-97856208D01*
X153818267Y-97916545D01*
X153836371Y-97984114D01*
X153879738Y-98059226D01*
X153895730Y-98086926D01*
X153902578Y-98098786D01*
X153902582Y-98098792D01*
X153996207Y-98192417D01*
X153996210Y-98192419D01*
X153996212Y-98192421D01*
X154031402Y-98212738D01*
X154110885Y-98258628D01*
X154110887Y-98258628D01*
X154110888Y-98258629D01*
X154238792Y-98292900D01*
X154238794Y-98292900D01*
X154371206Y-98292900D01*
X154371208Y-98292900D01*
X154499112Y-98258629D01*
X154613788Y-98192421D01*
X154707421Y-98098788D01*
X154773629Y-97984112D01*
X154807900Y-97856208D01*
X154807900Y-97723792D01*
X154773629Y-97595888D01*
X154773628Y-97595887D01*
X154773628Y-97595885D01*
X154725088Y-97511812D01*
X154707421Y-97481212D01*
X154677524Y-97451315D01*
X154655785Y-97404697D01*
X154668173Y-97356362D01*
X154680112Y-97338496D01*
X154692900Y-97274208D01*
X154692900Y-96715792D01*
X154680112Y-96651504D01*
X154680110Y-96651501D01*
X154680110Y-96651500D01*
X154631398Y-96578597D01*
X154626163Y-96573362D01*
X154628706Y-96570818D01*
X154606881Y-96541119D01*
X154610192Y-96489785D01*
X154628040Y-96468515D01*
X154626163Y-96466638D01*
X154631398Y-96461402D01*
X154631398Y-96461400D01*
X154631400Y-96461400D01*
X154680112Y-96388496D01*
X154692900Y-96324208D01*
X154692900Y-95765792D01*
X154687874Y-95740526D01*
X154695698Y-95689686D01*
X154734372Y-95655769D01*
X154785800Y-95654645D01*
X154814803Y-95672681D01*
X155165074Y-96022952D01*
X155186814Y-96069572D01*
X155187100Y-96076126D01*
X155187100Y-96324208D01*
X155192969Y-96353715D01*
X155199888Y-96388495D01*
X155199889Y-96388499D01*
X155248601Y-96461402D01*
X155253837Y-96466638D01*
X155251306Y-96469168D01*
X155273152Y-96499000D01*
X155269757Y-96550327D01*
X155251983Y-96571508D01*
X155253837Y-96573362D01*
X155248601Y-96578597D01*
X155199889Y-96651500D01*
X155199888Y-96651504D01*
X155187100Y-96715791D01*
X155187100Y-97274208D01*
X155199888Y-97338495D01*
X155199889Y-97338499D01*
X155248599Y-97411400D01*
X155321500Y-97460110D01*
X155321501Y-97460110D01*
X155321504Y-97460112D01*
X155375124Y-97470778D01*
X155385791Y-97472900D01*
X155385792Y-97472900D01*
X155744209Y-97472900D01*
X155753357Y-97471080D01*
X155808496Y-97460112D01*
X155881400Y-97411400D01*
X155930112Y-97338496D01*
X155942900Y-97274208D01*
X155942900Y-97026126D01*
X155960493Y-96977788D01*
X155964926Y-96972952D01*
X156436519Y-96501359D01*
X156436521Y-96501357D01*
X156477200Y-96403149D01*
X156477200Y-96296851D01*
X156477200Y-95745935D01*
X156436521Y-95647727D01*
X156361357Y-95572563D01*
X155872912Y-95084118D01*
X155371275Y-94582480D01*
X155371273Y-94582479D01*
X155273065Y-94541800D01*
X152582855Y-94541800D01*
X152476557Y-94541800D01*
X152438323Y-94557637D01*
X152378346Y-94582480D01*
X151844036Y-95116790D01*
X151797416Y-95138530D01*
X151747729Y-95125216D01*
X151728335Y-95105395D01*
X151704145Y-95069192D01*
X151692795Y-95052205D01*
X151621545Y-95004598D01*
X151621543Y-95004597D01*
X151558716Y-94992100D01*
X151558715Y-94992100D01*
X151529900Y-94992100D01*
X151481562Y-94974507D01*
X151455842Y-94929958D01*
X151454700Y-94916900D01*
X151454700Y-94234326D01*
X151472293Y-94185988D01*
X151476726Y-94181152D01*
X153808726Y-91849152D01*
X153855346Y-91827412D01*
X153905033Y-91840726D01*
X153934538Y-91882863D01*
X153937100Y-91902326D01*
X153937100Y-92194208D01*
X153949887Y-92258494D01*
X153949888Y-92258496D01*
X153953814Y-92264371D01*
X153953816Y-92264374D01*
X153966042Y-92314340D01*
X153944464Y-92359326D01*
X153902579Y-92401211D01*
X153902578Y-92401213D01*
X153836371Y-92515885D01*
X153827413Y-92549319D01*
X153802100Y-92643792D01*
X153802100Y-92776208D01*
X153810404Y-92807198D01*
X153836371Y-92904114D01*
X153902578Y-93018786D01*
X153902582Y-93018792D01*
X153996207Y-93112417D01*
X153996210Y-93112419D01*
X153996212Y-93112421D01*
X154007263Y-93118801D01*
X154110885Y-93178628D01*
X154110887Y-93178628D01*
X154110888Y-93178629D01*
X154238792Y-93212900D01*
X154238794Y-93212900D01*
X154371206Y-93212900D01*
X154371208Y-93212900D01*
X154499112Y-93178629D01*
X154613788Y-93112421D01*
X154707421Y-93018788D01*
X154773629Y-92904112D01*
X154807900Y-92776208D01*
X154807900Y-92643792D01*
X154773629Y-92515888D01*
X154773628Y-92515887D01*
X154773628Y-92515885D01*
X154726367Y-92434028D01*
X154707421Y-92401212D01*
X154677524Y-92371315D01*
X154655785Y-92324697D01*
X154668173Y-92276362D01*
X154680112Y-92258496D01*
X154692900Y-92194208D01*
X154692900Y-91635792D01*
X154680112Y-91571504D01*
X154680110Y-91571501D01*
X154680110Y-91571500D01*
X154631398Y-91498597D01*
X154626163Y-91493362D01*
X154628706Y-91490818D01*
X154606881Y-91461119D01*
X154610192Y-91409785D01*
X154628040Y-91388515D01*
X154626163Y-91386638D01*
X154631398Y-91381402D01*
X154631398Y-91381400D01*
X154631400Y-91381400D01*
X154680112Y-91308496D01*
X154692900Y-91244208D01*
X154692900Y-90714700D01*
X154699582Y-90696340D01*
X154702975Y-90677100D01*
X154708171Y-90672739D01*
X154710493Y-90666362D01*
X154727415Y-90656592D01*
X154742380Y-90644035D01*
X154752148Y-90642312D01*
X154755042Y-90640642D01*
X154768100Y-90639500D01*
X154830474Y-90639500D01*
X154878812Y-90657093D01*
X154883648Y-90661526D01*
X155165074Y-90942952D01*
X155186814Y-90989572D01*
X155187100Y-90996126D01*
X155187100Y-91244208D01*
X155196342Y-91290672D01*
X155199888Y-91308495D01*
X155199889Y-91308499D01*
X155248601Y-91381402D01*
X155253837Y-91386638D01*
X155251306Y-91389168D01*
X155273152Y-91419000D01*
X155269757Y-91470327D01*
X155251983Y-91491508D01*
X155253837Y-91493362D01*
X155248601Y-91498597D01*
X155199889Y-91571500D01*
X155199888Y-91571504D01*
X155187100Y-91635791D01*
X155187100Y-92194208D01*
X155199887Y-92258494D01*
X155199888Y-92258496D01*
X155203814Y-92264371D01*
X155211827Y-92276364D01*
X155224052Y-92326330D01*
X155202475Y-92371314D01*
X155172580Y-92401210D01*
X155172578Y-92401213D01*
X155106371Y-92515885D01*
X155097413Y-92549319D01*
X155072100Y-92643792D01*
X155072100Y-92776208D01*
X155080404Y-92807198D01*
X155106371Y-92904114D01*
X155172578Y-93018786D01*
X155172582Y-93018792D01*
X155266207Y-93112417D01*
X155266210Y-93112419D01*
X155266212Y-93112421D01*
X155277263Y-93118801D01*
X155380885Y-93178628D01*
X155380887Y-93178628D01*
X155380888Y-93178629D01*
X155508792Y-93212900D01*
X155508794Y-93212900D01*
X155641206Y-93212900D01*
X155641208Y-93212900D01*
X155769112Y-93178629D01*
X155883788Y-93112421D01*
X155977421Y-93018788D01*
X156043629Y-92904112D01*
X156077900Y-92776208D01*
X156077900Y-92643792D01*
X156043629Y-92515888D01*
X156043628Y-92515887D01*
X156043628Y-92515885D01*
X155996367Y-92434028D01*
X155977421Y-92401212D01*
X155935535Y-92359326D01*
X155913796Y-92312708D01*
X155926184Y-92264374D01*
X155930112Y-92258496D01*
X155942900Y-92194208D01*
X155942900Y-91635792D01*
X155930112Y-91571504D01*
X155930110Y-91571501D01*
X155930110Y-91571500D01*
X155881398Y-91498597D01*
X155876163Y-91493362D01*
X155878706Y-91490818D01*
X155856881Y-91461119D01*
X155860192Y-91409785D01*
X155878040Y-91388515D01*
X155876163Y-91386638D01*
X155881398Y-91381402D01*
X155881398Y-91381400D01*
X155881400Y-91381400D01*
X155930112Y-91308496D01*
X155942900Y-91244208D01*
X155942900Y-90685792D01*
X155930112Y-90621504D01*
X155930110Y-90621501D01*
X155930110Y-90621500D01*
X155881400Y-90548599D01*
X155808499Y-90499889D01*
X155808496Y-90499888D01*
X155776352Y-90493494D01*
X155744209Y-90487100D01*
X155744208Y-90487100D01*
X155496126Y-90487100D01*
X155447788Y-90469507D01*
X155442962Y-90465084D01*
X155123657Y-90145779D01*
X155025449Y-90105100D01*
X153991079Y-90105100D01*
X153884781Y-90105100D01*
X153828028Y-90128608D01*
X153786570Y-90145780D01*
X150940574Y-92991777D01*
X150893954Y-93013517D01*
X150844267Y-93000203D01*
X150814762Y-92958066D01*
X150812200Y-92938603D01*
X150812200Y-90951852D01*
X150812200Y-90951851D01*
X150771521Y-90853643D01*
X150696357Y-90778479D01*
X150319729Y-90401851D01*
X149871359Y-89953480D01*
X149839245Y-89940178D01*
X149773149Y-89912800D01*
X148293149Y-89912800D01*
X148186851Y-89912800D01*
X148137747Y-89933139D01*
X148088642Y-89953479D01*
X148006046Y-90036076D01*
X147813643Y-90228479D01*
X147776061Y-90266061D01*
X147738479Y-90303642D01*
X147697800Y-90401852D01*
X147697800Y-90475530D01*
X147680207Y-90523868D01*
X147664379Y-90538056D01*
X147648600Y-90548599D01*
X147599889Y-90621500D01*
X147599888Y-90621504D01*
X147587100Y-90685792D01*
X147587100Y-91244208D01*
X147596342Y-91290672D01*
X147599888Y-91308495D01*
X147599889Y-91308499D01*
X147648601Y-91381402D01*
X147653837Y-91386638D01*
X147651306Y-91389168D01*
X147673152Y-91419000D01*
X147669757Y-91470327D01*
X147651983Y-91491508D01*
X147653837Y-91493362D01*
X147648601Y-91498597D01*
X147599889Y-91571500D01*
X147599888Y-91571504D01*
X147587100Y-91635791D01*
X147587100Y-92194208D01*
X147599887Y-92258494D01*
X147599888Y-92258496D01*
X147603814Y-92264371D01*
X147603816Y-92264374D01*
X147616042Y-92314340D01*
X147594464Y-92359326D01*
X147552579Y-92401211D01*
X147552578Y-92401213D01*
X147486371Y-92515885D01*
X147477413Y-92549319D01*
X147452100Y-92643792D01*
X147452100Y-92776208D01*
X147460404Y-92807198D01*
X147486371Y-92904114D01*
X147552578Y-93018786D01*
X147552582Y-93018792D01*
X147646207Y-93112417D01*
X147646210Y-93112419D01*
X147646212Y-93112421D01*
X147657263Y-93118801D01*
X147760885Y-93178628D01*
X147760887Y-93178628D01*
X147760888Y-93178629D01*
X147888792Y-93212900D01*
X147888794Y-93212900D01*
X148021206Y-93212900D01*
X148021208Y-93212900D01*
X148149112Y-93178629D01*
X148263788Y-93112421D01*
X148357421Y-93018788D01*
X148423629Y-92904112D01*
X148457900Y-92776208D01*
X148457900Y-92643792D01*
X148423629Y-92515888D01*
X148423628Y-92515887D01*
X148423628Y-92515885D01*
X148376367Y-92434028D01*
X148357421Y-92401212D01*
X148327524Y-92371315D01*
X148305785Y-92324697D01*
X148318173Y-92276362D01*
X148330112Y-92258496D01*
X148342900Y-92194208D01*
X148342900Y-91635792D01*
X148330112Y-91571504D01*
X148330110Y-91571501D01*
X148330110Y-91571500D01*
X148281398Y-91498597D01*
X148276163Y-91493362D01*
X148278706Y-91490818D01*
X148256881Y-91461119D01*
X148260192Y-91409785D01*
X148278040Y-91388515D01*
X148276163Y-91386638D01*
X148281398Y-91381402D01*
X148281398Y-91381400D01*
X148281400Y-91381400D01*
X148330112Y-91308496D01*
X148342900Y-91244208D01*
X148342900Y-90685792D01*
X148330112Y-90621504D01*
X148330110Y-90621501D01*
X148330110Y-90621500D01*
X148302820Y-90580657D01*
X148299857Y-90568550D01*
X148292709Y-90558340D01*
X148293934Y-90544341D01*
X148290594Y-90530691D01*
X148296141Y-90519127D01*
X148297194Y-90507096D01*
X148312172Y-90485704D01*
X148328654Y-90469224D01*
X148375275Y-90447486D01*
X148381827Y-90447200D01*
X148825664Y-90447200D01*
X148874002Y-90464793D01*
X148899722Y-90509342D01*
X148890789Y-90560000D01*
X148888191Y-90564178D01*
X148849889Y-90621500D01*
X148849888Y-90621504D01*
X148837100Y-90685792D01*
X148837100Y-91244208D01*
X148846342Y-91290672D01*
X148849888Y-91308495D01*
X148849889Y-91308499D01*
X148898601Y-91381402D01*
X148903837Y-91386638D01*
X148901306Y-91389168D01*
X148923152Y-91419000D01*
X148919757Y-91470327D01*
X148901983Y-91491508D01*
X148903837Y-91493362D01*
X148898601Y-91498597D01*
X148849889Y-91571500D01*
X148849888Y-91571504D01*
X148837100Y-91635791D01*
X148837100Y-92194208D01*
X148849888Y-92258495D01*
X148849889Y-92258499D01*
X148894121Y-92324697D01*
X148898600Y-92331400D01*
X148914377Y-92341941D01*
X148928217Y-92360816D01*
X148943265Y-92378749D01*
X148943865Y-92382156D01*
X148944795Y-92383424D01*
X148947800Y-92404469D01*
X148947800Y-92423174D01*
X148930207Y-92471512D01*
X148925774Y-92476348D01*
X148823643Y-92578479D01*
X148786061Y-92616061D01*
X148748479Y-92653642D01*
X148736059Y-92683628D01*
X148707820Y-92751804D01*
X148707800Y-92751852D01*
X148707800Y-93930123D01*
X148690207Y-93978461D01*
X148645658Y-94004181D01*
X148617929Y-94003878D01*
X148558716Y-93992100D01*
X148391284Y-93992100D01*
X148391283Y-93992101D01*
X148328453Y-94004598D01*
X148266777Y-94045808D01*
X148216811Y-94058034D01*
X148183221Y-94045808D01*
X148121545Y-94004598D01*
X148121543Y-94004597D01*
X148058715Y-93992100D01*
X147891284Y-93992100D01*
X147891283Y-93992101D01*
X147828455Y-94004598D01*
X147757204Y-94052205D01*
X147709598Y-94123454D01*
X147709596Y-94123460D01*
X147705843Y-94142325D01*
X147679156Y-94186300D01*
X147630445Y-94202833D01*
X147594489Y-94192776D01*
X147514114Y-94146371D01*
X147450160Y-94129235D01*
X147386208Y-94112100D01*
X147253792Y-94112100D01*
X147211414Y-94123455D01*
X147125885Y-94146371D01*
X147011213Y-94212578D01*
X147011207Y-94212582D01*
X146917582Y-94306207D01*
X146917578Y-94306213D01*
X146851371Y-94420886D01*
X146829588Y-94502186D01*
X146800083Y-94544323D01*
X146750396Y-94557637D01*
X146703776Y-94535898D01*
X146703776Y-94535897D01*
X145651359Y-93483480D01*
X145614890Y-93468374D01*
X145553149Y-93442800D01*
X141813149Y-93442800D01*
X141706851Y-93442800D01*
X141645110Y-93468374D01*
X141608640Y-93483480D01*
X141013345Y-94078777D01*
X140818643Y-94273479D01*
X140798500Y-94293622D01*
X140743479Y-94348642D01*
X140702800Y-94446852D01*
X140702800Y-95071045D01*
X140685207Y-95119383D01*
X140640658Y-95145103D01*
X140638444Y-95145459D01*
X140592911Y-95152094D01*
X140487099Y-95203822D01*
X140403822Y-95287099D01*
X140355655Y-95385628D01*
X140318620Y-95421327D01*
X140288096Y-95427800D01*
X139651826Y-95427800D01*
X139603488Y-95410207D01*
X139598652Y-95405774D01*
X137946359Y-93753480D01*
X137946357Y-93753479D01*
X137848149Y-93712800D01*
X137848148Y-93712800D01*
X136915100Y-93712800D01*
X136866762Y-93695207D01*
X136845625Y-93666379D01*
X136778759Y-93504949D01*
X136669004Y-93340688D01*
X136669001Y-93340685D01*
X136668999Y-93340682D01*
X136529317Y-93201000D01*
X136529313Y-93200997D01*
X136529312Y-93200996D01*
X136365051Y-93091241D01*
X136365049Y-93091240D01*
X136182538Y-93015642D01*
X136182537Y-93015641D01*
X135988778Y-92977100D01*
X135988777Y-92977100D01*
X135791223Y-92977100D01*
X135791222Y-92977100D01*
X135597462Y-93015641D01*
X135597461Y-93015642D01*
X135414950Y-93091240D01*
X135250682Y-93201000D01*
X135111000Y-93340682D01*
X135001240Y-93504950D01*
X134925642Y-93687461D01*
X134925641Y-93687462D01*
X134887100Y-93881222D01*
X134137900Y-93881222D01*
X134137900Y-90574942D01*
X134887100Y-90574942D01*
X134887100Y-92305055D01*
X134887101Y-92305057D01*
X134895972Y-92349659D01*
X134929764Y-92400232D01*
X134929765Y-92400232D01*
X134929766Y-92400234D01*
X134980342Y-92434028D01*
X135024943Y-92442900D01*
X136755056Y-92442899D01*
X136799658Y-92434028D01*
X136850234Y-92400234D01*
X136884028Y-92349658D01*
X136892900Y-92305057D01*
X136892900Y-91820500D01*
X136899582Y-91802140D01*
X136902975Y-91782900D01*
X136908171Y-91778539D01*
X136910493Y-91772162D01*
X136927415Y-91762392D01*
X136942380Y-91749835D01*
X136952148Y-91748112D01*
X136955042Y-91746442D01*
X136968100Y-91745300D01*
X137012393Y-91745300D01*
X137060731Y-91762893D01*
X137065555Y-91767314D01*
X137603295Y-92305055D01*
X137757540Y-92459300D01*
X137757545Y-92459304D01*
X137827155Y-92499492D01*
X137827159Y-92499494D01*
X137904807Y-92520300D01*
X140291674Y-92520300D01*
X140340012Y-92537893D01*
X140359231Y-92562471D01*
X140367058Y-92578480D01*
X140408193Y-92662625D01*
X140497372Y-92751804D01*
X140497373Y-92751804D01*
X140497375Y-92751806D01*
X140610681Y-92807198D01*
X140684137Y-92817900D01*
X141255862Y-92817899D01*
X141329319Y-92807198D01*
X141442625Y-92751806D01*
X141531806Y-92662625D01*
X141575692Y-92572854D01*
X141580768Y-92562472D01*
X141617804Y-92526773D01*
X141648327Y-92520300D01*
X142437942Y-92520300D01*
X142486280Y-92537893D01*
X142491116Y-92542326D01*
X142566207Y-92617417D01*
X142566210Y-92617419D01*
X142566212Y-92617421D01*
X142611888Y-92643792D01*
X142680885Y-92683628D01*
X142680887Y-92683628D01*
X142680888Y-92683629D01*
X142808792Y-92717900D01*
X142808794Y-92717900D01*
X142941206Y-92717900D01*
X142941208Y-92717900D01*
X143069112Y-92683629D01*
X143183788Y-92617421D01*
X143183792Y-92617417D01*
X143258884Y-92542326D01*
X143305504Y-92520586D01*
X143312058Y-92520300D01*
X143466674Y-92520300D01*
X143515012Y-92537893D01*
X143534231Y-92562471D01*
X143542058Y-92578480D01*
X143583193Y-92662625D01*
X143672372Y-92751804D01*
X143672373Y-92751804D01*
X143672375Y-92751806D01*
X143785681Y-92807198D01*
X143859137Y-92817900D01*
X144430862Y-92817899D01*
X144504319Y-92807198D01*
X144617625Y-92751806D01*
X144706806Y-92662625D01*
X144762198Y-92549319D01*
X144769457Y-92499494D01*
X144772899Y-92475873D01*
X144772899Y-92475869D01*
X144772900Y-92475863D01*
X144772899Y-91954138D01*
X144762198Y-91880681D01*
X144706806Y-91767375D01*
X144706804Y-91767373D01*
X144706804Y-91767372D01*
X144617627Y-91678195D01*
X144530888Y-91635791D01*
X144504319Y-91622802D01*
X144504318Y-91622801D01*
X144430867Y-91612100D01*
X143859141Y-91612100D01*
X143859136Y-91612101D01*
X143785682Y-91622801D01*
X143785680Y-91622802D01*
X143672372Y-91678195D01*
X143583195Y-91767372D01*
X143534232Y-91867528D01*
X143497196Y-91903227D01*
X143466673Y-91909700D01*
X143312058Y-91909700D01*
X143263720Y-91892107D01*
X143258884Y-91887674D01*
X143183792Y-91812582D01*
X143183786Y-91812578D01*
X143069114Y-91746371D01*
X143005160Y-91729235D01*
X142941208Y-91712100D01*
X142808792Y-91712100D01*
X142776405Y-91720778D01*
X142680885Y-91746371D01*
X142566213Y-91812578D01*
X142566207Y-91812582D01*
X142491116Y-91887674D01*
X142444496Y-91909414D01*
X142437942Y-91909700D01*
X141648326Y-91909700D01*
X141599988Y-91892107D01*
X141580767Y-91867527D01*
X141531806Y-91767374D01*
X141442627Y-91678195D01*
X141355888Y-91635791D01*
X141329319Y-91622802D01*
X141329318Y-91622801D01*
X141255867Y-91612100D01*
X140684141Y-91612100D01*
X140684136Y-91612101D01*
X140610682Y-91622801D01*
X140610680Y-91622802D01*
X140497372Y-91678195D01*
X140408195Y-91767372D01*
X140359232Y-91867528D01*
X140322196Y-91903227D01*
X140291673Y-91909700D01*
X138102608Y-91909700D01*
X138054270Y-91892107D01*
X138049434Y-91887674D01*
X137357459Y-91195699D01*
X137287848Y-91155509D01*
X137287842Y-91155507D01*
X137287841Y-91155506D01*
X137210193Y-91134700D01*
X137210190Y-91134700D01*
X136968099Y-91134700D01*
X136919761Y-91117107D01*
X136894041Y-91072558D01*
X136892899Y-91059500D01*
X136892899Y-90925815D01*
X140342601Y-90925815D01*
X140353287Y-90999173D01*
X140353288Y-90999175D01*
X140408608Y-91112332D01*
X140497667Y-91201391D01*
X140610825Y-91256712D01*
X140684180Y-91267399D01*
X140817600Y-91267399D01*
X141122400Y-91267399D01*
X141255811Y-91267399D01*
X141255815Y-91267398D01*
X141329173Y-91256712D01*
X141329175Y-91256711D01*
X141442332Y-91201391D01*
X141531391Y-91112332D01*
X141586712Y-90999174D01*
X141597399Y-90925825D01*
X141597400Y-90925815D01*
X143517601Y-90925815D01*
X143528287Y-90999173D01*
X143528288Y-90999175D01*
X143583608Y-91112332D01*
X143672667Y-91201391D01*
X143785825Y-91256712D01*
X143859180Y-91267399D01*
X143992600Y-91267399D01*
X144297400Y-91267399D01*
X144430811Y-91267399D01*
X144430815Y-91267398D01*
X144504173Y-91256712D01*
X144504175Y-91256711D01*
X144617332Y-91201391D01*
X144706391Y-91112332D01*
X144761712Y-90999174D01*
X144772399Y-90925825D01*
X144772400Y-90925813D01*
X144772400Y-90817400D01*
X144297400Y-90817400D01*
X144297400Y-91267399D01*
X143992600Y-91267399D01*
X143992600Y-90817400D01*
X143517601Y-90817400D01*
X143517601Y-90925815D01*
X141597400Y-90925815D01*
X141597400Y-90925813D01*
X141597400Y-90817400D01*
X141122400Y-90817400D01*
X141122400Y-91267399D01*
X140817600Y-91267399D01*
X140817600Y-90817400D01*
X140342601Y-90817400D01*
X140342601Y-90925815D01*
X136892899Y-90925815D01*
X136892899Y-90574944D01*
X136892899Y-90574943D01*
X136884028Y-90530342D01*
X136876534Y-90519127D01*
X136850234Y-90479766D01*
X136826625Y-90463991D01*
X136826624Y-90463990D01*
X136799661Y-90445973D01*
X136799656Y-90445971D01*
X136755057Y-90437100D01*
X135024944Y-90437100D01*
X135024942Y-90437101D01*
X134980340Y-90445972D01*
X134929767Y-90479764D01*
X134895972Y-90530342D01*
X134895971Y-90530343D01*
X134887100Y-90574942D01*
X134137900Y-90574942D01*
X134137900Y-90404174D01*
X140342600Y-90404174D01*
X140342600Y-90512600D01*
X140817600Y-90512600D01*
X141122400Y-90512600D01*
X141597399Y-90512600D01*
X141597399Y-90404189D01*
X141597398Y-90404184D01*
X141597397Y-90404174D01*
X143517600Y-90404174D01*
X143517600Y-90512600D01*
X143992600Y-90512600D01*
X144297400Y-90512600D01*
X144772399Y-90512600D01*
X144772399Y-90404189D01*
X144772398Y-90404184D01*
X144761712Y-90330826D01*
X144761711Y-90330824D01*
X144706391Y-90217667D01*
X144617332Y-90128608D01*
X144504174Y-90073287D01*
X144430825Y-90062600D01*
X144297400Y-90062600D01*
X144297400Y-90512600D01*
X143992600Y-90512600D01*
X143992600Y-90062600D01*
X143859189Y-90062600D01*
X143859184Y-90062601D01*
X143785826Y-90073287D01*
X143785824Y-90073288D01*
X143672667Y-90128608D01*
X143583608Y-90217667D01*
X143528287Y-90330825D01*
X143517600Y-90404174D01*
X141597397Y-90404174D01*
X141586712Y-90330826D01*
X141586711Y-90330824D01*
X141531391Y-90217667D01*
X141442332Y-90128608D01*
X141329174Y-90073287D01*
X141255825Y-90062600D01*
X141122400Y-90062600D01*
X141122400Y-90512600D01*
X140817600Y-90512600D01*
X140817600Y-90062600D01*
X140684189Y-90062600D01*
X140684184Y-90062601D01*
X140610826Y-90073287D01*
X140610824Y-90073288D01*
X140497667Y-90128608D01*
X140408608Y-90217667D01*
X140353287Y-90330825D01*
X140342600Y-90404174D01*
X134137900Y-90404174D01*
X134137900Y-90174930D01*
X134138543Y-90165115D01*
X134138543Y-90165114D01*
X134153035Y-90055033D01*
X134158113Y-90036081D01*
X134198703Y-89938088D01*
X134208512Y-89921100D01*
X134273078Y-89836956D01*
X134286958Y-89823077D01*
X134371100Y-89758512D01*
X134388088Y-89748703D01*
X134486081Y-89708113D01*
X134505033Y-89703035D01*
X134615116Y-89688543D01*
X134624931Y-89687900D01*
X134654898Y-89687900D01*
X156175102Y-89687900D01*
X156205069Y-89687900D01*
X156214884Y-89688543D01*
G37*
G04 #@! TD.AperFunction*
G04 #@! TD*
M02*
