G04 #@! TF.GenerationSoftware,KiCad,Pcbnew,9.0.2+dfsg-1*
G04 #@! TF.CreationDate,2025-06-12T17:09:33+08:00*
G04 #@! TF.ProjectId,i2c_led,6932635f-6c65-4642-9e6b-696361645f70,b*
G04 #@! TF.SameCoordinates,Original*
G04 #@! TF.FileFunction,Legend,Bot*
G04 #@! TF.FilePolarity,Positive*
%FSLAX46Y46*%
G04 Gerber Fmt 4.6, Leading zero omitted, Abs format (unit mm)*
G04 Created by KiCad (PCBNEW 9.0.2+dfsg-1) date 2025-06-12 17:09:33*
%MOMM*%
%LPD*%
G01*
G04 APERTURE LIST*
%ADD10C,0.100000*%
%ADD11C,0.120000*%
G04 APERTURE END LIST*
D10*
X155953734Y-91002895D02*
X155953734Y-90202895D01*
X155610878Y-90279085D02*
X155572782Y-90240990D01*
X155572782Y-90240990D02*
X155496592Y-90202895D01*
X155496592Y-90202895D02*
X155306116Y-90202895D01*
X155306116Y-90202895D02*
X155229925Y-90240990D01*
X155229925Y-90240990D02*
X155191830Y-90279085D01*
X155191830Y-90279085D02*
X155153735Y-90355276D01*
X155153735Y-90355276D02*
X155153735Y-90431466D01*
X155153735Y-90431466D02*
X155191830Y-90545752D01*
X155191830Y-90545752D02*
X155648973Y-91002895D01*
X155648973Y-91002895D02*
X155153735Y-91002895D01*
X154353734Y-90926704D02*
X154391830Y-90964800D01*
X154391830Y-90964800D02*
X154506115Y-91002895D01*
X154506115Y-91002895D02*
X154582306Y-91002895D01*
X154582306Y-91002895D02*
X154696592Y-90964800D01*
X154696592Y-90964800D02*
X154772782Y-90888609D01*
X154772782Y-90888609D02*
X154810877Y-90812419D01*
X154810877Y-90812419D02*
X154848973Y-90660038D01*
X154848973Y-90660038D02*
X154848973Y-90545752D01*
X154848973Y-90545752D02*
X154810877Y-90393371D01*
X154810877Y-90393371D02*
X154772782Y-90317180D01*
X154772782Y-90317180D02*
X154696592Y-90240990D01*
X154696592Y-90240990D02*
X154582306Y-90202895D01*
X154582306Y-90202895D02*
X154506115Y-90202895D01*
X154506115Y-90202895D02*
X154391830Y-90240990D01*
X154391830Y-90240990D02*
X154353734Y-90279085D01*
X153020401Y-91002895D02*
X153401353Y-91002895D01*
X153401353Y-91002895D02*
X153401353Y-90202895D01*
X152753734Y-90583847D02*
X152487068Y-90583847D01*
X152372782Y-91002895D02*
X152753734Y-91002895D01*
X152753734Y-91002895D02*
X152753734Y-90202895D01*
X152753734Y-90202895D02*
X152372782Y-90202895D01*
X152029924Y-91002895D02*
X152029924Y-90202895D01*
X152029924Y-90202895D02*
X151839448Y-90202895D01*
X151839448Y-90202895D02*
X151725162Y-90240990D01*
X151725162Y-90240990D02*
X151648972Y-90317180D01*
X151648972Y-90317180D02*
X151610877Y-90393371D01*
X151610877Y-90393371D02*
X151572781Y-90545752D01*
X151572781Y-90545752D02*
X151572781Y-90660038D01*
X151572781Y-90660038D02*
X151610877Y-90812419D01*
X151610877Y-90812419D02*
X151648972Y-90888609D01*
X151648972Y-90888609D02*
X151725162Y-90964800D01*
X151725162Y-90964800D02*
X151839448Y-91002895D01*
X151839448Y-91002895D02*
X152029924Y-91002895D01*
X155953734Y-92290850D02*
X155953734Y-91757516D01*
X155953734Y-91909897D02*
X155915639Y-91833707D01*
X155915639Y-91833707D02*
X155877544Y-91795612D01*
X155877544Y-91795612D02*
X155801353Y-91757516D01*
X155801353Y-91757516D02*
X155725163Y-91757516D01*
X155153734Y-92252755D02*
X155229925Y-92290850D01*
X155229925Y-92290850D02*
X155382306Y-92290850D01*
X155382306Y-92290850D02*
X155458496Y-92252755D01*
X155458496Y-92252755D02*
X155496592Y-92176564D01*
X155496592Y-92176564D02*
X155496592Y-91871802D01*
X155496592Y-91871802D02*
X155458496Y-91795612D01*
X155458496Y-91795612D02*
X155382306Y-91757516D01*
X155382306Y-91757516D02*
X155229925Y-91757516D01*
X155229925Y-91757516D02*
X155153734Y-91795612D01*
X155153734Y-91795612D02*
X155115639Y-91871802D01*
X155115639Y-91871802D02*
X155115639Y-91947993D01*
X155115639Y-91947993D02*
X155496592Y-92024183D01*
X154848973Y-91757516D02*
X154658497Y-92290850D01*
X154658497Y-92290850D02*
X154468020Y-91757516D01*
X154163258Y-92214659D02*
X154125163Y-92252755D01*
X154125163Y-92252755D02*
X154163258Y-92290850D01*
X154163258Y-92290850D02*
X154201354Y-92252755D01*
X154201354Y-92252755D02*
X154163258Y-92214659D01*
X154163258Y-92214659D02*
X154163258Y-92290850D01*
X153172782Y-92290850D02*
X153172782Y-91490850D01*
X153172782Y-91795612D02*
X153096592Y-91757516D01*
X153096592Y-91757516D02*
X152944211Y-91757516D01*
X152944211Y-91757516D02*
X152868020Y-91795612D01*
X152868020Y-91795612D02*
X152829925Y-91833707D01*
X152829925Y-91833707D02*
X152791830Y-91909897D01*
X152791830Y-91909897D02*
X152791830Y-92138469D01*
X152791830Y-92138469D02*
X152829925Y-92214659D01*
X152829925Y-92214659D02*
X152868020Y-92252755D01*
X152868020Y-92252755D02*
X152944211Y-92290850D01*
X152944211Y-92290850D02*
X153096592Y-92290850D01*
X153096592Y-92290850D02*
X153172782Y-92252755D01*
X155991830Y-101458800D02*
X155877544Y-101496895D01*
X155877544Y-101496895D02*
X155687068Y-101496895D01*
X155687068Y-101496895D02*
X155610877Y-101458800D01*
X155610877Y-101458800D02*
X155572782Y-101420704D01*
X155572782Y-101420704D02*
X155534687Y-101344514D01*
X155534687Y-101344514D02*
X155534687Y-101268323D01*
X155534687Y-101268323D02*
X155572782Y-101192133D01*
X155572782Y-101192133D02*
X155610877Y-101154038D01*
X155610877Y-101154038D02*
X155687068Y-101115942D01*
X155687068Y-101115942D02*
X155839449Y-101077847D01*
X155839449Y-101077847D02*
X155915639Y-101039752D01*
X155915639Y-101039752D02*
X155953734Y-101001657D01*
X155953734Y-101001657D02*
X155991830Y-100925466D01*
X155991830Y-100925466D02*
X155991830Y-100849276D01*
X155991830Y-100849276D02*
X155953734Y-100773085D01*
X155953734Y-100773085D02*
X155915639Y-100734990D01*
X155915639Y-100734990D02*
X155839449Y-100696895D01*
X155839449Y-100696895D02*
X155648972Y-100696895D01*
X155648972Y-100696895D02*
X155534687Y-100734990D01*
X155306115Y-100696895D02*
X154848972Y-100696895D01*
X155077544Y-101496895D02*
X155077544Y-100696895D01*
X154582305Y-101496895D02*
X154582305Y-100696895D01*
X154582305Y-100696895D02*
X154315639Y-101268323D01*
X154315639Y-101268323D02*
X154048972Y-100696895D01*
X154048972Y-100696895D02*
X154048972Y-101496895D01*
X153744210Y-100696895D02*
X153248972Y-100696895D01*
X153248972Y-100696895D02*
X153515638Y-101001657D01*
X153515638Y-101001657D02*
X153401353Y-101001657D01*
X153401353Y-101001657D02*
X153325162Y-101039752D01*
X153325162Y-101039752D02*
X153287067Y-101077847D01*
X153287067Y-101077847D02*
X153248972Y-101154038D01*
X153248972Y-101154038D02*
X153248972Y-101344514D01*
X153248972Y-101344514D02*
X153287067Y-101420704D01*
X153287067Y-101420704D02*
X153325162Y-101458800D01*
X153325162Y-101458800D02*
X153401353Y-101496895D01*
X153401353Y-101496895D02*
X153629924Y-101496895D01*
X153629924Y-101496895D02*
X153706115Y-101458800D01*
X153706115Y-101458800D02*
X153744210Y-101420704D01*
X152944210Y-100773085D02*
X152906114Y-100734990D01*
X152906114Y-100734990D02*
X152829924Y-100696895D01*
X152829924Y-100696895D02*
X152639448Y-100696895D01*
X152639448Y-100696895D02*
X152563257Y-100734990D01*
X152563257Y-100734990D02*
X152525162Y-100773085D01*
X152525162Y-100773085D02*
X152487067Y-100849276D01*
X152487067Y-100849276D02*
X152487067Y-100925466D01*
X152487067Y-100925466D02*
X152525162Y-101039752D01*
X152525162Y-101039752D02*
X152982305Y-101496895D01*
X152982305Y-101496895D02*
X152487067Y-101496895D01*
X152220400Y-100696895D02*
X152029924Y-101496895D01*
X152029924Y-101496895D02*
X151877543Y-100925466D01*
X151877543Y-100925466D02*
X151725162Y-101496895D01*
X151725162Y-101496895D02*
X151534686Y-100696895D01*
X151115638Y-101496895D02*
X151191828Y-101458800D01*
X151191828Y-101458800D02*
X151229923Y-101420704D01*
X151229923Y-101420704D02*
X151268019Y-101344514D01*
X151268019Y-101344514D02*
X151268019Y-101115942D01*
X151268019Y-101115942D02*
X151229923Y-101039752D01*
X151229923Y-101039752D02*
X151191828Y-101001657D01*
X151191828Y-101001657D02*
X151115638Y-100963561D01*
X151115638Y-100963561D02*
X151001352Y-100963561D01*
X151001352Y-100963561D02*
X150925161Y-101001657D01*
X150925161Y-101001657D02*
X150887066Y-101039752D01*
X150887066Y-101039752D02*
X150848971Y-101115942D01*
X150848971Y-101115942D02*
X150848971Y-101344514D01*
X150848971Y-101344514D02*
X150887066Y-101420704D01*
X150887066Y-101420704D02*
X150925161Y-101458800D01*
X150925161Y-101458800D02*
X151001352Y-101496895D01*
X151001352Y-101496895D02*
X151115638Y-101496895D01*
X150506113Y-101496895D02*
X150506113Y-100963561D01*
X150506113Y-101115942D02*
X150468018Y-101039752D01*
X150468018Y-101039752D02*
X150429923Y-101001657D01*
X150429923Y-101001657D02*
X150353732Y-100963561D01*
X150353732Y-100963561D02*
X150277542Y-100963561D01*
X149896590Y-101496895D02*
X149972780Y-101458800D01*
X149972780Y-101458800D02*
X150010875Y-101382609D01*
X150010875Y-101382609D02*
X150010875Y-100696895D01*
X149248970Y-101496895D02*
X149248970Y-100696895D01*
X149248970Y-101458800D02*
X149325161Y-101496895D01*
X149325161Y-101496895D02*
X149477542Y-101496895D01*
X149477542Y-101496895D02*
X149553732Y-101458800D01*
X149553732Y-101458800D02*
X149591827Y-101420704D01*
X149591827Y-101420704D02*
X149629923Y-101344514D01*
X149629923Y-101344514D02*
X149629923Y-101115942D01*
X149629923Y-101115942D02*
X149591827Y-101039752D01*
X149591827Y-101039752D02*
X149553732Y-101001657D01*
X149553732Y-101001657D02*
X149477542Y-100963561D01*
X149477542Y-100963561D02*
X149325161Y-100963561D01*
X149325161Y-100963561D02*
X149248970Y-101001657D01*
X137992895Y-98621905D02*
X137611942Y-98355238D01*
X137992895Y-98164762D02*
X137192895Y-98164762D01*
X137192895Y-98164762D02*
X137192895Y-98469524D01*
X137192895Y-98469524D02*
X137230990Y-98545714D01*
X137230990Y-98545714D02*
X137269085Y-98583809D01*
X137269085Y-98583809D02*
X137345276Y-98621905D01*
X137345276Y-98621905D02*
X137459561Y-98621905D01*
X137459561Y-98621905D02*
X137535752Y-98583809D01*
X137535752Y-98583809D02*
X137573847Y-98545714D01*
X137573847Y-98545714D02*
X137611942Y-98469524D01*
X137611942Y-98469524D02*
X137611942Y-98164762D01*
X137954800Y-98926666D02*
X137992895Y-99040952D01*
X137992895Y-99040952D02*
X137992895Y-99231428D01*
X137992895Y-99231428D02*
X137954800Y-99307619D01*
X137954800Y-99307619D02*
X137916704Y-99345714D01*
X137916704Y-99345714D02*
X137840514Y-99383809D01*
X137840514Y-99383809D02*
X137764323Y-99383809D01*
X137764323Y-99383809D02*
X137688133Y-99345714D01*
X137688133Y-99345714D02*
X137650038Y-99307619D01*
X137650038Y-99307619D02*
X137611942Y-99231428D01*
X137611942Y-99231428D02*
X137573847Y-99079047D01*
X137573847Y-99079047D02*
X137535752Y-99002857D01*
X137535752Y-99002857D02*
X137497657Y-98964762D01*
X137497657Y-98964762D02*
X137421466Y-98926666D01*
X137421466Y-98926666D02*
X137345276Y-98926666D01*
X137345276Y-98926666D02*
X137269085Y-98964762D01*
X137269085Y-98964762D02*
X137230990Y-99002857D01*
X137230990Y-99002857D02*
X137192895Y-99079047D01*
X137192895Y-99079047D02*
X137192895Y-99269524D01*
X137192895Y-99269524D02*
X137230990Y-99383809D01*
X137192895Y-99612381D02*
X137192895Y-100069524D01*
X137992895Y-99840952D02*
X137192895Y-99840952D01*
X137954800Y-93027618D02*
X137992895Y-93141904D01*
X137992895Y-93141904D02*
X137992895Y-93332380D01*
X137992895Y-93332380D02*
X137954800Y-93408571D01*
X137954800Y-93408571D02*
X137916704Y-93446666D01*
X137916704Y-93446666D02*
X137840514Y-93484761D01*
X137840514Y-93484761D02*
X137764323Y-93484761D01*
X137764323Y-93484761D02*
X137688133Y-93446666D01*
X137688133Y-93446666D02*
X137650038Y-93408571D01*
X137650038Y-93408571D02*
X137611942Y-93332380D01*
X137611942Y-93332380D02*
X137573847Y-93179999D01*
X137573847Y-93179999D02*
X137535752Y-93103809D01*
X137535752Y-93103809D02*
X137497657Y-93065714D01*
X137497657Y-93065714D02*
X137421466Y-93027618D01*
X137421466Y-93027618D02*
X137345276Y-93027618D01*
X137345276Y-93027618D02*
X137269085Y-93065714D01*
X137269085Y-93065714D02*
X137230990Y-93103809D01*
X137230990Y-93103809D02*
X137192895Y-93179999D01*
X137192895Y-93179999D02*
X137192895Y-93370476D01*
X137192895Y-93370476D02*
X137230990Y-93484761D01*
X137916704Y-94284762D02*
X137954800Y-94246666D01*
X137954800Y-94246666D02*
X137992895Y-94132381D01*
X137992895Y-94132381D02*
X137992895Y-94056190D01*
X137992895Y-94056190D02*
X137954800Y-93941904D01*
X137954800Y-93941904D02*
X137878609Y-93865714D01*
X137878609Y-93865714D02*
X137802419Y-93827619D01*
X137802419Y-93827619D02*
X137650038Y-93789523D01*
X137650038Y-93789523D02*
X137535752Y-93789523D01*
X137535752Y-93789523D02*
X137383371Y-93827619D01*
X137383371Y-93827619D02*
X137307180Y-93865714D01*
X137307180Y-93865714D02*
X137230990Y-93941904D01*
X137230990Y-93941904D02*
X137192895Y-94056190D01*
X137192895Y-94056190D02*
X137192895Y-94132381D01*
X137192895Y-94132381D02*
X137230990Y-94246666D01*
X137230990Y-94246666D02*
X137269085Y-94284762D01*
X137992895Y-95008571D02*
X137992895Y-94627619D01*
X137992895Y-94627619D02*
X137192895Y-94627619D01*
X137230990Y-100990476D02*
X137192895Y-100914286D01*
X137192895Y-100914286D02*
X137192895Y-100800000D01*
X137192895Y-100800000D02*
X137230990Y-100685714D01*
X137230990Y-100685714D02*
X137307180Y-100609524D01*
X137307180Y-100609524D02*
X137383371Y-100571429D01*
X137383371Y-100571429D02*
X137535752Y-100533333D01*
X137535752Y-100533333D02*
X137650038Y-100533333D01*
X137650038Y-100533333D02*
X137802419Y-100571429D01*
X137802419Y-100571429D02*
X137878609Y-100609524D01*
X137878609Y-100609524D02*
X137954800Y-100685714D01*
X137954800Y-100685714D02*
X137992895Y-100800000D01*
X137992895Y-100800000D02*
X137992895Y-100876191D01*
X137992895Y-100876191D02*
X137954800Y-100990476D01*
X137954800Y-100990476D02*
X137916704Y-101028572D01*
X137916704Y-101028572D02*
X137650038Y-101028572D01*
X137650038Y-101028572D02*
X137650038Y-100876191D01*
X137992895Y-101371429D02*
X137192895Y-101371429D01*
X137192895Y-101371429D02*
X137992895Y-101828572D01*
X137992895Y-101828572D02*
X137192895Y-101828572D01*
X137992895Y-102209524D02*
X137192895Y-102209524D01*
X137192895Y-102209524D02*
X137192895Y-102400000D01*
X137192895Y-102400000D02*
X137230990Y-102514286D01*
X137230990Y-102514286D02*
X137307180Y-102590476D01*
X137307180Y-102590476D02*
X137383371Y-102628571D01*
X137383371Y-102628571D02*
X137535752Y-102666667D01*
X137535752Y-102666667D02*
X137650038Y-102666667D01*
X137650038Y-102666667D02*
X137802419Y-102628571D01*
X137802419Y-102628571D02*
X137878609Y-102590476D01*
X137878609Y-102590476D02*
X137954800Y-102514286D01*
X137954800Y-102514286D02*
X137992895Y-102400000D01*
X137992895Y-102400000D02*
X137992895Y-102209524D01*
X155725163Y-101966895D02*
X155725163Y-102538323D01*
X155725163Y-102538323D02*
X155763258Y-102652609D01*
X155763258Y-102652609D02*
X155839449Y-102728800D01*
X155839449Y-102728800D02*
X155953734Y-102766895D01*
X155953734Y-102766895D02*
X156029925Y-102766895D01*
X154963258Y-102766895D02*
X155344210Y-102766895D01*
X155344210Y-102766895D02*
X155344210Y-101966895D01*
X154239448Y-102690704D02*
X154277544Y-102728800D01*
X154277544Y-102728800D02*
X154391829Y-102766895D01*
X154391829Y-102766895D02*
X154468020Y-102766895D01*
X154468020Y-102766895D02*
X154582306Y-102728800D01*
X154582306Y-102728800D02*
X154658496Y-102652609D01*
X154658496Y-102652609D02*
X154696591Y-102576419D01*
X154696591Y-102576419D02*
X154734687Y-102424038D01*
X154734687Y-102424038D02*
X154734687Y-102309752D01*
X154734687Y-102309752D02*
X154696591Y-102157371D01*
X154696591Y-102157371D02*
X154658496Y-102081180D01*
X154658496Y-102081180D02*
X154582306Y-102004990D01*
X154582306Y-102004990D02*
X154468020Y-101966895D01*
X154468020Y-101966895D02*
X154391829Y-101966895D01*
X154391829Y-101966895D02*
X154277544Y-102004990D01*
X154277544Y-102004990D02*
X154239448Y-102043085D01*
X153668020Y-101966895D02*
X153668020Y-102538323D01*
X153668020Y-102538323D02*
X153706115Y-102652609D01*
X153706115Y-102652609D02*
X153782306Y-102728800D01*
X153782306Y-102728800D02*
X153896591Y-102766895D01*
X153896591Y-102766895D02*
X153972782Y-102766895D01*
X152906115Y-102766895D02*
X153287067Y-102766895D01*
X153287067Y-102766895D02*
X153287067Y-101966895D01*
X152182305Y-102690704D02*
X152220401Y-102728800D01*
X152220401Y-102728800D02*
X152334686Y-102766895D01*
X152334686Y-102766895D02*
X152410877Y-102766895D01*
X152410877Y-102766895D02*
X152525163Y-102728800D01*
X152525163Y-102728800D02*
X152601353Y-102652609D01*
X152601353Y-102652609D02*
X152639448Y-102576419D01*
X152639448Y-102576419D02*
X152677544Y-102424038D01*
X152677544Y-102424038D02*
X152677544Y-102309752D01*
X152677544Y-102309752D02*
X152639448Y-102157371D01*
X152639448Y-102157371D02*
X152601353Y-102081180D01*
X152601353Y-102081180D02*
X152525163Y-102004990D01*
X152525163Y-102004990D02*
X152410877Y-101966895D01*
X152410877Y-101966895D02*
X152334686Y-101966895D01*
X152334686Y-101966895D02*
X152220401Y-102004990D01*
X152220401Y-102004990D02*
X152182305Y-102043085D01*
X151610877Y-101966895D02*
X151610877Y-102538323D01*
X151610877Y-102538323D02*
X151648972Y-102652609D01*
X151648972Y-102652609D02*
X151725163Y-102728800D01*
X151725163Y-102728800D02*
X151839448Y-102766895D01*
X151839448Y-102766895D02*
X151915639Y-102766895D01*
X150848972Y-102766895D02*
X151229924Y-102766895D01*
X151229924Y-102766895D02*
X151229924Y-101966895D01*
X150125162Y-102690704D02*
X150163258Y-102728800D01*
X150163258Y-102728800D02*
X150277543Y-102766895D01*
X150277543Y-102766895D02*
X150353734Y-102766895D01*
X150353734Y-102766895D02*
X150468020Y-102728800D01*
X150468020Y-102728800D02*
X150544210Y-102652609D01*
X150544210Y-102652609D02*
X150582305Y-102576419D01*
X150582305Y-102576419D02*
X150620401Y-102424038D01*
X150620401Y-102424038D02*
X150620401Y-102309752D01*
X150620401Y-102309752D02*
X150582305Y-102157371D01*
X150582305Y-102157371D02*
X150544210Y-102081180D01*
X150544210Y-102081180D02*
X150468020Y-102004990D01*
X150468020Y-102004990D02*
X150353734Y-101966895D01*
X150353734Y-101966895D02*
X150277543Y-101966895D01*
X150277543Y-101966895D02*
X150163258Y-102004990D01*
X150163258Y-102004990D02*
X150125162Y-102043085D01*
X149553734Y-101966895D02*
X149553734Y-102538323D01*
X149553734Y-102538323D02*
X149591829Y-102652609D01*
X149591829Y-102652609D02*
X149668020Y-102728800D01*
X149668020Y-102728800D02*
X149782305Y-102766895D01*
X149782305Y-102766895D02*
X149858496Y-102766895D01*
X148791829Y-102766895D02*
X149172781Y-102766895D01*
X149172781Y-102766895D02*
X149172781Y-101966895D01*
X148068019Y-102690704D02*
X148106115Y-102728800D01*
X148106115Y-102728800D02*
X148220400Y-102766895D01*
X148220400Y-102766895D02*
X148296591Y-102766895D01*
X148296591Y-102766895D02*
X148410877Y-102728800D01*
X148410877Y-102728800D02*
X148487067Y-102652609D01*
X148487067Y-102652609D02*
X148525162Y-102576419D01*
X148525162Y-102576419D02*
X148563258Y-102424038D01*
X148563258Y-102424038D02*
X148563258Y-102309752D01*
X148563258Y-102309752D02*
X148525162Y-102157371D01*
X148525162Y-102157371D02*
X148487067Y-102081180D01*
X148487067Y-102081180D02*
X148410877Y-102004990D01*
X148410877Y-102004990D02*
X148296591Y-101966895D01*
X148296591Y-101966895D02*
X148220400Y-101966895D01*
X148220400Y-101966895D02*
X148106115Y-102004990D01*
X148106115Y-102004990D02*
X148068019Y-102043085D01*
X137954800Y-95548571D02*
X137992895Y-95662857D01*
X137992895Y-95662857D02*
X137992895Y-95853333D01*
X137992895Y-95853333D02*
X137954800Y-95929524D01*
X137954800Y-95929524D02*
X137916704Y-95967619D01*
X137916704Y-95967619D02*
X137840514Y-96005714D01*
X137840514Y-96005714D02*
X137764323Y-96005714D01*
X137764323Y-96005714D02*
X137688133Y-95967619D01*
X137688133Y-95967619D02*
X137650038Y-95929524D01*
X137650038Y-95929524D02*
X137611942Y-95853333D01*
X137611942Y-95853333D02*
X137573847Y-95700952D01*
X137573847Y-95700952D02*
X137535752Y-95624762D01*
X137535752Y-95624762D02*
X137497657Y-95586667D01*
X137497657Y-95586667D02*
X137421466Y-95548571D01*
X137421466Y-95548571D02*
X137345276Y-95548571D01*
X137345276Y-95548571D02*
X137269085Y-95586667D01*
X137269085Y-95586667D02*
X137230990Y-95624762D01*
X137230990Y-95624762D02*
X137192895Y-95700952D01*
X137192895Y-95700952D02*
X137192895Y-95891429D01*
X137192895Y-95891429D02*
X137230990Y-96005714D01*
X137992895Y-96348572D02*
X137192895Y-96348572D01*
X137192895Y-96348572D02*
X137192895Y-96539048D01*
X137192895Y-96539048D02*
X137230990Y-96653334D01*
X137230990Y-96653334D02*
X137307180Y-96729524D01*
X137307180Y-96729524D02*
X137383371Y-96767619D01*
X137383371Y-96767619D02*
X137535752Y-96805715D01*
X137535752Y-96805715D02*
X137650038Y-96805715D01*
X137650038Y-96805715D02*
X137802419Y-96767619D01*
X137802419Y-96767619D02*
X137878609Y-96729524D01*
X137878609Y-96729524D02*
X137954800Y-96653334D01*
X137954800Y-96653334D02*
X137992895Y-96539048D01*
X137992895Y-96539048D02*
X137992895Y-96348572D01*
X137764323Y-97110476D02*
X137764323Y-97491429D01*
X137992895Y-97034286D02*
X137192895Y-97300953D01*
X137192895Y-97300953D02*
X137992895Y-97567619D01*
X137192895Y-90373333D02*
X137992895Y-90640000D01*
X137992895Y-90640000D02*
X137192895Y-90906666D01*
X137916704Y-91630476D02*
X137954800Y-91592380D01*
X137954800Y-91592380D02*
X137992895Y-91478095D01*
X137992895Y-91478095D02*
X137992895Y-91401904D01*
X137992895Y-91401904D02*
X137954800Y-91287618D01*
X137954800Y-91287618D02*
X137878609Y-91211428D01*
X137878609Y-91211428D02*
X137802419Y-91173333D01*
X137802419Y-91173333D02*
X137650038Y-91135237D01*
X137650038Y-91135237D02*
X137535752Y-91135237D01*
X137535752Y-91135237D02*
X137383371Y-91173333D01*
X137383371Y-91173333D02*
X137307180Y-91211428D01*
X137307180Y-91211428D02*
X137230990Y-91287618D01*
X137230990Y-91287618D02*
X137192895Y-91401904D01*
X137192895Y-91401904D02*
X137192895Y-91478095D01*
X137192895Y-91478095D02*
X137230990Y-91592380D01*
X137230990Y-91592380D02*
X137269085Y-91630476D01*
X137916704Y-92430476D02*
X137954800Y-92392380D01*
X137954800Y-92392380D02*
X137992895Y-92278095D01*
X137992895Y-92278095D02*
X137992895Y-92201904D01*
X137992895Y-92201904D02*
X137954800Y-92087618D01*
X137954800Y-92087618D02*
X137878609Y-92011428D01*
X137878609Y-92011428D02*
X137802419Y-91973333D01*
X137802419Y-91973333D02*
X137650038Y-91935237D01*
X137650038Y-91935237D02*
X137535752Y-91935237D01*
X137535752Y-91935237D02*
X137383371Y-91973333D01*
X137383371Y-91973333D02*
X137307180Y-92011428D01*
X137307180Y-92011428D02*
X137230990Y-92087618D01*
X137230990Y-92087618D02*
X137192895Y-92201904D01*
X137192895Y-92201904D02*
X137192895Y-92278095D01*
X137192895Y-92278095D02*
X137230990Y-92392380D01*
X137230990Y-92392380D02*
X137269085Y-92430476D01*
X143211428Y-98666323D02*
X142830475Y-98666323D01*
X143287618Y-98894895D02*
X143020951Y-98094895D01*
X143020951Y-98094895D02*
X142754285Y-98894895D01*
X142487618Y-98894895D02*
X142487618Y-98094895D01*
X142487618Y-98094895D02*
X142297142Y-98094895D01*
X142297142Y-98094895D02*
X142182856Y-98132990D01*
X142182856Y-98132990D02*
X142106666Y-98209180D01*
X142106666Y-98209180D02*
X142068571Y-98285371D01*
X142068571Y-98285371D02*
X142030475Y-98437752D01*
X142030475Y-98437752D02*
X142030475Y-98552038D01*
X142030475Y-98552038D02*
X142068571Y-98704419D01*
X142068571Y-98704419D02*
X142106666Y-98780609D01*
X142106666Y-98780609D02*
X142182856Y-98856800D01*
X142182856Y-98856800D02*
X142297142Y-98894895D01*
X142297142Y-98894895D02*
X142487618Y-98894895D01*
X141268571Y-98894895D02*
X141725714Y-98894895D01*
X141497142Y-98894895D02*
X141497142Y-98094895D01*
X141497142Y-98094895D02*
X141573333Y-98209180D01*
X141573333Y-98209180D02*
X141649523Y-98285371D01*
X141649523Y-98285371D02*
X141725714Y-98323466D01*
X143211428Y-93586323D02*
X142830475Y-93586323D01*
X143287618Y-93814895D02*
X143020951Y-93014895D01*
X143020951Y-93014895D02*
X142754285Y-93814895D01*
X142487618Y-93814895D02*
X142487618Y-93014895D01*
X142487618Y-93014895D02*
X142297142Y-93014895D01*
X142297142Y-93014895D02*
X142182856Y-93052990D01*
X142182856Y-93052990D02*
X142106666Y-93129180D01*
X142106666Y-93129180D02*
X142068571Y-93205371D01*
X142068571Y-93205371D02*
X142030475Y-93357752D01*
X142030475Y-93357752D02*
X142030475Y-93472038D01*
X142030475Y-93472038D02*
X142068571Y-93624419D01*
X142068571Y-93624419D02*
X142106666Y-93700609D01*
X142106666Y-93700609D02*
X142182856Y-93776800D01*
X142182856Y-93776800D02*
X142297142Y-93814895D01*
X142297142Y-93814895D02*
X142487618Y-93814895D01*
X141535237Y-93014895D02*
X141459047Y-93014895D01*
X141459047Y-93014895D02*
X141382856Y-93052990D01*
X141382856Y-93052990D02*
X141344761Y-93091085D01*
X141344761Y-93091085D02*
X141306666Y-93167276D01*
X141306666Y-93167276D02*
X141268571Y-93319657D01*
X141268571Y-93319657D02*
X141268571Y-93510133D01*
X141268571Y-93510133D02*
X141306666Y-93662514D01*
X141306666Y-93662514D02*
X141344761Y-93738704D01*
X141344761Y-93738704D02*
X141382856Y-93776800D01*
X141382856Y-93776800D02*
X141459047Y-93814895D01*
X141459047Y-93814895D02*
X141535237Y-93814895D01*
X141535237Y-93814895D02*
X141611428Y-93776800D01*
X141611428Y-93776800D02*
X141649523Y-93738704D01*
X141649523Y-93738704D02*
X141687618Y-93662514D01*
X141687618Y-93662514D02*
X141725714Y-93510133D01*
X141725714Y-93510133D02*
X141725714Y-93319657D01*
X141725714Y-93319657D02*
X141687618Y-93167276D01*
X141687618Y-93167276D02*
X141649523Y-93091085D01*
X141649523Y-93091085D02*
X141611428Y-93052990D01*
X141611428Y-93052990D02*
X141535237Y-93014895D01*
D11*
G04 #@! TO.C,AD1*
X140190000Y-100030000D02*
X140190000Y-100630000D01*
X140840000Y-101330000D02*
X143640000Y-101330000D01*
X143440000Y-101530000D02*
X143140000Y-101830000D01*
X143440000Y-101530000D02*
X143740000Y-101830000D01*
X143640000Y-99330000D02*
X140840000Y-99330000D01*
X143740000Y-101830000D02*
X143140000Y-101830000D01*
X144290000Y-100630000D02*
X144290000Y-100030000D01*
X140190000Y-100030000D02*
G75*
G02*
X140890000Y-99330000I700000J0D01*
G01*
X140890000Y-101330000D02*
G75*
G02*
X140190000Y-100630000I0J700000D01*
G01*
X143590000Y-99330000D02*
G75*
G02*
X144290000Y-100030000I1J-699999D01*
G01*
X144290000Y-100630000D02*
G75*
G02*
X143590000Y-101330000I-699999J-1D01*
G01*
G04 #@! TO.C,AD0*
X140190000Y-94950000D02*
X140190000Y-95550000D01*
X140840000Y-96250000D02*
X143640000Y-96250000D01*
X143440000Y-96450000D02*
X143140000Y-96750000D01*
X143440000Y-96450000D02*
X143740000Y-96750000D01*
X143640000Y-94250000D02*
X140840000Y-94250000D01*
X143740000Y-96750000D02*
X143140000Y-96750000D01*
X144290000Y-95550000D02*
X144290000Y-94950000D01*
X140190000Y-94950000D02*
G75*
G02*
X140890000Y-94250000I700000J0D01*
G01*
X140890000Y-96250000D02*
G75*
G02*
X140190000Y-95550000I0J700000D01*
G01*
X143590000Y-94250000D02*
G75*
G02*
X144290000Y-94950000I1J-699999D01*
G01*
X144290000Y-95550000D02*
G75*
G02*
X143590000Y-96250000I-699999J-1D01*
G01*
G04 #@! TD*
M02*
