M48
; DRILL file {KiCad 9.0.2+dfsg-1} date 2025-06-12T17:09:20+0800
; FORMAT={-:-/ absolute / metric / decimal}
; #@! TF.CreationDate,2025-06-12T17:09:20+08:00
; #@! TF.GenerationSoftware,Kicad,Pcbnew,9.0.2+dfsg-1
; #@! TF.FileFunction,Plated,1,4,PTH
FMAT,2
METRIC
; #@! TA.AperFunction,Plated,PTH,ViaDrill
T1C0.350
; #@! TA.AperFunction,Plated,PTH,ComponentDrill
T2C1.000
%
G90
G05
T1
X139.065Y-98.425
X139.065Y-102.235
X139.7Y-90.805
X139.7Y-93.345
X140.97Y-98.425
X142.875Y-90.805
X142.875Y-92.215
X144.145Y-98.425
X145.415Y-94.615
X145.415Y-96.52
X145.415Y-97.79
X146.05Y-90.805
X146.05Y-92.075
X146.05Y-100.965
X147.32Y-94.615
X147.32Y-98.425
X147.32Y-99.695
X147.32Y-102.235
X147.955Y-92.71
X149.225Y-96.52
X151.13Y-101.6
X151.765Y-90.805
X152.4Y-100.33
X153.035Y-95.885
X153.67Y-102.235
X154.305Y-92.71
X154.305Y-97.79
X154.305Y-99.695
X155.575Y-92.71
X155.575Y-98.425
T2
X135.89Y-91.44
X135.89Y-93.98
X135.89Y-96.52
X135.89Y-99.06
X135.89Y-101.6
M30
