G04 #@! TF.GenerationSoftware,KiCad,Pcbnew,9.0.2+dfsg-1*
G04 #@! TF.CreationDate,2025-06-12T17:09:33+08:00*
G04 #@! TF.ProjectId,i2c_led,6932635f-6c65-4642-9e6b-696361645f70,b*
G04 #@! TF.SameCoordinates,Original*
G04 #@! TF.FileFunction,Copper,L2,Inr*
G04 #@! TF.FilePolarity,Positive*
%FSLAX46Y46*%
G04 Gerber Fmt 4.6, Leading zero omitted, Abs format (unit mm)*
G04 Created by KiCad (PCBNEW 9.0.2+dfsg-1) date 2025-06-12 17:09:33*
%MOMM*%
%LPD*%
G01*
G04 APERTURE LIST*
G04 #@! TA.AperFunction,ComponentPad*
%ADD10R,1.700000X1.700000*%
G04 #@! TD*
G04 #@! TA.AperFunction,ComponentPad*
%ADD11C,1.700000*%
G04 #@! TD*
G04 #@! TA.AperFunction,ViaPad*
%ADD12C,0.700000*%
G04 #@! TD*
G04 APERTURE END LIST*
D10*
G04 #@! TO.N,VCC*
G04 #@! TO.C,J1*
X135890000Y-91440000D03*
D11*
G04 #@! TO.N,/SCL*
X135890000Y-93980000D03*
G04 #@! TO.N,/SDA*
X135890000Y-96520000D03*
G04 #@! TO.N,/RSTN*
X135890000Y-99060000D03*
G04 #@! TO.N,GND*
X135890000Y-101600000D03*
G04 #@! TD*
D12*
G04 #@! TO.N,GND*
X151130000Y-101600000D03*
X149225000Y-96520000D03*
X145415000Y-97790000D03*
X139700000Y-90805000D03*
X151765000Y-90805000D03*
X142875000Y-90805000D03*
X139065000Y-102235000D03*
X153035000Y-95885000D03*
X155575000Y-98425000D03*
X146050000Y-100965000D03*
X146050000Y-90805000D03*
X139065000Y-98425000D03*
X139700000Y-93345000D03*
X146050000Y-92075000D03*
X152400000Y-100330000D03*
X154305000Y-99695000D03*
X145415000Y-94615000D03*
G04 #@! TO.N,VCC*
X145415000Y-96520000D03*
X140970000Y-98425000D03*
X154305000Y-92710000D03*
X147955000Y-92710000D03*
X154305000Y-97790000D03*
X153670000Y-102235000D03*
X142875000Y-92215000D03*
X144145000Y-98425000D03*
X147320000Y-102235000D03*
G04 #@! TO.N,Net-(D3-BK)*
X147320000Y-99695000D03*
X155575000Y-92710000D03*
G04 #@! TO.N,AD0*
X147320000Y-94615000D03*
G04 #@! TO.N,AD1*
X147320000Y-98425000D03*
G04 #@! TD*
G04 #@! TA.AperFunction,Conductor*
G04 #@! TO.N,VCC*
G36*
X156214884Y-89688543D02*
G01*
X156324964Y-89703035D01*
X156343920Y-89708114D01*
X156441907Y-89748702D01*
X156458902Y-89758514D01*
X156500973Y-89790796D01*
X156543041Y-89823077D01*
X156556922Y-89836958D01*
X156621483Y-89921094D01*
X156631299Y-89938095D01*
X156671884Y-90036076D01*
X156676965Y-90055038D01*
X156691457Y-90165114D01*
X156692100Y-90174930D01*
X156692100Y-102865069D01*
X156691457Y-102874884D01*
X156691457Y-102874885D01*
X156676965Y-102984961D01*
X156671884Y-103003923D01*
X156631299Y-103101904D01*
X156621483Y-103118905D01*
X156556922Y-103203041D01*
X156543041Y-103216922D01*
X156458905Y-103281483D01*
X156441904Y-103291299D01*
X156343923Y-103331884D01*
X156324961Y-103336965D01*
X156246437Y-103347302D01*
X156214883Y-103351457D01*
X156205069Y-103352100D01*
X134624931Y-103352100D01*
X134615116Y-103351457D01*
X134568046Y-103345260D01*
X134505038Y-103336965D01*
X134486076Y-103331884D01*
X134388095Y-103291299D01*
X134371094Y-103281483D01*
X134286958Y-103216922D01*
X134273077Y-103203041D01*
X134208516Y-103118905D01*
X134198702Y-103101907D01*
X134158114Y-103003920D01*
X134153035Y-102984964D01*
X134138543Y-102874884D01*
X134137900Y-102865069D01*
X134137900Y-101501222D01*
X134887100Y-101501222D01*
X134887100Y-101698777D01*
X134925641Y-101892537D01*
X134925642Y-101892538D01*
X134998581Y-102068629D01*
X135001241Y-102075051D01*
X135110996Y-102239312D01*
X135110997Y-102239313D01*
X135111000Y-102239317D01*
X135250682Y-102378999D01*
X135250685Y-102379001D01*
X135250688Y-102379004D01*
X135414949Y-102488759D01*
X135597461Y-102564357D01*
X135597462Y-102564358D01*
X135597463Y-102564358D01*
X135597465Y-102564359D01*
X135727218Y-102590168D01*
X135791222Y-102602900D01*
X135791223Y-102602900D01*
X135988778Y-102602900D01*
X136036889Y-102593329D01*
X136182535Y-102564359D01*
X136365051Y-102488759D01*
X136529312Y-102379004D01*
X136669004Y-102239312D01*
X136716124Y-102168792D01*
X138562100Y-102168792D01*
X138562100Y-102301208D01*
X138582662Y-102377950D01*
X138596371Y-102429114D01*
X138662578Y-102543786D01*
X138662582Y-102543792D01*
X138756207Y-102637417D01*
X138756210Y-102637419D01*
X138756212Y-102637421D01*
X138806775Y-102666613D01*
X138870885Y-102703628D01*
X138870887Y-102703628D01*
X138870888Y-102703629D01*
X138998792Y-102737900D01*
X138998794Y-102737900D01*
X139131206Y-102737900D01*
X139131208Y-102737900D01*
X139259112Y-102703629D01*
X139373788Y-102637421D01*
X139467421Y-102543788D01*
X139533629Y-102429112D01*
X139567900Y-102301208D01*
X139567900Y-102168792D01*
X139533629Y-102040888D01*
X139533628Y-102040887D01*
X139533628Y-102040885D01*
X139496613Y-101976775D01*
X139467421Y-101926212D01*
X139467419Y-101926210D01*
X139467417Y-101926207D01*
X139373792Y-101832582D01*
X139373786Y-101832578D01*
X139259114Y-101766371D01*
X139195160Y-101749235D01*
X139131208Y-101732100D01*
X138998792Y-101732100D01*
X138947630Y-101745808D01*
X138870885Y-101766371D01*
X138756213Y-101832578D01*
X138756207Y-101832582D01*
X138662582Y-101926207D01*
X138662578Y-101926213D01*
X138596371Y-102040885D01*
X138587217Y-102075051D01*
X138562100Y-102168792D01*
X136716124Y-102168792D01*
X136778759Y-102075051D01*
X136854359Y-101892535D01*
X136892900Y-101698777D01*
X136892900Y-101533792D01*
X150627100Y-101533792D01*
X150627100Y-101666208D01*
X150635827Y-101698777D01*
X150661371Y-101794114D01*
X150727578Y-101908786D01*
X150727582Y-101908792D01*
X150821207Y-102002417D01*
X150821210Y-102002419D01*
X150821212Y-102002421D01*
X150871775Y-102031613D01*
X150935885Y-102068628D01*
X150935887Y-102068628D01*
X150935888Y-102068629D01*
X151063792Y-102102900D01*
X151063794Y-102102900D01*
X151196206Y-102102900D01*
X151196208Y-102102900D01*
X151324112Y-102068629D01*
X151438788Y-102002421D01*
X151532421Y-101908788D01*
X151598629Y-101794112D01*
X151632900Y-101666208D01*
X151632900Y-101533792D01*
X151598629Y-101405888D01*
X151598628Y-101405887D01*
X151598628Y-101405885D01*
X151561613Y-101341775D01*
X151532421Y-101291212D01*
X151532419Y-101291210D01*
X151532417Y-101291207D01*
X151438792Y-101197582D01*
X151438786Y-101197578D01*
X151324114Y-101131371D01*
X151260160Y-101114235D01*
X151196208Y-101097100D01*
X151063792Y-101097100D01*
X151012630Y-101110808D01*
X150935885Y-101131371D01*
X150821213Y-101197578D01*
X150821207Y-101197582D01*
X150727582Y-101291207D01*
X150727578Y-101291213D01*
X150661371Y-101405885D01*
X150647883Y-101456226D01*
X150627100Y-101533792D01*
X136892900Y-101533792D01*
X136892900Y-101501223D01*
X136854359Y-101307465D01*
X136778759Y-101124949D01*
X136669004Y-100960688D01*
X136669001Y-100960685D01*
X136668999Y-100960682D01*
X136607109Y-100898792D01*
X145547100Y-100898792D01*
X145547100Y-101031208D01*
X145564755Y-101097100D01*
X145581371Y-101159114D01*
X145647578Y-101273786D01*
X145647582Y-101273792D01*
X145741207Y-101367417D01*
X145741210Y-101367419D01*
X145741212Y-101367421D01*
X145791775Y-101396613D01*
X145855885Y-101433628D01*
X145855887Y-101433628D01*
X145855888Y-101433629D01*
X145983792Y-101467900D01*
X145983794Y-101467900D01*
X146116207Y-101467900D01*
X146116208Y-101467900D01*
X146244112Y-101433629D01*
X146358788Y-101367421D01*
X146452421Y-101273788D01*
X146518629Y-101159112D01*
X146552900Y-101031208D01*
X146552900Y-100898792D01*
X146518629Y-100770888D01*
X146518628Y-100770887D01*
X146518628Y-100770885D01*
X146481613Y-100706775D01*
X146452421Y-100656212D01*
X146452419Y-100656210D01*
X146452417Y-100656207D01*
X146358792Y-100562582D01*
X146358786Y-100562578D01*
X146244114Y-100496371D01*
X146180160Y-100479235D01*
X146116208Y-100462100D01*
X145983792Y-100462100D01*
X145932630Y-100475808D01*
X145855885Y-100496371D01*
X145741213Y-100562578D01*
X145741207Y-100562582D01*
X145647582Y-100656207D01*
X145647578Y-100656213D01*
X145581371Y-100770885D01*
X145567945Y-100820996D01*
X145547100Y-100898792D01*
X136607109Y-100898792D01*
X136529317Y-100821000D01*
X136529313Y-100820997D01*
X136529312Y-100820996D01*
X136365051Y-100711241D01*
X136232201Y-100656213D01*
X136182538Y-100635642D01*
X136182537Y-100635641D01*
X135988778Y-100597100D01*
X135988777Y-100597100D01*
X135791223Y-100597100D01*
X135791222Y-100597100D01*
X135597462Y-100635641D01*
X135597461Y-100635642D01*
X135414950Y-100711240D01*
X135250682Y-100821000D01*
X135111000Y-100960682D01*
X135001240Y-101124950D01*
X134925642Y-101307461D01*
X134925641Y-101307462D01*
X134887100Y-101501222D01*
X134137900Y-101501222D01*
X134137900Y-100263792D01*
X151897100Y-100263792D01*
X151897100Y-100396208D01*
X151914755Y-100462100D01*
X151931371Y-100524114D01*
X151997578Y-100638786D01*
X151997582Y-100638792D01*
X152091207Y-100732417D01*
X152091210Y-100732419D01*
X152091212Y-100732421D01*
X152141775Y-100761613D01*
X152205885Y-100798628D01*
X152205887Y-100798628D01*
X152205888Y-100798629D01*
X152333792Y-100832900D01*
X152333794Y-100832900D01*
X152466206Y-100832900D01*
X152466208Y-100832900D01*
X152594112Y-100798629D01*
X152708788Y-100732421D01*
X152802421Y-100638788D01*
X152868629Y-100524112D01*
X152902900Y-100396208D01*
X152902900Y-100263792D01*
X152868629Y-100135888D01*
X152868628Y-100135887D01*
X152868628Y-100135885D01*
X152826489Y-100062900D01*
X152802421Y-100021212D01*
X152802419Y-100021210D01*
X152802417Y-100021207D01*
X152708792Y-99927582D01*
X152708786Y-99927578D01*
X152594114Y-99861371D01*
X152510635Y-99839004D01*
X152466208Y-99827100D01*
X152333792Y-99827100D01*
X152289365Y-99839004D01*
X152205885Y-99861371D01*
X152091213Y-99927578D01*
X152091207Y-99927582D01*
X151997582Y-100021207D01*
X151997578Y-100021213D01*
X151931371Y-100135885D01*
X151917883Y-100186226D01*
X151897100Y-100263792D01*
X134137900Y-100263792D01*
X134137900Y-98961222D01*
X134887100Y-98961222D01*
X134887100Y-99158777D01*
X134925641Y-99352537D01*
X134925642Y-99352538D01*
X135001241Y-99535051D01*
X135110996Y-99699312D01*
X135110997Y-99699313D01*
X135111000Y-99699317D01*
X135250682Y-99838999D01*
X135250685Y-99839001D01*
X135250688Y-99839004D01*
X135414949Y-99948759D01*
X135597461Y-100024357D01*
X135597462Y-100024358D01*
X135597463Y-100024358D01*
X135597465Y-100024359D01*
X135727218Y-100050168D01*
X135791222Y-100062900D01*
X135791223Y-100062900D01*
X135988778Y-100062900D01*
X136036889Y-100053329D01*
X136182535Y-100024359D01*
X136365051Y-99948759D01*
X136529312Y-99839004D01*
X136669004Y-99699312D01*
X136716124Y-99628792D01*
X146817100Y-99628792D01*
X146817100Y-99761208D01*
X146834755Y-99827100D01*
X146851371Y-99889114D01*
X146917578Y-100003786D01*
X146917582Y-100003792D01*
X147011207Y-100097417D01*
X147011210Y-100097419D01*
X147011212Y-100097421D01*
X147061775Y-100126613D01*
X147125885Y-100163628D01*
X147125887Y-100163628D01*
X147125888Y-100163629D01*
X147253792Y-100197900D01*
X147253794Y-100197900D01*
X147386207Y-100197900D01*
X147386208Y-100197900D01*
X147514112Y-100163629D01*
X147628788Y-100097421D01*
X147722421Y-100003788D01*
X147788629Y-99889112D01*
X147822900Y-99761208D01*
X147822900Y-99628792D01*
X153802100Y-99628792D01*
X153802100Y-99761208D01*
X153819755Y-99827100D01*
X153836371Y-99889114D01*
X153902578Y-100003786D01*
X153902582Y-100003792D01*
X153996207Y-100097417D01*
X153996210Y-100097419D01*
X153996212Y-100097421D01*
X154046775Y-100126613D01*
X154110885Y-100163628D01*
X154110887Y-100163628D01*
X154110888Y-100163629D01*
X154238792Y-100197900D01*
X154238794Y-100197900D01*
X154371206Y-100197900D01*
X154371208Y-100197900D01*
X154499112Y-100163629D01*
X154613788Y-100097421D01*
X154707421Y-100003788D01*
X154773629Y-99889112D01*
X154807900Y-99761208D01*
X154807900Y-99628792D01*
X154773629Y-99500888D01*
X154773628Y-99500887D01*
X154773628Y-99500885D01*
X154736613Y-99436775D01*
X154707421Y-99386212D01*
X154707419Y-99386210D01*
X154707417Y-99386207D01*
X154613792Y-99292582D01*
X154613786Y-99292578D01*
X154499114Y-99226371D01*
X154435160Y-99209235D01*
X154371208Y-99192100D01*
X154238792Y-99192100D01*
X154187630Y-99205808D01*
X154110885Y-99226371D01*
X153996213Y-99292578D01*
X153996207Y-99292582D01*
X153902582Y-99386207D01*
X153902578Y-99386213D01*
X153836371Y-99500885D01*
X153827217Y-99535051D01*
X153802100Y-99628792D01*
X147822900Y-99628792D01*
X147788629Y-99500888D01*
X147788628Y-99500887D01*
X147788628Y-99500885D01*
X147751613Y-99436775D01*
X147722421Y-99386212D01*
X147722419Y-99386210D01*
X147722417Y-99386207D01*
X147628792Y-99292582D01*
X147628786Y-99292578D01*
X147514114Y-99226371D01*
X147450160Y-99209235D01*
X147386208Y-99192100D01*
X147253792Y-99192100D01*
X147202630Y-99205808D01*
X147125885Y-99226371D01*
X147011213Y-99292578D01*
X147011207Y-99292582D01*
X146917582Y-99386207D01*
X146917578Y-99386213D01*
X146851371Y-99500885D01*
X146842217Y-99535051D01*
X146817100Y-99628792D01*
X136716124Y-99628792D01*
X136778759Y-99535051D01*
X136854359Y-99352535D01*
X136892900Y-99158777D01*
X136892900Y-98961223D01*
X136854359Y-98767465D01*
X136778759Y-98584949D01*
X136669004Y-98420688D01*
X136669001Y-98420685D01*
X136668999Y-98420682D01*
X136607109Y-98358792D01*
X138562100Y-98358792D01*
X138562100Y-98491208D01*
X138582662Y-98567950D01*
X138596371Y-98619114D01*
X138662578Y-98733786D01*
X138662582Y-98733792D01*
X138756207Y-98827417D01*
X138756210Y-98827419D01*
X138756212Y-98827421D01*
X138806775Y-98856613D01*
X138870885Y-98893628D01*
X138870887Y-98893628D01*
X138870888Y-98893629D01*
X138998792Y-98927900D01*
X138998794Y-98927900D01*
X139131206Y-98927900D01*
X139131208Y-98927900D01*
X139259112Y-98893629D01*
X139373788Y-98827421D01*
X139467421Y-98733788D01*
X139533629Y-98619112D01*
X139567900Y-98491208D01*
X139567900Y-98358792D01*
X146817100Y-98358792D01*
X146817100Y-98491208D01*
X146837662Y-98567950D01*
X146851371Y-98619114D01*
X146917578Y-98733786D01*
X146917582Y-98733792D01*
X147011207Y-98827417D01*
X147011210Y-98827419D01*
X147011212Y-98827421D01*
X147061775Y-98856613D01*
X147125885Y-98893628D01*
X147125887Y-98893628D01*
X147125888Y-98893629D01*
X147253792Y-98927900D01*
X147253794Y-98927900D01*
X147386206Y-98927900D01*
X147386208Y-98927900D01*
X147514112Y-98893629D01*
X147628788Y-98827421D01*
X147722421Y-98733788D01*
X147788629Y-98619112D01*
X147822900Y-98491208D01*
X147822900Y-98358792D01*
X155072100Y-98358792D01*
X155072100Y-98491208D01*
X155092662Y-98567950D01*
X155106371Y-98619114D01*
X155172578Y-98733786D01*
X155172582Y-98733792D01*
X155266207Y-98827417D01*
X155266210Y-98827419D01*
X155266212Y-98827421D01*
X155316775Y-98856613D01*
X155380885Y-98893628D01*
X155380887Y-98893628D01*
X155380888Y-98893629D01*
X155508792Y-98927900D01*
X155508794Y-98927900D01*
X155641206Y-98927900D01*
X155641208Y-98927900D01*
X155769112Y-98893629D01*
X155883788Y-98827421D01*
X155977421Y-98733788D01*
X156043629Y-98619112D01*
X156077900Y-98491208D01*
X156077900Y-98358792D01*
X156043629Y-98230888D01*
X156043628Y-98230887D01*
X156043628Y-98230885D01*
X156006613Y-98166775D01*
X155977421Y-98116212D01*
X155977419Y-98116210D01*
X155977417Y-98116207D01*
X155883792Y-98022582D01*
X155883786Y-98022578D01*
X155769114Y-97956371D01*
X155705160Y-97939235D01*
X155641208Y-97922100D01*
X155508792Y-97922100D01*
X155457630Y-97935808D01*
X155380885Y-97956371D01*
X155266213Y-98022578D01*
X155266207Y-98022582D01*
X155172582Y-98116207D01*
X155172578Y-98116213D01*
X155106371Y-98230885D01*
X155092883Y-98281226D01*
X155072100Y-98358792D01*
X147822900Y-98358792D01*
X147788629Y-98230888D01*
X147788628Y-98230887D01*
X147788628Y-98230885D01*
X147751613Y-98166775D01*
X147722421Y-98116212D01*
X147722419Y-98116210D01*
X147722417Y-98116207D01*
X147628792Y-98022582D01*
X147628786Y-98022578D01*
X147514114Y-97956371D01*
X147450160Y-97939235D01*
X147386208Y-97922100D01*
X147253792Y-97922100D01*
X147202630Y-97935808D01*
X147125885Y-97956371D01*
X147011213Y-98022578D01*
X147011207Y-98022582D01*
X146917582Y-98116207D01*
X146917578Y-98116213D01*
X146851371Y-98230885D01*
X146837883Y-98281226D01*
X146817100Y-98358792D01*
X139567900Y-98358792D01*
X139533629Y-98230888D01*
X139533628Y-98230887D01*
X139533628Y-98230885D01*
X139496613Y-98166775D01*
X139467421Y-98116212D01*
X139467419Y-98116210D01*
X139467417Y-98116207D01*
X139373792Y-98022582D01*
X139373786Y-98022578D01*
X139259114Y-97956371D01*
X139195160Y-97939235D01*
X139131208Y-97922100D01*
X138998792Y-97922100D01*
X138947630Y-97935808D01*
X138870885Y-97956371D01*
X138756213Y-98022578D01*
X138756207Y-98022582D01*
X138662582Y-98116207D01*
X138662578Y-98116213D01*
X138596371Y-98230885D01*
X138582883Y-98281226D01*
X138562100Y-98358792D01*
X136607109Y-98358792D01*
X136529317Y-98281000D01*
X136529313Y-98280997D01*
X136529312Y-98280996D01*
X136365051Y-98171241D01*
X136232201Y-98116213D01*
X136182538Y-98095642D01*
X136182537Y-98095641D01*
X135988778Y-98057100D01*
X135988777Y-98057100D01*
X135791223Y-98057100D01*
X135791222Y-98057100D01*
X135597462Y-98095641D01*
X135597461Y-98095642D01*
X135414950Y-98171240D01*
X135250682Y-98281000D01*
X135111000Y-98420682D01*
X135001240Y-98584950D01*
X134925642Y-98767461D01*
X134925641Y-98767462D01*
X134887100Y-98961222D01*
X134137900Y-98961222D01*
X134137900Y-97723792D01*
X144912100Y-97723792D01*
X144912100Y-97856208D01*
X144929755Y-97922100D01*
X144946371Y-97984114D01*
X145012578Y-98098786D01*
X145012582Y-98098792D01*
X145106207Y-98192417D01*
X145106210Y-98192419D01*
X145106212Y-98192421D01*
X145156775Y-98221613D01*
X145220885Y-98258628D01*
X145220887Y-98258628D01*
X145220888Y-98258629D01*
X145348792Y-98292900D01*
X145348794Y-98292900D01*
X145481207Y-98292900D01*
X145481208Y-98292900D01*
X145609112Y-98258629D01*
X145723788Y-98192421D01*
X145817421Y-98098788D01*
X145883629Y-97984112D01*
X145917900Y-97856208D01*
X145917900Y-97723792D01*
X145883629Y-97595888D01*
X145883628Y-97595887D01*
X145883628Y-97595885D01*
X145841489Y-97522900D01*
X145817421Y-97481212D01*
X145817419Y-97481210D01*
X145817417Y-97481207D01*
X145723792Y-97387582D01*
X145723786Y-97387578D01*
X145609114Y-97321371D01*
X145525635Y-97299004D01*
X145481208Y-97287100D01*
X145348792Y-97287100D01*
X145304365Y-97299004D01*
X145220885Y-97321371D01*
X145106213Y-97387578D01*
X145106207Y-97387582D01*
X145012582Y-97481207D01*
X145012578Y-97481213D01*
X144946371Y-97595885D01*
X144925808Y-97672630D01*
X144912100Y-97723792D01*
X134137900Y-97723792D01*
X134137900Y-96421222D01*
X134887100Y-96421222D01*
X134887100Y-96618777D01*
X134925641Y-96812537D01*
X134925642Y-96812538D01*
X134998581Y-96988629D01*
X135001241Y-96995051D01*
X135110996Y-97159312D01*
X135110997Y-97159313D01*
X135111000Y-97159317D01*
X135250682Y-97298999D01*
X135250685Y-97299001D01*
X135250688Y-97299004D01*
X135414949Y-97408759D01*
X135597461Y-97484357D01*
X135597462Y-97484358D01*
X135597463Y-97484358D01*
X135597465Y-97484359D01*
X135727218Y-97510168D01*
X135791222Y-97522900D01*
X135791223Y-97522900D01*
X135988778Y-97522900D01*
X136036889Y-97513329D01*
X136182535Y-97484359D01*
X136365051Y-97408759D01*
X136529312Y-97299004D01*
X136669004Y-97159312D01*
X136778759Y-96995051D01*
X136854359Y-96812535D01*
X136892900Y-96618777D01*
X136892900Y-96453792D01*
X148722100Y-96453792D01*
X148722100Y-96586208D01*
X148730827Y-96618777D01*
X148756371Y-96714114D01*
X148822578Y-96828786D01*
X148822582Y-96828792D01*
X148916207Y-96922417D01*
X148916210Y-96922419D01*
X148916212Y-96922421D01*
X148966775Y-96951613D01*
X149030885Y-96988628D01*
X149030887Y-96988628D01*
X149030888Y-96988629D01*
X149158792Y-97022900D01*
X149158794Y-97022900D01*
X149291206Y-97022900D01*
X149291208Y-97022900D01*
X149419112Y-96988629D01*
X149533788Y-96922421D01*
X149627421Y-96828788D01*
X149693629Y-96714112D01*
X149727900Y-96586208D01*
X149727900Y-96453792D01*
X149693629Y-96325888D01*
X149693628Y-96325887D01*
X149693628Y-96325885D01*
X149656613Y-96261775D01*
X149627421Y-96211212D01*
X149627419Y-96211210D01*
X149627417Y-96211207D01*
X149533792Y-96117582D01*
X149533786Y-96117578D01*
X149419114Y-96051371D01*
X149355160Y-96034235D01*
X149291208Y-96017100D01*
X149158792Y-96017100D01*
X149107630Y-96030808D01*
X149030885Y-96051371D01*
X148916213Y-96117578D01*
X148916207Y-96117582D01*
X148822582Y-96211207D01*
X148822578Y-96211213D01*
X148756371Y-96325885D01*
X148739755Y-96387900D01*
X148722100Y-96453792D01*
X136892900Y-96453792D01*
X136892900Y-96421223D01*
X136854359Y-96227465D01*
X136778759Y-96044949D01*
X136669004Y-95880688D01*
X136669001Y-95880685D01*
X136668999Y-95880682D01*
X136607109Y-95818792D01*
X152532100Y-95818792D01*
X152532100Y-95951208D01*
X152549755Y-96017100D01*
X152566371Y-96079114D01*
X152632578Y-96193786D01*
X152632582Y-96193792D01*
X152726207Y-96287417D01*
X152726210Y-96287419D01*
X152726212Y-96287421D01*
X152776775Y-96316613D01*
X152840885Y-96353628D01*
X152840887Y-96353628D01*
X152840888Y-96353629D01*
X152968792Y-96387900D01*
X152968794Y-96387900D01*
X153101206Y-96387900D01*
X153101208Y-96387900D01*
X153229112Y-96353629D01*
X153343788Y-96287421D01*
X153437421Y-96193788D01*
X153503629Y-96079112D01*
X153537900Y-95951208D01*
X153537900Y-95818792D01*
X153503629Y-95690888D01*
X153503628Y-95690887D01*
X153503628Y-95690885D01*
X153466613Y-95626775D01*
X153437421Y-95576212D01*
X153437419Y-95576210D01*
X153437417Y-95576207D01*
X153343792Y-95482582D01*
X153343786Y-95482578D01*
X153229114Y-95416371D01*
X153165160Y-95399235D01*
X153101208Y-95382100D01*
X152968792Y-95382100D01*
X152917630Y-95395808D01*
X152840885Y-95416371D01*
X152726213Y-95482578D01*
X152726207Y-95482582D01*
X152632582Y-95576207D01*
X152632578Y-95576213D01*
X152566371Y-95690885D01*
X152552945Y-95740996D01*
X152532100Y-95818792D01*
X136607109Y-95818792D01*
X136529317Y-95741000D01*
X136529313Y-95740997D01*
X136529312Y-95740996D01*
X136365051Y-95631241D01*
X136232201Y-95576213D01*
X136182538Y-95555642D01*
X136182537Y-95555641D01*
X135988778Y-95517100D01*
X135988777Y-95517100D01*
X135791223Y-95517100D01*
X135791222Y-95517100D01*
X135597462Y-95555641D01*
X135597461Y-95555642D01*
X135414950Y-95631240D01*
X135250682Y-95741000D01*
X135111000Y-95880682D01*
X135001240Y-96044950D01*
X134925642Y-96227461D01*
X134925641Y-96227462D01*
X134887100Y-96421222D01*
X134137900Y-96421222D01*
X134137900Y-93881222D01*
X134887100Y-93881222D01*
X134887100Y-94078777D01*
X134925641Y-94272537D01*
X134925642Y-94272538D01*
X135001241Y-94455051D01*
X135110996Y-94619312D01*
X135110997Y-94619313D01*
X135111000Y-94619317D01*
X135250682Y-94758999D01*
X135250685Y-94759001D01*
X135250688Y-94759004D01*
X135414949Y-94868759D01*
X135597461Y-94944357D01*
X135597462Y-94944358D01*
X135597463Y-94944358D01*
X135597465Y-94944359D01*
X135727218Y-94970168D01*
X135791222Y-94982900D01*
X135791223Y-94982900D01*
X135988778Y-94982900D01*
X136036889Y-94973329D01*
X136182535Y-94944359D01*
X136365051Y-94868759D01*
X136529312Y-94759004D01*
X136669004Y-94619312D01*
X136716124Y-94548792D01*
X144912100Y-94548792D01*
X144912100Y-94681208D01*
X144932662Y-94757950D01*
X144946371Y-94809114D01*
X145012578Y-94923786D01*
X145012582Y-94923792D01*
X145106207Y-95017417D01*
X145106210Y-95017419D01*
X145106212Y-95017421D01*
X145156775Y-95046613D01*
X145220885Y-95083628D01*
X145220887Y-95083628D01*
X145220888Y-95083629D01*
X145348792Y-95117900D01*
X145348794Y-95117900D01*
X145481206Y-95117900D01*
X145481208Y-95117900D01*
X145609112Y-95083629D01*
X145723788Y-95017421D01*
X145817421Y-94923788D01*
X145883629Y-94809112D01*
X145917900Y-94681208D01*
X145917900Y-94548792D01*
X146817100Y-94548792D01*
X146817100Y-94681208D01*
X146837662Y-94757950D01*
X146851371Y-94809114D01*
X146917578Y-94923786D01*
X146917582Y-94923792D01*
X147011207Y-95017417D01*
X147011210Y-95017419D01*
X147011212Y-95017421D01*
X147061775Y-95046613D01*
X147125885Y-95083628D01*
X147125887Y-95083628D01*
X147125888Y-95083629D01*
X147253792Y-95117900D01*
X147253794Y-95117900D01*
X147386206Y-95117900D01*
X147386208Y-95117900D01*
X147514112Y-95083629D01*
X147628788Y-95017421D01*
X147722421Y-94923788D01*
X147788629Y-94809112D01*
X147822900Y-94681208D01*
X147822900Y-94548792D01*
X147788629Y-94420888D01*
X147788628Y-94420887D01*
X147788628Y-94420885D01*
X147751613Y-94356775D01*
X147722421Y-94306212D01*
X147722419Y-94306210D01*
X147722417Y-94306207D01*
X147628792Y-94212582D01*
X147628786Y-94212578D01*
X147514114Y-94146371D01*
X147450160Y-94129235D01*
X147386208Y-94112100D01*
X147253792Y-94112100D01*
X147202630Y-94125808D01*
X147125885Y-94146371D01*
X147011213Y-94212578D01*
X147011207Y-94212582D01*
X146917582Y-94306207D01*
X146917578Y-94306213D01*
X146851371Y-94420885D01*
X146842217Y-94455051D01*
X146817100Y-94548792D01*
X145917900Y-94548792D01*
X145883629Y-94420888D01*
X145883628Y-94420887D01*
X145883628Y-94420885D01*
X145846613Y-94356775D01*
X145817421Y-94306212D01*
X145817419Y-94306210D01*
X145817417Y-94306207D01*
X145723792Y-94212582D01*
X145723786Y-94212578D01*
X145609114Y-94146371D01*
X145545160Y-94129235D01*
X145481208Y-94112100D01*
X145348792Y-94112100D01*
X145297630Y-94125808D01*
X145220885Y-94146371D01*
X145106213Y-94212578D01*
X145106207Y-94212582D01*
X145012582Y-94306207D01*
X145012578Y-94306213D01*
X144946371Y-94420885D01*
X144937217Y-94455051D01*
X144912100Y-94548792D01*
X136716124Y-94548792D01*
X136778759Y-94455051D01*
X136854359Y-94272535D01*
X136892900Y-94078777D01*
X136892900Y-93881223D01*
X136854359Y-93687465D01*
X136778759Y-93504949D01*
X136669004Y-93340688D01*
X136669001Y-93340685D01*
X136668999Y-93340682D01*
X136607109Y-93278792D01*
X139197100Y-93278792D01*
X139197100Y-93411208D01*
X139217662Y-93487950D01*
X139231371Y-93539114D01*
X139297578Y-93653786D01*
X139297582Y-93653792D01*
X139391207Y-93747417D01*
X139391210Y-93747419D01*
X139391212Y-93747421D01*
X139441775Y-93776613D01*
X139505885Y-93813628D01*
X139505887Y-93813628D01*
X139505888Y-93813629D01*
X139633792Y-93847900D01*
X139633794Y-93847900D01*
X139766206Y-93847900D01*
X139766208Y-93847900D01*
X139894112Y-93813629D01*
X140008788Y-93747421D01*
X140102421Y-93653788D01*
X140168629Y-93539112D01*
X140202900Y-93411208D01*
X140202900Y-93278792D01*
X140168629Y-93150888D01*
X140168628Y-93150887D01*
X140168628Y-93150885D01*
X140131613Y-93086775D01*
X140102421Y-93036212D01*
X140102419Y-93036210D01*
X140102417Y-93036207D01*
X140008792Y-92942582D01*
X140008786Y-92942578D01*
X139894114Y-92876371D01*
X139830160Y-92859235D01*
X139766208Y-92842100D01*
X139633792Y-92842100D01*
X139582630Y-92855808D01*
X139505885Y-92876371D01*
X139391213Y-92942578D01*
X139391207Y-92942582D01*
X139297582Y-93036207D01*
X139297578Y-93036213D01*
X139231371Y-93150885D01*
X139217945Y-93200996D01*
X139197100Y-93278792D01*
X136607109Y-93278792D01*
X136529317Y-93201000D01*
X136529313Y-93200997D01*
X136529312Y-93200996D01*
X136365051Y-93091241D01*
X136232201Y-93036213D01*
X136182538Y-93015642D01*
X136182537Y-93015641D01*
X135988778Y-92977100D01*
X135988777Y-92977100D01*
X135791223Y-92977100D01*
X135791222Y-92977100D01*
X135597462Y-93015641D01*
X135597461Y-93015642D01*
X135414950Y-93091240D01*
X135250682Y-93201000D01*
X135111000Y-93340682D01*
X135001240Y-93504950D01*
X134925642Y-93687461D01*
X134925641Y-93687462D01*
X134887100Y-93881222D01*
X134137900Y-93881222D01*
X134137900Y-92643792D01*
X155072100Y-92643792D01*
X155072100Y-92776208D01*
X155089755Y-92842100D01*
X155106371Y-92904114D01*
X155172578Y-93018786D01*
X155172582Y-93018792D01*
X155266207Y-93112417D01*
X155266210Y-93112419D01*
X155266212Y-93112421D01*
X155316775Y-93141613D01*
X155380885Y-93178628D01*
X155380887Y-93178628D01*
X155380888Y-93178629D01*
X155508792Y-93212900D01*
X155508794Y-93212900D01*
X155641206Y-93212900D01*
X155641208Y-93212900D01*
X155769112Y-93178629D01*
X155883788Y-93112421D01*
X155977421Y-93018788D01*
X156043629Y-92904112D01*
X156077900Y-92776208D01*
X156077900Y-92643792D01*
X156043629Y-92515888D01*
X156043628Y-92515887D01*
X156043628Y-92515885D01*
X155996095Y-92433557D01*
X155977421Y-92401212D01*
X155977419Y-92401210D01*
X155977417Y-92401207D01*
X155883792Y-92307582D01*
X155883786Y-92307578D01*
X155769114Y-92241371D01*
X155705160Y-92224235D01*
X155641208Y-92207100D01*
X155508792Y-92207100D01*
X155457630Y-92220808D01*
X155380885Y-92241371D01*
X155266213Y-92307578D01*
X155266207Y-92307582D01*
X155172582Y-92401207D01*
X155172578Y-92401213D01*
X155106371Y-92515885D01*
X155092883Y-92566226D01*
X155072100Y-92643792D01*
X134137900Y-92643792D01*
X134137900Y-90574987D01*
X134887600Y-90574987D01*
X134887600Y-91287600D01*
X135413198Y-91287600D01*
X135390000Y-91374174D01*
X135390000Y-91505826D01*
X135413198Y-91592400D01*
X134887600Y-91592400D01*
X134887600Y-92305012D01*
X134896441Y-92349462D01*
X134896442Y-92349464D01*
X134930126Y-92399873D01*
X134980535Y-92433557D01*
X134980537Y-92433558D01*
X135024987Y-92442400D01*
X135737600Y-92442400D01*
X135737600Y-91916802D01*
X135824174Y-91940000D01*
X135955826Y-91940000D01*
X136042400Y-91916802D01*
X136042400Y-92442400D01*
X136755013Y-92442400D01*
X136799462Y-92433558D01*
X136799464Y-92433557D01*
X136849873Y-92399873D01*
X136883557Y-92349464D01*
X136883558Y-92349462D01*
X136892400Y-92305012D01*
X136892400Y-92008792D01*
X145547100Y-92008792D01*
X145547100Y-92141208D01*
X145564755Y-92207100D01*
X145581371Y-92269114D01*
X145647578Y-92383786D01*
X145647582Y-92383792D01*
X145741207Y-92477417D01*
X145741210Y-92477419D01*
X145741212Y-92477421D01*
X145791775Y-92506613D01*
X145855885Y-92543628D01*
X145855887Y-92543628D01*
X145855888Y-92543629D01*
X145983792Y-92577900D01*
X145983794Y-92577900D01*
X146116207Y-92577900D01*
X146116208Y-92577900D01*
X146244112Y-92543629D01*
X146358788Y-92477421D01*
X146452421Y-92383788D01*
X146518629Y-92269112D01*
X146552900Y-92141208D01*
X146552900Y-92008792D01*
X146518629Y-91880888D01*
X146518628Y-91880887D01*
X146518628Y-91880885D01*
X146481613Y-91816775D01*
X146452421Y-91766212D01*
X146452419Y-91766210D01*
X146452417Y-91766207D01*
X146358792Y-91672582D01*
X146358786Y-91672578D01*
X146244114Y-91606371D01*
X146180160Y-91589235D01*
X146116208Y-91572100D01*
X145983792Y-91572100D01*
X145932630Y-91585808D01*
X145855885Y-91606371D01*
X145741213Y-91672578D01*
X145741207Y-91672582D01*
X145647582Y-91766207D01*
X145647578Y-91766213D01*
X145581371Y-91880885D01*
X145565532Y-91940000D01*
X145547100Y-92008792D01*
X136892400Y-92008792D01*
X136892400Y-91592400D01*
X136366802Y-91592400D01*
X136390000Y-91505826D01*
X136390000Y-91374174D01*
X136366802Y-91287600D01*
X136892400Y-91287600D01*
X136892400Y-90738792D01*
X139197100Y-90738792D01*
X139197100Y-90871208D01*
X139215532Y-90940000D01*
X139231371Y-90999114D01*
X139297578Y-91113786D01*
X139297582Y-91113792D01*
X139391207Y-91207417D01*
X139391210Y-91207419D01*
X139391212Y-91207421D01*
X139441775Y-91236613D01*
X139505885Y-91273628D01*
X139505887Y-91273628D01*
X139505888Y-91273629D01*
X139633792Y-91307900D01*
X139633794Y-91307900D01*
X139766206Y-91307900D01*
X139766208Y-91307900D01*
X139894112Y-91273629D01*
X140008788Y-91207421D01*
X140102421Y-91113788D01*
X140168629Y-90999112D01*
X140202900Y-90871208D01*
X140202900Y-90738792D01*
X142372100Y-90738792D01*
X142372100Y-90871208D01*
X142390532Y-90940000D01*
X142406371Y-90999114D01*
X142472578Y-91113786D01*
X142472582Y-91113792D01*
X142566207Y-91207417D01*
X142566210Y-91207419D01*
X142566212Y-91207421D01*
X142616775Y-91236613D01*
X142680885Y-91273628D01*
X142680887Y-91273628D01*
X142680888Y-91273629D01*
X142808792Y-91307900D01*
X142808794Y-91307900D01*
X142941206Y-91307900D01*
X142941208Y-91307900D01*
X143069112Y-91273629D01*
X143183788Y-91207421D01*
X143277421Y-91113788D01*
X143343629Y-90999112D01*
X143377900Y-90871208D01*
X143377900Y-90738792D01*
X145547100Y-90738792D01*
X145547100Y-90871208D01*
X145565532Y-90940000D01*
X145581371Y-90999114D01*
X145647578Y-91113786D01*
X145647582Y-91113792D01*
X145741207Y-91207417D01*
X145741210Y-91207419D01*
X145741212Y-91207421D01*
X145791775Y-91236613D01*
X145855885Y-91273628D01*
X145855887Y-91273628D01*
X145855888Y-91273629D01*
X145983792Y-91307900D01*
X145983794Y-91307900D01*
X146116206Y-91307900D01*
X146116208Y-91307900D01*
X146244112Y-91273629D01*
X146358788Y-91207421D01*
X146452421Y-91113788D01*
X146518629Y-90999112D01*
X146552900Y-90871208D01*
X146552900Y-90738792D01*
X151262100Y-90738792D01*
X151262100Y-90871208D01*
X151280532Y-90940000D01*
X151296371Y-90999114D01*
X151362578Y-91113786D01*
X151362582Y-91113792D01*
X151456207Y-91207417D01*
X151456210Y-91207419D01*
X151456212Y-91207421D01*
X151506775Y-91236613D01*
X151570885Y-91273628D01*
X151570887Y-91273628D01*
X151570888Y-91273629D01*
X151698792Y-91307900D01*
X151698794Y-91307900D01*
X151831206Y-91307900D01*
X151831208Y-91307900D01*
X151959112Y-91273629D01*
X152073788Y-91207421D01*
X152167421Y-91113788D01*
X152233629Y-90999112D01*
X152267900Y-90871208D01*
X152267900Y-90738792D01*
X152233629Y-90610888D01*
X152233628Y-90610887D01*
X152233628Y-90610885D01*
X152187237Y-90530535D01*
X152167421Y-90496212D01*
X152167419Y-90496210D01*
X152167417Y-90496207D01*
X152073792Y-90402582D01*
X152073786Y-90402578D01*
X151959114Y-90336371D01*
X151895160Y-90319235D01*
X151831208Y-90302100D01*
X151698792Y-90302100D01*
X151647630Y-90315808D01*
X151570885Y-90336371D01*
X151456213Y-90402578D01*
X151456207Y-90402582D01*
X151362582Y-90496207D01*
X151362578Y-90496213D01*
X151296371Y-90610885D01*
X151275808Y-90687630D01*
X151262100Y-90738792D01*
X146552900Y-90738792D01*
X146518629Y-90610888D01*
X146518628Y-90610887D01*
X146518628Y-90610885D01*
X146472237Y-90530535D01*
X146452421Y-90496212D01*
X146452419Y-90496210D01*
X146452417Y-90496207D01*
X146358792Y-90402582D01*
X146358786Y-90402578D01*
X146244114Y-90336371D01*
X146180160Y-90319235D01*
X146116208Y-90302100D01*
X145983792Y-90302100D01*
X145932630Y-90315808D01*
X145855885Y-90336371D01*
X145741213Y-90402578D01*
X145741207Y-90402582D01*
X145647582Y-90496207D01*
X145647578Y-90496213D01*
X145581371Y-90610885D01*
X145560808Y-90687630D01*
X145547100Y-90738792D01*
X143377900Y-90738792D01*
X143343629Y-90610888D01*
X143343628Y-90610887D01*
X143343628Y-90610885D01*
X143297237Y-90530535D01*
X143277421Y-90496212D01*
X143277419Y-90496210D01*
X143277417Y-90496207D01*
X143183792Y-90402582D01*
X143183786Y-90402578D01*
X143069114Y-90336371D01*
X143005160Y-90319235D01*
X142941208Y-90302100D01*
X142808792Y-90302100D01*
X142757630Y-90315808D01*
X142680885Y-90336371D01*
X142566213Y-90402578D01*
X142566207Y-90402582D01*
X142472582Y-90496207D01*
X142472578Y-90496213D01*
X142406371Y-90610885D01*
X142385808Y-90687630D01*
X142372100Y-90738792D01*
X140202900Y-90738792D01*
X140168629Y-90610888D01*
X140168628Y-90610887D01*
X140168628Y-90610885D01*
X140122237Y-90530535D01*
X140102421Y-90496212D01*
X140102419Y-90496210D01*
X140102417Y-90496207D01*
X140008792Y-90402582D01*
X140008786Y-90402578D01*
X139894114Y-90336371D01*
X139830160Y-90319235D01*
X139766208Y-90302100D01*
X139633792Y-90302100D01*
X139582630Y-90315808D01*
X139505885Y-90336371D01*
X139391213Y-90402578D01*
X139391207Y-90402582D01*
X139297582Y-90496207D01*
X139297578Y-90496213D01*
X139231371Y-90610885D01*
X139210808Y-90687630D01*
X139197100Y-90738792D01*
X136892400Y-90738792D01*
X136892400Y-90574987D01*
X136883558Y-90530537D01*
X136883557Y-90530535D01*
X136849873Y-90480126D01*
X136799464Y-90446442D01*
X136799462Y-90446441D01*
X136755013Y-90437600D01*
X136042400Y-90437600D01*
X136042400Y-90963197D01*
X135955826Y-90940000D01*
X135824174Y-90940000D01*
X135737600Y-90963197D01*
X135737600Y-90437600D01*
X135024987Y-90437600D01*
X134980537Y-90446441D01*
X134980535Y-90446442D01*
X134930126Y-90480126D01*
X134896442Y-90530535D01*
X134896441Y-90530537D01*
X134887600Y-90574987D01*
X134137900Y-90574987D01*
X134137900Y-90174930D01*
X134138543Y-90165115D01*
X134148116Y-90092399D01*
X134153035Y-90055033D01*
X134158113Y-90036081D01*
X134198703Y-89938088D01*
X134208512Y-89921100D01*
X134273078Y-89836956D01*
X134286958Y-89823077D01*
X134371100Y-89758512D01*
X134388088Y-89748703D01*
X134486081Y-89708113D01*
X134505033Y-89703035D01*
X134615116Y-89688543D01*
X134624931Y-89687900D01*
X134654898Y-89687900D01*
X156175102Y-89687900D01*
X156205069Y-89687900D01*
X156214884Y-89688543D01*
G37*
G04 #@! TD.AperFunction*
G04 #@! TD*
M02*
